SplineFontDB: 3.0
FontName: Monacal-Regular
FullName: Monacal
FamilyName: Monacal
Weight: Book
Copyright: Copyright (c) 2012 Fontstage (info@fontstage.com), with Reserved Font Names, 'Monacal'
Version: 1.001
ItalicAngle: 0
UnderlinePosition: -195
UnderlineWidth: 102
Ascent: 1638
Descent: 410
sfntRevision: 0x00010042
LayerCount: 2
Layer: 0 1 "Back"  1
Layer: 1 1 "Fore"  0
XUID: [1021 909 1441533383 9390803]
FSType: 0
OS2Version: 3
OS2_WeightWidthSlopeOnly: 0
OS2_UseTypoMetrics: 1
CreationTime: 1348631040
ModificationTime: 1354984377
PfmFamily: 17
TTFWeight: 400
TTFWidth: 5
LineGap: 0
VLineGap: 0
Panose: 2 0 5 0 0 0 0 2 0 3
OS2TypoAscent: 1411
OS2TypoAOffset: 0
OS2TypoDescent: -530
OS2TypoDOffset: 0
OS2TypoLinegap: 250
OS2WinAscent: 1618
OS2WinAOffset: 0
OS2WinDescent: 621
OS2WinDOffset: 0
HheadAscent: 1618
HheadAOffset: 0
HheadDescent: -621
HheadDOffset: 0
OS2SubXSize: 1331
OS2SubYSize: 1228
OS2SubXOff: 0
OS2SubYOff: 153
OS2SupXSize: 1331
OS2SupYSize: 1228
OS2SupXOff: 0
OS2SupYOff: 716
OS2StrikeYSize: 102
OS2StrikeYPos: 521
OS2Vendor: 'pyrs'
OS2CodePages: 20000093.00000000
OS2UnicodeRanges: a00000af.500020fb.00000000.00000000
DEI: 91125
TtTable: prep
PUSHW_1
 511
SCANCTRL
PUSHB_1
 4
SCANTYPE
EndTTInstrs
ShortTable: maxp 16
  1
  0
  416
  119
  6
  0
  0
  2
  0
  1
  1
  0
  64
  0
  0
  0
EndShort
LangName: 1033 "" "" "" "Fontstage: Monacal: 2012" "" "Version 1.001" "" "Monacal is a trademark of Fontstage." "Fontstage" "Fontstage" "" "http://www.fontstage.com" "http://www.fontstage.com" "This Font Software is licensed under the SIL Open Font License, Version 1.1. This license is available with a FAQ at: http://scripts.sil.org/OFL" "http://scripts.sil.org/OFL" 
GaspTable: 1 65535 15 1
Encoding: UnicodeBmp
UnicodeInterp: none
NameList: AGL For New Fonts
DisplaySize: -24
AntiAlias: 1
FitToEm: 1
BeginChars: 65545 416

StartChar: .notdef
Encoding: 65536 -1 0
Width: 1536
Flags: W
LayerCount: 2
Fore
SplineSet
256 38 m 1,0,-1
 256 1242 l 1,1,-1
 1218 1242 l 1,2,-1
 1218 38 l 1,3,-1
 256 38 l 1,0,-1
286 68 m 1,4,-1
 1188 68 l 1,5,-1
 1188 1212 l 1,6,-1
 286 1212 l 1,7,-1
 286 68 l 1,4,-1
EndSplineSet
EndChar

StartChar: exclam
Encoding: 33 33 4
Width: 573
GlyphClass: 2
Flags: W
LayerCount: 2
Fore
SplineSet
356 34.5 m 128,-1,1
 324 -8 324 -8 283.5 -8 c 128,-1,2
 243 -8 243 -8 218 27 c 128,-1,3
 193 62 193 62 193 110.5 c 128,-1,4
 193 159 193 159 227.5 199.5 c 128,-1,5
 262 240 262 240 298.5 240 c 128,-1,6
 335 240 335 240 361.5 204.5 c 128,-1,7
 388 169 388 169 388 123 c 128,-1,0
 388 77 388 77 356 34.5 c 128,-1,1
352 355 m 1,8,-1
 293 355 l 1,9,10
 377 929 377 929 434 1429 c 1,11,-1
 607 1466 l 1,12,-1
 352 355 l 1,8,-1
EndSplineSet
EndChar

StartChar: quotedbl
Encoding: 34 34 5
Width: 451
GlyphClass: 2
Flags: W
LayerCount: 2
Fore
SplineSet
340 1460 m 1,0,-1
 462 1435 l 1,1,2
 407 1204 407 1204 315 1021 c 1,3,-1
 284 1021 l 1,4,5
 301 1309 301 1309 340 1460 c 1,0,-1
633 1460 m 1,6,-1
 756 1435 l 1,7,8
 698 1195 698 1195 608 1021 c 1,9,-1
 578 1021 l 1,10,11
 593 1302 593 1302 633 1460 c 1,6,-1
EndSplineSet
EndChar

StartChar: numbersign
Encoding: 35 35 6
Width: 1393
GlyphClass: 2
Flags: W
LayerCount: 2
Fore
SplineSet
1152 1240 m 1,0,-1
 1098 880 l 1,1,-1
 1378 880 l 1,2,-1
 1293 776 l 1,3,-1
 1082 776 l 1,4,-1
 1025 420 l 1,5,-1
 1326 420 l 1,6,-1
 1241 316 l 1,7,-1
 1010 316 l 1,8,-1
 957 -25 l 1,9,-1
 845 -128 l 1,10,-1
 912 316 l 1,11,-1
 684 316 l 1,12,-1
 632 -25 l 1,13,-1
 517 -128 l 1,14,-1
 585 316 l 1,15,-1
 324 316 l 1,16,-1
 408 420 l 1,17,-1
 602 420 l 1,18,-1
 657 776 l 1,19,-1
 343 776 l 1,20,-1
 427 880 l 1,21,-1
 674 880 l 1,22,-1
 711 1136 l 1,23,-1
 827 1240 l 1,24,-1
 772 880 l 1,25,-1
 1002 880 l 1,26,-1
 1039 1136 l 1,27,-1
 1152 1240 l 1,0,-1
757 776 m 1,28,-1
 699 420 l 1,29,-1
 929 420 l 1,30,-1
 984 776 l 1,31,-1
 757 776 l 1,28,-1
EndSplineSet
EndChar

StartChar: dollar
Encoding: 36 36 7
Width: 901
GlyphClass: 2
Flags: W
LayerCount: 2
Fore
SplineSet
398 -18 m 2,0,1
 309 -18 309 -18 233.5 13.5 c 128,-1,2
 158 45 158 45 110.5 108.5 c 128,-1,3
 63 172 63 172 63 255 c 0,4,5
 63 314 63 314 79.5 348.5 c 128,-1,6
 96 383 96 383 135 383 c 128,-1,7
 174 383 174 383 187 355 c 1,8,9
 168 327 168 327 168 279 c 0,10,11
 168 170 168 170 235.5 102.5 c 128,-1,12
 303 35 303 35 419 35 c 2,13,-1
 432 35 l 1,14,-1
 489 600 l 1,15,16
 450 632 450 632 434.5 644.5 c 128,-1,17
 419 657 419 657 385 688 c 128,-1,18
 351 719 351 719 336 737.5 c 128,-1,19
 321 756 321 756 297.5 788 c 128,-1,20
 274 820 274 820 264 848 c 0,21,22
 237 924 237 924 237 990 c 0,23,24
 237 1123 237 1123 325 1211 c 128,-1,25
 413 1299 413 1299 561 1312 c 1,26,-1
 576 1455 l 1,27,-1
 623 1455 l 1,28,-1
 608 1314 l 1,29,30
 698 1314 698 1314 766.5 1278.5 c 128,-1,31
 835 1243 835 1243 839 1183 c 1,32,33
 839 1122 839 1122 799 1088 c 1,34,35
 761 1155 761 1155 715 1196 c 128,-1,36
 669 1237 669 1237 602 1249 c 1,37,-1
 552 756 l 1,38,39
 673 660 673 660 706 618 c 0,40,41
 764 546 764 546 777 508 c 1,42,43
 808 425 808 425 808 347 c 0,44,45
 808 197 808 197 718 102.5 c 128,-1,46
 628 8 628 8 474 -13 c 1,47,-1
 459 -158 l 1,48,-1
 412 -158 l 1,49,-1
 426 -18 l 1,50,-1
 398 -18 l 2,0,1
625.5 120 m 128,-1,52
 678 185 678 185 678 275 c 128,-1,53
 678 365 678 365 640 431.5 c 128,-1,54
 602 498 602 498 532 563 c 1,55,-1
 479 39 l 1,56,51
 573 55 573 55 625.5 120 c 128,-1,52
407.5 1195.5 m 128,-1,58
 353 1137 353 1137 353 1055 c 128,-1,59
 353 973 353 973 393.5 914 c 128,-1,60
 434 855 434 855 509 790 c 1,61,-1
 555 1254 l 1,62,-1
 550 1254 l 2,63,57
 462 1254 462 1254 407.5 1195.5 c 128,-1,58
EndSplineSet
EndChar

StartChar: percent
Encoding: 37 37 8
Width: 1393
GlyphClass: 2
Flags: W
LayerCount: 2
Fore
SplineSet
1074 40 m 0,0,1
 1123 40 1123 40 1159 75 c 128,-1,2
 1195 110 1195 110 1214 167 c 0,3,4
 1250 275 1250 275 1250 401 c 0,5,6
 1250 608 1250 608 1139 608 c 0,7,8
 1090 608 1090 608 1054 572.5 c 128,-1,9
 1018 537 1018 537 999 480 c 0,10,11
 962 370 962 370 962 246 c 0,12,13
 962 40 962 40 1074 40 c 0,0,1
1036 -22 m 0,14,15
 921 -22 921 -22 875 38.5 c 128,-1,16
 829 99 829 99 829 210 c 128,-1,17
 829 321 829 321 876.5 426.5 c 128,-1,18
 924 532 924 532 1003.5 596.5 c 128,-1,19
 1083 661 1083 661 1171 661 c 0,20,21
 1286 661 1286 661 1332 600.5 c 128,-1,22
 1378 540 1378 540 1378 429 c 128,-1,23
 1378 318 1378 318 1330.5 212.5 c 128,-1,24
 1283 107 1283 107 1203.5 42.5 c 128,-1,25
 1124 -22 1124 -22 1036 -22 c 0,14,15
448 851 m 0,26,27
 497 851 497 851 533 886 c 128,-1,28
 569 921 569 921 588 978 c 0,29,30
 624 1086 624 1086 624 1212 c 0,31,32
 624 1419 624 1419 513 1419 c 0,33,34
 464 1419 464 1419 428 1383.5 c 128,-1,35
 392 1348 392 1348 373 1292 c 0,36,37
 336 1181 336 1181 336 1057 c 0,38,39
 336 851 336 851 448 851 c 0,26,27
410 789 m 0,40,41
 295 789 295 789 249 849 c 128,-1,42
 203 909 203 909 203 1019.5 c 128,-1,43
 203 1130 203 1130 250.5 1236 c 128,-1,44
 298 1342 298 1342 377.5 1407 c 128,-1,45
 457 1472 457 1472 545 1472 c 0,46,47
 661 1472 661 1472 706.5 1411.5 c 128,-1,48
 752 1351 752 1351 752 1240 c 128,-1,49
 752 1129 752 1129 704.5 1023.5 c 128,-1,50
 657 918 657 918 577.5 853.5 c 128,-1,51
 498 789 498 789 410 789 c 0,40,41
1469 1474 m 1,52,-1
 255 0 l 1,53,-1
 136 0 l 1,54,-1
 1349 1474 l 1,55,-1
 1469 1474 l 1,52,-1
EndSplineSet
EndChar

StartChar: ampersand
Encoding: 38 38 9
Width: 1597
GlyphClass: 2
Flags: W
LayerCount: 2
Fore
SplineSet
859 858 m 1,0,1
 1014 873 1014 873 1257 873 c 128,-1,2
 1500 873 1500 873 1575 872 c 1,3,4
 1574 825 1574 825 1549 792 c 1,5,-1
 1215 792 l 1,6,7
 1193 729 1193 729 1166 577.5 c 128,-1,8
 1139 426 1139 426 1139 306 c 0,9,10
 1139 90 1139 90 1235 90 c 0,11,12
 1293 90 1293 90 1369 149.5 c 128,-1,13
 1445 209 1445 209 1501 300 c 1,14,-1
 1517 287 l 1,15,16
 1448 162 1448 162 1343 71 c 128,-1,17
 1238 -20 1238 -20 1163 -20 c 0,18,19
 1089 -20 1089 -20 1054 57 c 0,20,21
 1026 121 1026 121 1012 193 c 1,22,23
 938 100 938 100 839.5 41.5 c 128,-1,24
 741 -17 741 -17 645 -17 c 0,25,26
 505 -17 505 -17 426.5 87 c 128,-1,27
 348 191 348 191 348 391 c 0,28,29
 348 508 348 508 378.5 637.5 c 128,-1,30
 409 767 409 767 468.5 890 c 128,-1,31
 528 1013 528 1013 606.5 1112 c 128,-1,32
 685 1211 685 1211 789 1271.5 c 128,-1,33
 893 1332 893 1332 1004 1332 c 0,34,35
 1086 1332 1086 1332 1126.5 1287 c 128,-1,36
 1167 1242 1167 1242 1167 1172 c 0,37,38
 1167 1075 1167 1075 1086.5 1002 c 128,-1,39
 1006 929 1006 929 861 863 c 1,40,-1
 859 858 l 1,0,1
496 457 m 0,41,42
 496 274 496 274 555 182 c 128,-1,43
 614 90 614 90 714 90 c 0,44,45
 778 90 778 90 864.5 129 c 128,-1,46
 951 168 951 168 1005 229 c 1,47,48
 1007 501 1007 501 1090 788 c 1,49,50
 835 788 835 788 531 748 c 1,51,52
 496 594 496 594 496 457 c 0,41,42
936 1245 m 0,53,54
 861 1245 861 1245 796.5 1208 c 128,-1,55
 732 1171 732 1171 684 1106 c 0,56,57
 594 984 594 984 543 802 c 1,58,59
 669 823 669 823 783.5 873 c 128,-1,60
 898 923 898 923 971 992 c 128,-1,61
 1044 1061 1044 1061 1044 1129 c 0,62,63
 1044 1177 1044 1177 1016.5 1211 c 128,-1,64
 989 1245 989 1245 936 1245 c 0,53,54
EndSplineSet
EndChar

StartChar: quotesingle
Encoding: 39 39 10
Width: 328
GlyphClass: 2
Flags: W
LayerCount: 2
Fore
SplineSet
438 1471 m 1,0,-1
 560 1446 l 1,1,2
 505 1215 505 1215 413 1032 c 1,3,-1
 382 1032 l 1,4,5
 396 1308 396 1308 438 1471 c 1,0,-1
EndSplineSet
EndChar

StartChar: parenleft
Encoding: 40 40 11
Width: 532
GlyphClass: 2
Flags: W
LayerCount: 2
Fore
SplineSet
298 87.5 m 128,-1,1
 214 278 214 278 214 476.5 c 128,-1,2
 214 675 214 675 277 869 c 128,-1,3
 340 1063 340 1063 453 1223.5 c 128,-1,4
 566 1384 566 1384 705 1467 c 1,5,-1
 726 1439 l 1,6,7
 513 1241 513 1241 425.5 988 c 128,-1,8
 338 735 338 735 338 416 c 0,9,10
 338 -12 338 -12 567 -170 c 1,11,-1
 543 -200 l 1,12,0
 382 -103 382 -103 298 87.5 c 128,-1,1
EndSplineSet
EndChar

StartChar: parenright
Encoding: 41 41 12
Width: 451
GlyphClass: 2
Flags: W
LayerCount: 2
Fore
SplineSet
327 204.5 m 128,-1,1
 188 -72 188 -72 -24 -200 c 1,2,-1
 -44 -172 l 1,3,4
 121 -44 121 -44 232 243 c 128,-1,5
 343 530 343 530 343 791 c 0,6,7
 343 1018 343 1018 291.5 1177.5 c 128,-1,8
 240 1337 240 1337 113 1437 c 1,9,-1
 137 1467 l 1,10,11
 246 1401 246 1401 322 1286 c 0,12,13
 466 1070 466 1070 466 775.5 c 128,-1,0
 466 481 466 481 327 204.5 c 128,-1,1
EndSplineSet
EndChar

StartChar: asterisk
Encoding: 42 42 13
Width: 860
GlyphClass: 2
Flags: W
LayerCount: 2
Fore
SplineSet
593 1505 m 1,0,-1
 549 1264 l 1,1,-1
 565 1251 l 1,2,3
 594 1272 594 1272 632 1302 c 0,4,5
 722 1372 722 1372 771 1404 c 1,6,7
 796 1343 796 1343 796 1268 c 1,8,-1
 583 1191 l 1,9,-1
 581 1163 l 1,10,-1
 772 1038 l 1,11,12
 759 1021 759 1021 750 1011 c 0,13,14
 723 983 723 983 684 972 c 1,15,-1
 547 1104 l 1,16,-1
 528 1097 l 1,17,-1
 513 900 l 1,18,19
 472 873 472 873 410 869 c 1,20,-1
 460 1101 l 1,21,-1
 448 1114 l 1,22,-1
 234 1008 l 1,23,-1
 209 1042 l 1,24,-1
 421 1163 l 1,25,-1
 425 1198 l 1,26,27
 385 1227 385 1227 310.5 1279 c 128,-1,28
 236 1331 236 1331 202 1356 c 1,29,30
 250 1395 250 1395 310 1413 c 1,31,-1
 465 1255 l 1,32,-1
 483 1266 l 1,33,-1
 483 1457 l 1,34,35
 527 1491 527 1491 593 1505 c 1,0,-1
EndSplineSet
EndChar

StartChar: plus
Encoding: 43 43 14
Width: 1065
GlyphClass: 2
Flags: W
LayerCount: 2
Fore
SplineSet
713 565 m 1,0,-1
 713 177 l 1,1,-1
 607 133 l 1,2,-1
 607 565 l 1,3,-1
 178 565 l 1,4,-1
 222 663 l 1,5,-1
 598 663 l 1,6,-1
 598 1051 l 1,7,-1
 704 1095 l 1,8,-1
 704 663 l 1,9,-1
 1142 663 l 1,10,-1
 1098 565 l 1,11,-1
 713 565 l 1,0,-1
EndSplineSet
EndChar

StartChar: comma
Encoding: 44 44 15
Width: 451
GlyphClass: 2
Flags: W
LayerCount: 2
Fore
SplineSet
266 -39 m 0,0,1
 266 -14 266 -14 231.5 29 c 128,-1,2
 197 72 197 72 197 100 c 0,3,4
 197 151 197 151 226.5 181 c 128,-1,5
 256 211 256 211 295.5 211 c 128,-1,6
 335 211 335 211 364 180 c 128,-1,7
 393 149 393 149 393 91 c 0,8,9
 393 -102 393 -102 118 -289 c 1,10,-1
 104 -252 l 1,11,12
 163 -208 163 -208 214.5 -149 c 128,-1,13
 266 -90 266 -90 266 -39 c 0,0,1
EndSplineSet
EndChar

StartChar: hyphen
Encoding: 45 45 16
Width: 635
GlyphClass: 2
Flags: W
LayerCount: 2
Fore
SplineSet
223 533 m 1,0,1
 516 533 516 533 722 560 c 1,2,-1
 662 456 l 1,3,4
 457 431 457 431 168 431 c 1,5,-1
 223 533 l 1,0,1
EndSplineSet
EndChar

StartChar: period
Encoding: 46 46 17
Width: 451
GlyphClass: 2
Flags: W
LayerCount: 2
Fore
SplineSet
281 219 m 0,0,1
 351 219 351 219 351 118 c 0,2,3
 351 57 351 57 323 19 c 128,-1,4
 295 -19 295 -19 251 -19 c 0,5,6
 221 -19 221 -19 201.5 5.5 c 128,-1,7
 182 30 182 30 182 83.5 c 128,-1,8
 182 137 182 137 209 178 c 128,-1,9
 236 219 236 219 281 219 c 0,0,1
EndSplineSet
EndChar

StartChar: slash
Encoding: 47 47 18
Width: 696
GlyphClass: 2
Flags: W
LayerCount: 2
Fore
SplineSet
812 1474 m 1,0,-1
 273 -340 l 1,1,-1
 168 -340 l 1,2,-1
 704 1474 l 1,3,-1
 812 1474 l 1,0,-1
EndSplineSet
EndChar

StartChar: zero
Encoding: 48 48 19
Width: 901
GlyphClass: 2
Flags: W
LayerCount: 2
Fore
SplineSet
639 1165 m 0,0,1
 572 1165 572 1165 517 1125.5 c 128,-1,2
 462 1086 462 1086 426 1022 c 128,-1,3
 390 958 390 958 365 874 c 0,4,5
 319 721 319 721 319 533 c 0,6,7
 319 98 319 98 535 98 c 0,8,9
 599 98 599 98 650.5 129 c 128,-1,10
 702 160 702 160 736 214.5 c 128,-1,11
 770 269 770 269 794 335 c 128,-1,12
 818 401 818 401 831 480 c 0,13,14
 855 627 855 627 855 777 c 0,15,16
 855 1165 855 1165 639 1165 c 0,0,1
696 1264 m 0,17,18
 986 1264 986 1264 986 832 c 0,19,20
 986 613 986 613 918.5 418 c 128,-1,21
 851 223 851 223 730.5 102 c 128,-1,22
 610 -19 610 -19 466 -19 c 0,23,24
 396 -19 396 -19 345 15.5 c 128,-1,25
 294 50 294 50 265 112 c 0,26,27
 209 233 209 233 209 409.5 c 128,-1,28
 209 586 209 586 246 739 c 128,-1,29
 283 892 283 892 346.5 1008 c 128,-1,30
 410 1124 410 1124 501.5 1194 c 128,-1,31
 593 1264 593 1264 696 1264 c 0,17,18
EndSplineSet
EndChar

StartChar: one
Encoding: 49 49 20
Width: 901
GlyphClass: 2
Flags: W
LayerCount: 2
Fore
SplineSet
630 65.5 m 128,-1,1
 636 57 636 57 648.5 53.5 c 128,-1,2
 661 50 661 50 699.5 45 c 128,-1,3
 738 40 738 40 789.5 34.5 c 128,-1,4
 841 29 841 29 864 26 c 1,5,-1
 857 -10 l 1,6,7
 743 0 743 0 549.5 0 c 128,-1,8
 356 0 356 0 211 -12 c 1,9,-1
 212 18 l 1,10,11
 317 39 317 39 359.5 56 c 128,-1,12
 402 73 402 73 422 91 c 0,13,14
 465 131 465 131 478 202 c 0,15,16
 509 373 509 373 549.5 683 c 128,-1,17
 590 993 590 993 594 1057 c 1,18,-1
 590 1059 l 1,19,20
 544 1044 544 1044 356 976 c 1,21,-1
 346 1001 l 1,22,23
 506 1090 506 1090 587.5 1147 c 128,-1,24
 669 1204 669 1204 751 1275 c 1,25,-1
 777 1264 l 1,26,27
 773 1242 773 1242 754.5 1149 c 128,-1,28
 736 1056 736 1056 713 898.5 c 128,-1,29
 690 741 690 741 657 452 c 128,-1,30
 624 163 624 163 624 118.5 c 128,-1,0
 624 74 624 74 630 65.5 c 128,-1,1
EndSplineSet
EndChar

StartChar: two
Encoding: 50 50 21
Width: 901
GlyphClass: 2
Flags: W
LayerCount: 2
Fore
SplineSet
933 982 m 0,0,1
 933 908 933 908 903.5 827 c 128,-1,2
 874 746 874 746 831 677 c 128,-1,3
 788 608 788 608 723 527.5 c 128,-1,4
 658 447 658 447 604 390 c 0,5,6
 424 202 424 202 370 141 c 1,7,-1
 373 129 l 1,8,-1
 705 129 l 2,9,10
 825 129 825 129 878 181 c 0,11,12
 902 204 902 204 935 251 c 1,13,-1
 954 242 l 1,14,-1
 839 -16 l 1,15,16
 695 0 695 0 595 0 c 2,17,-1
 161 0 l 1,18,-1
 151 33 l 1,19,20
 225 80 225 80 308 165.5 c 128,-1,21
 391 251 391 251 449.5 316.5 c 128,-1,22
 508 382 508 382 575 467 c 128,-1,23
 642 552 642 552 686.5 624.5 c 128,-1,24
 731 697 731 697 761 775.5 c 128,-1,25
 791 854 791 854 791 919 c 0,26,27
 791 1038 791 1038 745.5 1094.5 c 128,-1,28
 700 1151 700 1151 592 1151 c 128,-1,29
 484 1151 484 1151 412 1080 c 128,-1,30
 340 1009 340 1009 340 920 c 0,31,32
 340 869 340 869 366 834.5 c 128,-1,33
 392 800 392 800 435.5 800 c 128,-1,34
 479 800 479 800 517 831 c 1,35,-1
 528 819 l 1,36,37
 485 765 485 765 427 765 c 128,-1,38
 369 765 369 765 329 810.5 c 128,-1,39
 289 856 289 856 289 928 c 0,40,41
 289 1074 289 1074 401 1169 c 128,-1,42
 513 1264 513 1264 666 1264 c 0,43,44
 790 1264 790 1264 861.5 1188 c 128,-1,45
 933 1112 933 1112 933 982 c 0,0,1
EndSplineSet
EndChar

StartChar: three
Encoding: 51 51 22
Width: 901
GlyphClass: 2
Flags: W
LayerCount: 2
Fore
SplineSet
653 1263 m 0,0,1
 766 1263 766 1263 841.5 1199 c 128,-1,2
 917 1135 917 1135 917 1011 c 0,3,4
 917 824 917 824 656 696 c 1,5,-1
 658 690 l 1,6,7
 774 681 774 681 843.5 608 c 128,-1,8
 913 535 913 535 913 419 c 0,9,10
 913 278 913 278 846 177 c 128,-1,11
 779 76 779 76 673 28.5 c 128,-1,12
 567 -19 567 -19 437 -19 c 0,13,14
 265 -19 265 -19 148 56 c 1,15,16
 154 141 154 141 208 185 c 1,17,18
 361 83 361 83 518 83 c 0,19,20
 651 83 651 83 719.5 149.5 c 128,-1,21
 788 216 788 216 788 347.5 c 128,-1,22
 788 479 788 479 707.5 550 c 128,-1,23
 627 621 627 621 470 621 c 1,24,-1
 470 656 l 1,25,26
 610 702 610 702 692.5 778.5 c 128,-1,27
 775 855 775 855 775 963 c 0,28,29
 775 1054 775 1054 719 1102.5 c 128,-1,30
 663 1151 663 1151 569 1151 c 0,31,32
 502 1151 502 1151 447 1128.5 c 128,-1,33
 392 1106 392 1106 322 1050 c 1,34,-1
 302 1070 l 1,35,36
 444 1263 444 1263 653 1263 c 0,0,1
EndSplineSet
EndChar

StartChar: four
Encoding: 52 52 23
Width: 901
GlyphClass: 2
Flags: W
LayerCount: 2
Fore
SplineSet
628 303 m 1,0,1
 589 307 589 307 413 307 c 128,-1,2
 237 307 237 307 117 299 c 1,3,-1
 108 330 l 1,4,5
 130 357 130 357 213.5 452 c 128,-1,6
 297 547 297 547 365 628 c 128,-1,7
 433 709 433 709 514 812 c 0,8,9
 686 1031 686 1031 726 1163 c 1,10,11
 803 1222 803 1222 877 1262 c 1,12,-1
 901 1254 l 1,13,14
 863 1037 863 1037 825.5 744 c 128,-1,15
 788 451 788 451 782 408 c 1,16,17
 958 408 958 408 1028 438 c 1,18,-1
 1039 420 l 1,19,20
 982 357 982 357 919 330 c 128,-1,21
 856 303 856 303 769 303 c 1,22,-1
 732 -27 l 1,23,-1
 588 -50 l 1,24,-1
 628 303 l 1,0,1
271 408 m 1,25,-1
 639 408 l 1,26,-1
 729 1021 l 1,27,-1
 726 1023 l 1,28,29
 546 747 546 747 268 416 c 1,30,-1
 271 408 l 1,25,-1
EndSplineSet
EndChar

StartChar: five
Encoding: 53 53 24
Width: 901
GlyphClass: 2
Flags: W
LayerCount: 2
Fore
SplineSet
595 1247 m 2,0,-1
 862 1243 l 2,1,2
 902 1243 902 1243 921.5 1252 c 128,-1,3
 941 1261 941 1261 966 1291 c 1,4,-1
 985 1290 l 1,5,6
 971 1188 971 1188 887 1106 c 1,7,8
 649 1106 649 1106 476 1123 c 1,9,-1
 464 1115 l 1,10,11
 418 894 418 894 403 692 c 1,12,-1
 407 687 l 1,13,14
 497 710 497 710 599 710 c 0,15,16
 741 710 741 710 821.5 637.5 c 128,-1,17
 902 565 902 565 902 426 c 0,18,19
 902 312 902 312 857 223 c 128,-1,20
 812 134 812 134 740 83 c 0,21,22
 598 -19 598 -19 426 -19 c 128,-1,23
 254 -19 254 -19 133 56 c 1,24,25
 139 143 139 143 193 185 c 1,26,27
 363 73 363 73 518 73 c 0,28,29
 635 73 635 73 704 145.5 c 128,-1,30
 773 218 773 218 773 352 c 0,31,32
 773 635 773 635 487 635 c 0,33,34
 405 635 405 635 323 607 c 1,35,-1
 304 625 l 1,36,37
 328 837 328 837 419 1157 c 1,38,39
 438 1181 438 1181 475 1205.5 c 128,-1,40
 512 1230 512 1230 536 1238.5 c 128,-1,41
 560 1247 560 1247 595 1247 c 2,0,-1
EndSplineSet
EndChar

StartChar: six
Encoding: 54 54 25
Width: 901
GlyphClass: 2
Flags: W
LayerCount: 2
Fore
SplineSet
918 1264 m 0,0,1
 976 1264 976 1264 1021 1248 c 1,2,3
 1019 1213 1019 1213 999 1187 c 1,4,5
 960 1193 960 1193 920 1193 c 0,6,7
 679 1193 679 1193 529 997 c 128,-1,8
 379 801 379 801 379 479 c 0,9,10
 379 298 379 298 448.5 194 c 128,-1,11
 518 90 518 90 641 90 c 0,12,13
 747 90 747 90 808.5 167.5 c 128,-1,14
 870 245 870 245 870 365.5 c 128,-1,15
 870 486 870 486 806.5 554 c 128,-1,16
 743 622 743 622 629 622 c 0,17,18
 539 622 539 622 466 587 c 1,19,-1
 453 615 l 1,20,21
 561 740 561 740 716 740 c 0,22,23
 837 740 837 740 902 656 c 128,-1,24
 967 572 967 572 967 429 c 0,25,26
 967 240 967 240 857.5 110.5 c 128,-1,27
 748 -19 748 -19 573 -19 c 0,28,29
 423 -19 423 -19 335.5 97.5 c 128,-1,30
 248 214 248 214 248 398 c 0,31,32
 248 635 248 635 334.5 833.5 c 128,-1,33
 421 1032 421 1032 575 1148 c 128,-1,34
 729 1264 729 1264 918 1264 c 0,0,1
EndSplineSet
EndChar

StartChar: seven
Encoding: 55 55 26
Width: 901
GlyphClass: 2
Flags: W
LayerCount: 2
Fore
SplineSet
268 1263 m 1,0,1
 462 1245 462 1245 685 1245 c 128,-1,2
 908 1245 908 1245 1020 1253 c 1,3,-1
 1034 1233 l 1,4,5
 821 940 821 940 665.5 610.5 c 128,-1,6
 510 281 510 281 444 13 c 1,7,8
 344 -15 344 -15 281 -55 c 1,9,-1
 264 -35 l 1,10,11
 363 267 363 267 548 580 c 0,12,13
 640 736 640 736 715 850.5 c 128,-1,14
 790 965 790 965 895 1118 c 1,15,-1
 892 1125 l 1,16,17
 716 1117 716 1117 380 1117 c 0,18,19
 293 1117 293 1117 222 1002 c 1,20,-1
 192 1005 l 1,21,-1
 268 1263 l 1,0,1
EndSplineSet
EndChar

StartChar: eight
Encoding: 56 56 27
Width: 901
GlyphClass: 2
Flags: W
LayerCount: 2
Fore
SplineSet
343 963 m 0,0,1
 343 1099 343 1099 441.5 1181.5 c 128,-1,2
 540 1264 540 1264 688 1264 c 0,3,4
 797 1264 797 1264 866 1206 c 128,-1,5
 935 1148 935 1148 935 1050 c 0,6,7
 935 941 935 941 871 864 c 0,8,9
 837 824 837 824 799.5 792.5 c 128,-1,10
 762 761 762 761 699 717 c 1,11,12
 829 639 829 639 889.5 562.5 c 128,-1,13
 950 486 950 486 950 365 c 0,14,15
 950 195 950 195 833.5 88 c 128,-1,16
 717 -19 717 -19 518 -19 c 0,17,18
 378 -19 378 -19 287.5 57.5 c 128,-1,19
 197 134 197 134 197 261 c 0,20,21
 197 435 197 435 330 542 c 0,22,23
 376 579 376 579 418.5 604.5 c 128,-1,24
 461 630 461 630 525 663 c 1,25,26
 464 707 464 707 428 744.5 c 128,-1,27
 392 782 392 782 367.5 838 c 128,-1,28
 343 894 343 894 343 963 c 0,0,1
845 305 m 0,29,30
 845 408 845 408 742 499 c 0,31,32
 685 550 685 550 574 628 c 1,33,34
 458 562 458 562 396.5 486 c 128,-1,35
 335 410 335 410 335 301 c 128,-1,36
 335 192 335 192 404.5 123 c 128,-1,37
 474 54 474 54 584.5 54 c 128,-1,38
 695 54 695 54 770 119 c 128,-1,39
 845 184 845 184 845 305 c 0,29,30
767 870.5 m 128,-1,41
 804 932 804 932 804 1008.5 c 128,-1,42
 804 1085 804 1085 753 1137 c 128,-1,43
 702 1189 702 1189 622.5 1189 c 128,-1,44
 543 1189 543 1189 496 1142.5 c 128,-1,45
 449 1096 449 1096 449 1013 c 0,46,47
 449 916 449 916 540 836 c 0,48,49
 583 798 583 798 656 749 c 1,50,40
 730 809 730 809 767 870.5 c 128,-1,41
EndSplineSet
EndChar

StartChar: nine
Encoding: 57 57 28
Width: 901
GlyphClass: 2
Flags: W
LayerCount: 2
Fore
SplineSet
250 -19 m 0,0,1
 192 -19 192 -19 147 -3 c 1,2,3
 149 32 149 32 169 58 c 1,4,5
 208 52 208 52 248 52 c 0,6,7
 415 53 415 53 538.5 144.5 c 128,-1,8
 662 236 662 236 725.5 396.5 c 128,-1,9
 789 557 789 557 789 766 c 0,10,11
 789 945 789 945 715 1051 c 128,-1,12
 641 1157 641 1157 520 1157 c 0,13,14
 417 1157 417 1157 359 1078 c 128,-1,15
 301 999 301 999 301 878 c 128,-1,16
 301 757 301 757 364 694 c 128,-1,17
 427 631 427 631 549 631 c 0,18,19
 640 631 640 631 707 663 c 1,20,-1
 720 635 l 1,21,22
 662 573 662 573 607.5 546 c 128,-1,23
 553 519 553 519 473 519 c 0,24,25
 350 519 350 519 281.5 605 c 128,-1,26
 213 691 213 691 213 834 c 0,27,28
 213 1016 213 1016 321.5 1140 c 128,-1,29
 430 1264 430 1264 587.5 1264 c 128,-1,30
 745 1264 745 1264 833.5 1147.5 c 128,-1,31
 922 1031 922 1031 922 847 c 0,32,33
 922 615 922 615 837.5 417.5 c 128,-1,34
 753 220 753 220 597.5 100.5 c 128,-1,35
 442 -19 442 -19 250 -19 c 0,0,1
EndSplineSet
EndChar

StartChar: colon
Encoding: 58 58 29
Width: 532
GlyphClass: 2
Flags: W
LayerCount: 2
Fore
SplineSet
262.5 857 m 128,-1,1
 286 891 286 891 325.5 891 c 128,-1,2
 365 891 365 891 385.5 859 c 128,-1,3
 406 827 406 827 406 772 c 128,-1,4
 406 717 406 717 381 685 c 128,-1,5
 356 653 356 653 319.5 653 c 128,-1,6
 283 653 283 653 261 682.5 c 128,-1,7
 239 712 239 712 239 767.5 c 128,-1,0
 239 823 239 823 262.5 857 c 128,-1,1
222 185 m 128,-1,9
 245 219 245 219 284.5 219 c 128,-1,10
 324 219 324 219 345 187.5 c 128,-1,11
 366 156 366 156 366 100.5 c 128,-1,12
 366 45 366 45 341.5 13 c 128,-1,13
 317 -19 317 -19 280.5 -19 c 128,-1,14
 244 -19 244 -19 221.5 10.5 c 128,-1,15
 199 40 199 40 199 95.5 c 128,-1,8
 199 151 199 151 222 185 c 128,-1,9
EndSplineSet
EndChar

StartChar: semicolon
Encoding: 59 59 30
Width: 491
GlyphClass: 2
Flags: W
LayerCount: 2
Fore
SplineSet
223 -47 m 0,0,1
 223 -16 223 -16 182 31.5 c 128,-1,2
 141 79 141 79 141 119 c 128,-1,3
 141 159 141 159 167 185 c 128,-1,4
 193 211 193 211 233.5 211 c 128,-1,5
 274 211 274 211 307 174 c 128,-1,6
 340 137 340 137 340 68 c 0,7,8
 340 -114 340 -114 97 -289 c 1,9,-1
 80 -252 l 1,10,11
 223 -133 223 -133 223 -47 c 0,0,1
434 889 m 0,12,13
 504 889 504 889 504 788 c 0,14,15
 504 727 504 727 476 689 c 128,-1,16
 448 651 448 651 404 651 c 0,17,18
 374 651 374 651 354.5 675.5 c 128,-1,19
 335 700 335 700 335 753.5 c 128,-1,20
 335 807 335 807 362 848 c 128,-1,21
 389 889 389 889 434 889 c 0,12,13
EndSplineSet
EndChar

StartChar: less
Encoding: 60 60 31
Width: 1065
GlyphClass: 2
Flags: W
LayerCount: 2
Fore
SplineSet
335 580 m 1,0,-1
 1084 231 l 1,1,-1
 1084 123 l 1,2,-1
 191 532 l 1,3,-1
 191 629 l 1,4,-1
 1084 1036 l 1,5,-1
 1084 930 l 1,6,-1
 335 580 l 1,0,-1
EndSplineSet
EndChar

StartChar: equal
Encoding: 61 61 32
Width: 1065
GlyphClass: 2
Flags: W
LayerCount: 2
Fore
SplineSet
1177 565 m 1,0,-1
 257 565 l 1,1,-1
 299 663 l 1,2,-1
 1219 663 l 1,3,-1
 1177 565 l 1,0,-1
1138 201 m 1,4,-1
 218 201 l 1,5,-1
 261 299 l 1,6,-1
 1181 299 l 1,7,-1
 1138 201 l 1,4,-1
EndSplineSet
EndChar

StartChar: greater
Encoding: 62 62 33
Width: 1065
GlyphClass: 2
Flags: W
LayerCount: 2
Fore
SplineSet
260 123 m 1,0,-1
 260 231 l 1,1,-1
 1009 580 l 1,2,-1
 260 930 l 1,3,-1
 260 1036 l 1,4,-1
 1153 629 l 1,5,-1
 1153 532 l 1,6,-1
 260 123 l 1,0,-1
EndSplineSet
EndChar

StartChar: question
Encoding: 63 63 34
Width: 778
GlyphClass: 2
Flags: W
LayerCount: 2
Fore
SplineSet
364 480 m 0,0,1
 364 572 364 572 450 666 c 1,2,3
 489 707 489 707 535.5 749.5 c 128,-1,4
 582 792 582 792 628.5 837.5 c 128,-1,5
 675 883 675 883 713.5 931 c 128,-1,6
 752 979 752 979 776 1039 c 128,-1,7
 800 1099 800 1099 800 1162 c 0,8,9
 800 1276 800 1276 744.5 1333 c 128,-1,10
 689 1390 689 1390 606.5 1390 c 128,-1,11
 524 1390 524 1390 447 1343 c 128,-1,12
 370 1296 370 1296 327 1218 c 1,13,-1
 303 1233 l 1,14,15
 354 1342 354 1342 464 1409.5 c 128,-1,16
 574 1477 574 1477 684 1477 c 128,-1,17
 794 1477 794 1477 864.5 1409.5 c 128,-1,18
 935 1342 935 1342 935 1207 c 0,19,20
 935 1128 935 1128 907 1056 c 128,-1,21
 879 984 879 984 834 929.5 c 128,-1,22
 789 875 789 875 734.5 825 c 128,-1,23
 680 775 680 775 626 731 c 128,-1,24
 572 687 572 687 527 646 c 0,25,26
 426 552 426 552 426 462 c 0,27,28
 426 424 426 424 442 398 c 0,29,30
 449 387 449 387 462 370 c 1,31,-1
 419 361 l 1,32,33
 364 406 364 406 364 480 c 0,0,1
327 185 m 128,-1,35
 358 226 358 226 397.5 226 c 128,-1,36
 437 226 437 226 461 192.5 c 128,-1,37
 485 159 485 159 485 111 c 128,-1,38
 485 63 485 63 451.5 24 c 128,-1,39
 418 -15 418 -15 382.5 -15 c 128,-1,40
 347 -15 347 -15 321.5 19.5 c 128,-1,41
 296 54 296 54 296 99 c 128,-1,34
 296 144 296 144 327 185 c 128,-1,35
EndSplineSet
EndChar

StartChar: at
Encoding: 64 64 35
Width: 1434
GlyphClass: 2
Flags: W
LayerCount: 2
Fore
SplineSet
908 806 m 1,0,1
 845 828 845 828 793.5 828 c 128,-1,2
 742 828 742 828 699.5 796.5 c 128,-1,3
 657 765 657 765 634 712 c 0,4,5
 589 608 589 608 589 478 c 0,6,7
 589 394 589 394 597 358 c 128,-1,8
 605 322 605 322 628 322 c 0,9,10
 674 322 674 322 734.5 408.5 c 128,-1,11
 795 495 795 495 841 605 c 128,-1,12
 887 715 887 715 908 806 c 1,0,1
869 902 m 2,13,-1
 989 901 l 1,14,-1
 1038 901 l 1,15,-1
 1030 851 l 2,16,17
 1015 753 1015 753 981 572 c 0,18,19
 932 311 932 311 932 294.5 c 128,-1,20
 932 278 932 278 947.5 271.5 c 128,-1,21
 963 265 963 265 998 265 c 0,22,23
 1072 265 1072 265 1129.5 300 c 128,-1,24
 1187 335 1187 335 1220 392 c 1,25,26
 1284 507 1284 507 1284 649 c 0,27,28
 1284 889 1284 889 1152 1025.5 c 128,-1,29
 1020 1162 1020 1162 780 1162 c 0,30,31
 683 1162 683 1162 600.5 1130 c 128,-1,32
 518 1098 518 1098 458.5 1042 c 128,-1,33
 399 986 399 986 357 912 c 0,34,35
 274 766 274 766 274 579 c 0,36,37
 274 353 274 353 366 192 c 0,38,39
 464 22 464 22 650 -40 c 0,40,41
 748 -72 748 -72 871 -72 c 128,-1,42
 994 -72 994 -72 1100 -14.5 c 128,-1,43
 1206 43 1206 43 1309 155 c 1,44,-1
 1326 134 l 1,45,46
 1122 -128 1122 -128 832 -128 c 0,47,48
 697 -128 697 -128 584 -91 c 128,-1,49
 471 -54 471 -54 395.5 8 c 128,-1,50
 320 70 320 70 268 152 c 0,51,52
 167 309 167 309 167 504 c 0,53,54
 167 726 167 726 282 908 c 0,55,56
 408 1106 408 1106 618 1181 c 0,57,58
 733 1222 733 1222 849.5 1222 c 128,-1,59
 966 1222 966 1222 1051 1193.5 c 128,-1,60
 1136 1165 1136 1165 1194.5 1116.5 c 128,-1,61
 1253 1068 1253 1068 1294 1003 c 0,62,63
 1372 877 1372 877 1372 716 c 0,64,65
 1372 520 1372 520 1273 371 c 0,66,67
 1220 291 1220 291 1125 237 c 128,-1,68
 1030 183 1030 183 943.5 183 c 128,-1,69
 857 183 857 183 857 262 c 0,70,71
 857 310 857 310 865.5 412 c 128,-1,72
 874 514 874 514 877 565 c 1,73,-1
 873 567 l 1,74,75
 852 511 852 511 802 425 c 128,-1,76
 752 339 752 339 686.5 263 c 128,-1,77
 621 187 621 187 579 187 c 0,78,79
 552 187 552 187 532 206.5 c 128,-1,80
 512 226 512 226 502 258 c 0,81,82
 483 320 483 320 483 391 c 128,-1,83
 483 462 483 462 498 532 c 128,-1,84
 513 602 513 602 545.5 668.5 c 128,-1,85
 578 735 578 735 622.5 787 c 128,-1,86
 667 839 667 839 731 870.5 c 128,-1,87
 795 902 795 902 869 902 c 2,13,-1
EndSplineSet
EndChar

StartChar: A
Encoding: 65 65 36
Width: 1270
GlyphClass: 2
Flags: W
LayerCount: 2
Fore
SplineSet
314 839 m 1,0,-1
 315 806 l 1,1,2
 300 783 300 783 266.5 766 c 128,-1,3
 233 749 233 749 199 744 c 1,4,5
 198 757 198 757 198 779 c 0,6,7
 198 1020 198 1020 349 1170 c 128,-1,8
 500 1320 500 1320 758 1320 c 0,9,10
 810 1320 810 1320 902 1315 c 128,-1,11
 994 1310 994 1310 1025 1310 c 128,-1,12
 1056 1310 1056 1310 1078 1313 c 1,13,-1
 1076 1293 l 1,14,15
 1013 1223 1013 1223 1013 925 c 0,16,17
 1013 592 1013 592 1039 360 c 0,18,19
 1053 236 1053 236 1079 164.5 c 128,-1,20
 1105 93 1105 93 1141 93 c 0,21,22
 1195 93 1195 93 1268 108 c 1,23,-1
 1275 93 l 1,24,25
 1162 2 1162 2 1084 -18 c 1,26,27
 996 -18 996 -18 954 104 c 0,28,29
 919 207 919 207 907 382 c 0,30,31
 904 427 904 427 900 491 c 1,32,-1
 594 491 l 1,33,-1
 395 109 l 2,34,35
 325 -25 325 -25 226.5 -93.5 c 128,-1,36
 128 -162 128 -162 -30 -162 c 0,37,38
 -68 -162 -68 -162 -110 -156 c 1,39,40
 -110 -69 -110 -69 -62 -38 c 1,41,42
 38 -76 38 -76 84 -76 c 0,43,44
 225 -76 225 -76 331 131 c 1,45,-1
 830 1117 l 2,46,47
 851 1159 851 1159 867.5 1182.5 c 128,-1,48
 884 1206 884 1206 904 1214 c 1,49,-1
 904 1219 l 1,50,51
 766 1225 766 1225 613.5 1225 c 128,-1,52
 461 1225 461 1225 387.5 1136 c 128,-1,53
 314 1047 314 1047 314 839 c 1,0,-1
895 557 m 1,54,55
 888 700 888 700 888 850.5 c 128,-1,56
 888 1001 888 1001 897 1091 c 1,57,-1
 892 1091 l 1,58,-1
 620 557 l 1,59,-1
 895 557 l 1,54,55
EndSplineSet
EndChar

StartChar: B
Encoding: 66 66 37
Width: 1229
GlyphClass: 2
Flags: W
LayerCount: 2
Fore
SplineSet
1243 493 m 0,0,1
 1243 361 1243 361 1167 247.5 c 128,-1,2
 1091 134 1091 134 961.5 67 c 128,-1,3
 832 0 832 0 684 0 c 2,4,-1
 312 0 l 1,5,-1
 306 23 l 1,6,7
 346 32 346 32 377.5 54.5 c 128,-1,8
 409 77 409 77 428 104 c 128,-1,9
 447 131 447 131 461 170 c 0,10,11
 482 230 482 230 494 309 c 0,12,13
 547 658 547 658 571 967 c 0,14,15
 577 1035 577 1035 588.5 1072.5 c 128,-1,16
 600 1110 600 1110 629 1135 c 128,-1,17
 658 1160 658 1160 722 1160 c 1,18,19
 634 400 634 400 612 252 c 0,20,21
 604 197 604 197 583 162.5 c 128,-1,22
 562 128 562 128 523 105 c 1,23,-1
 524 100 l 1,24,-1
 746 100 l 2,25,26
 925 100 925 100 1024.5 187.5 c 128,-1,27
 1124 275 1124 275 1124 415 c 0,28,29
 1124 536 1124 536 1037.5 613 c 128,-1,30
 951 690 951 690 796 693 c 1,31,-1
 769 693 l 1,32,33
 769 754 769 754 794 783 c 1,34,35
 868 771 868 771 899 771 c 0,36,37
 973 771 973 771 1019 832.5 c 128,-1,38
 1065 894 1065 894 1065 990 c 0,39,40
 1065 1116 1065 1116 980 1182 c 128,-1,41
 895 1248 895 1248 744 1248 c 0,42,43
 509 1248 509 1248 391 1141 c 128,-1,44
 273 1034 273 1034 257 788 c 1,45,46
 250 761 250 761 212 744 c 128,-1,47
 174 727 174 727 132 724 c 1,48,49
 166 1015 166 1015 352 1173.5 c 128,-1,50
 538 1332 538 1332 815 1332 c 0,51,52
 912 1332 912 1332 987.5 1308.5 c 128,-1,53
 1063 1285 1063 1285 1108 1245 c 0,54,55
 1198 1165 1198 1165 1198 1059 c 0,56,57
 1198 935 1198 935 1106 844 c 0,58,59
 1065 804 1065 804 995 752 c 1,60,-1
 995 748 l 1,61,62
 1243 702 1243 702 1243 493 c 0,0,1
EndSplineSet
EndChar

StartChar: C
Encoding: 67 67 38
Width: 1065
GlyphClass: 2
Flags: W
LayerCount: 2
Fore
SplineSet
738 778 m 0,0,1
 824 778 824 778 875.5 836.5 c 128,-1,2
 927 895 927 895 927 999.5 c 128,-1,3
 927 1104 927 1104 868.5 1174 c 128,-1,4
 810 1244 810 1244 705 1244 c 0,5,6
 531 1244 531 1244 420 1052 c 128,-1,7
 309 860 309 860 309 524 c 0,8,9
 309 194 309 194 428 56 c 1,10,11
 488 -12 488 -12 569 -12 c 0,12,13
 678 -12 678 -12 764 63 c 128,-1,14
 850 138 850 138 907 271 c 1,15,-1
 935 254 l 1,16,17
 880 102 880 102 782 -6 c 0,18,19
 731 -63 731 -63 665 -97 c 128,-1,20
 599 -131 599 -131 521.5 -131 c 128,-1,21
 444 -131 444 -131 377.5 -88 c 128,-1,22
 311 -45 311 -45 270 30 c 0,23,24
 188 184 188 184 188 393.5 c 128,-1,25
 188 603 188 603 233 777 c 128,-1,26
 278 951 278 951 353.5 1073 c 128,-1,27
 429 1195 429 1195 531.5 1266 c 128,-1,28
 634 1337 634 1337 747 1337 c 0,29,30
 882 1337 882 1337 952.5 1262 c 128,-1,31
 1023 1187 1023 1187 1023 1060 c 0,32,33
 1023 909 1023 909 942 818.5 c 128,-1,34
 861 728 861 728 740 728 c 0,35,36
 675 728 675 728 634 767 c 128,-1,37
 593 806 593 806 593 868 c 1,38,-1
 613 877 l 1,39,40
 636 778 636 778 738 778 c 0,0,1
EndSplineSet
EndChar

StartChar: D
Encoding: 68 68 39
Width: 1434
GlyphClass: 2
Flags: W
LayerCount: 2
Fore
SplineSet
1294 470 m 128,-1,1
 1330 579 1330 579 1330 706 c 128,-1,2
 1330 833 1330 833 1284 938.5 c 128,-1,3
 1238 1044 1238 1044 1161.5 1110.5 c 128,-1,4
 1085 1177 1085 1177 988 1213 c 128,-1,5
 891 1249 891 1249 777.5 1249 c 128,-1,6
 664 1249 664 1249 566 1220 c 128,-1,7
 468 1191 468 1191 393 1130.5 c 128,-1,8
 318 1070 318 1070 277 968 c 128,-1,9
 236 866 236 866 236 728 c 1,10,11
 210 664 210 664 127 639 c 1,12,13
 126 653 126 653 126 669 c 0,14,15
 126 817 126 817 178.5 941.5 c 128,-1,16
 231 1066 231 1066 326 1153.5 c 128,-1,17
 421 1241 421 1241 559 1290 c 128,-1,18
 697 1339 697 1339 862.5 1339 c 128,-1,19
 1028 1339 1028 1339 1162.5 1270.5 c 128,-1,20
 1297 1202 1297 1202 1374 1078.5 c 128,-1,21
 1451 955 1451 955 1451 800 c 0,22,23
 1451 571 1451 571 1352.5 389.5 c 128,-1,24
 1254 208 1254 208 1072 104 c 128,-1,25
 890 0 890 0 657 0 c 2,26,-1
 321 0 l 1,27,-1
 316 29 l 1,28,29
 475 57 475 57 505 290 c 1,30,31
 560 745 560 745 571 871 c 128,-1,32
 582 997 582 997 589.5 1028.5 c 128,-1,33
 597 1060 597 1060 612 1087 c 0,34,35
 643 1140 643 1140 722 1140 c 1,36,37
 712 1016 712 1016 639 372 c 0,38,39
 614 154 614 154 532 105 c 1,40,-1
 533 100 l 1,41,-1
 777 100 l 2,42,43
 909 100 909 100 1015.5 147.5 c 128,-1,44
 1122 195 1122 195 1190 278 c 128,-1,0
 1258 361 1258 361 1294 470 c 128,-1,1
EndSplineSet
EndChar

StartChar: E
Encoding: 69 69 40
Width: 1270
GlyphClass: 2
Flags: W
LayerCount: 2
Fore
SplineSet
1038 -9 m 2,0,-1
 801 0 l 1,1,-1
 352 0 l 1,2,-1
 348 23 l 1,3,4
 453 49 453 49 496 115.5 c 128,-1,5
 539 182 539 182 555 309 c 0,6,7
 578 497 578 497 639 956 c 0,8,9
 652 1055 652 1055 674 1114.5 c 128,-1,10
 696 1174 696 1174 742 1215 c 1,11,-1
 601 1215 l 2,12,13
 426 1215 426 1215 333 1126.5 c 128,-1,14
 240 1038 240 1038 240 842 c 0,15,16
 240 803 240 803 241 786 c 1,17,18
 209 735 209 735 123 724 c 1,19,-1
 123 757 l 2,20,21
 123 866 123 866 170 968 c 128,-1,22
 217 1070 217 1070 298 1146.5 c 128,-1,23
 379 1223 379 1223 494.5 1269.5 c 128,-1,24
 610 1316 610 1316 739 1316 c 2,25,-1
 1014 1316 l 1,26,-1
 1271 1322 l 2,27,28
 1292 1322 1292 1322 1305 1308 c 128,-1,29
 1318 1294 1318 1294 1318 1277.5 c 128,-1,30
 1318 1261 1318 1261 1293.5 1180.5 c 128,-1,31
 1269 1100 1269 1100 1255 1064 c 1,32,-1
 1233 1068 l 1,33,34
 1240 1140 1240 1140 1240 1161 c 0,35,36
 1240 1213 1240 1213 1156 1213 c 2,37,-1
 817 1213 l 1,38,39
 790 1177 790 1177 783 1113 c 2,40,-1
 744 772 l 1,41,42
 830 769 830 769 1008 769 c 0,43,44
 1093 769 1093 769 1149 795 c 1,45,-1
 1158 785 l 1,46,47
 1099 674 1099 674 1010 674 c 2,48,-1
 731 674 l 1,49,-1
 679 301 l 2,50,51
 668 220 668 220 647 178.5 c 128,-1,52
 626 137 626 137 575 104 c 1,53,-1
 576 100 l 1,54,-1
 917 100 l 2,55,56
 990 100 990 100 1059 121 c 128,-1,57
 1128 142 1128 142 1174 176 c 2,58,-1
 1252 232 l 1,59,-1
 1265 216 l 1,60,-1
 1162 95 l 2,61,62
 1134 61 1134 61 1117 42.5 c 128,-1,63
 1100 24 1100 24 1077.5 7.5 c 128,-1,64
 1055 -9 1055 -9 1038 -9 c 2,0,-1
EndSplineSet
EndChar

StartChar: F
Encoding: 70 70 41
Width: 1187
GlyphClass: 2
Flags: W
LayerCount: 2
Fore
SplineSet
776 1316 m 2,0,-1
 1081 1316 l 2,1,2
 1139 1316 1139 1316 1204.5 1319 c 128,-1,3
 1270 1322 1270 1322 1285.5 1322 c 128,-1,4
 1301 1322 1301 1322 1314 1308 c 128,-1,5
 1327 1294 1327 1294 1327 1278 c 128,-1,6
 1327 1262 1327 1262 1300 1175 c 128,-1,7
 1273 1088 1273 1088 1257 1044 c 1,8,-1
 1235 1048 l 1,9,10
 1243 1133 1243 1133 1243 1159 c 0,11,12
 1243 1213 1243 1213 1149 1213 c 2,13,-1
 849 1213 l 1,14,15
 823 1183 823 1183 813 1108 c 2,16,-1
 765 733 l 1,17,18
 869 731 869 731 957 731 c 128,-1,19
 1045 731 1045 731 1123 756 c 1,20,-1
 1132 747 l 1,21,-1
 1072 684 l 2,22,23
 1048 658 1048 658 1029.5 647 c 128,-1,24
 1011 636 1011 636 983 636 c 2,25,-1
 754 636 l 1,26,-1
 707 309 l 2,27,28
 696 229 696 229 671.5 182 c 128,-1,29
 647 135 647 135 599 102 c 1,30,-1
 600 98 l 1,31,-1
 742 98 l 2,32,33
 795 98 795 98 831 115 c 1,34,-1
 840 106 l 1,35,36
 808 59 808 59 792 41 c 0,37,38
 757 0 757 0 687 0 c 2,39,-1
 414 0 l 1,40,-1
 410 23 l 1,41,42
 490 59 490 59 526 119.5 c 128,-1,43
 562 180 562 180 578 306 c 128,-1,44
 594 432 594 432 629 666.5 c 128,-1,45
 664 901 664 901 674.5 978 c 128,-1,46
 685 1055 685 1055 707 1114.5 c 128,-1,47
 729 1174 729 1174 774 1215 c 1,48,-1
 638 1215 l 2,49,50
 463 1215 463 1215 370 1126.5 c 128,-1,51
 277 1038 277 1038 277 842 c 0,52,53
 277 803 277 803 278 786 c 1,54,55
 245 735 245 735 160 724 c 1,56,-1
 160 757 l 2,57,58
 160 866 160 866 207 968 c 128,-1,59
 254 1070 254 1070 335 1146.5 c 128,-1,60
 416 1223 416 1223 531.5 1269.5 c 128,-1,61
 647 1316 647 1316 776 1316 c 2,0,-1
EndSplineSet
EndChar

StartChar: G
Encoding: 71 71 42
Width: 1270
GlyphClass: 2
Flags: W
LayerCount: 2
Fore
SplineSet
1049 1181.5 m 128,-1,1
 981 1239 981 1239 847.5 1239 c 128,-1,2
 714 1239 714 1239 607 1134.5 c 128,-1,3
 500 1030 500 1030 440.5 860.5 c 128,-1,4
 381 691 381 691 381 495.5 c 128,-1,5
 381 300 381 300 458 190.5 c 128,-1,6
 535 81 535 81 655 81 c 0,7,8
 796 81 796 81 876 159.5 c 128,-1,9
 956 238 956 238 972 367 c 2,10,-1
 995 554 l 1,11,12
 892 554 892 554 810 519 c 1,13,-1
 797 539 l 1,14,15
 800 543 800 543 813 562 c 128,-1,16
 826 581 826 581 830.5 586.5 c 128,-1,17
 835 592 835 592 846 604 c 0,18,19
 864 624 864 624 894 636 c 128,-1,20
 924 648 924 648 1240 648 c 1,21,-1
 1240 630 l 1,22,23
 1170 608 1170 608 1137 569.5 c 128,-1,24
 1104 531 1104 531 1098 471 c 2,25,-1
 1064 139 l 2,26,27
 1040 -96 1040 -96 921.5 -236.5 c 128,-1,28
 803 -377 803 -377 634 -377 c 0,29,30
 597 -377 597 -377 560 -369 c 1,31,32
 571 -282 571 -282 620 -253 c 1,33,34
 679 -267 679 -267 728.5 -267 c 128,-1,35
 778 -267 778 -267 809 -258.5 c 128,-1,36
 840 -250 840 -250 867 -224 c 128,-1,37
 894 -198 894 -198 909.5 -147 c 128,-1,38
 925 -96 925 -96 935 -14 c 2,39,-1
 956 164 l 1,40,-1
 943 168 l 1,41,42
 867 74 867 74 789 27.5 c 128,-1,43
 711 -19 711 -19 599 -19 c 0,44,45
 435 -19 435 -19 337 114.5 c 128,-1,46
 239 248 239 248 239 467 c 0,47,48
 239 627 239 627 297 787 c 128,-1,49
 355 947 355 947 446 1066 c 128,-1,50
 537 1185 537 1185 655.5 1260 c 128,-1,51
 774 1335 774 1335 890 1335 c 0,52,53
 992 1335 992 1335 1075.5 1318.5 c 128,-1,54
 1159 1302 1159 1302 1183 1299 c 1,55,56
 1180 1147 1180 1147 1147 1000 c 1,57,-1
 1125 1001 l 1,58,0
 1117 1124 1117 1124 1049 1181.5 c 128,-1,1
EndSplineSet
EndChar

StartChar: H
Encoding: 72 72 43
Width: 1393
GlyphClass: 2
Flags: W
LayerCount: 2
Fore
SplineSet
484 1315 m 2,0,-1
 801 1315 l 1,1,-1
 803 1309 l 1,2,3
 786 1297 786 1297 764.5 1257.5 c 128,-1,4
 743 1218 743 1218 732 1167 c 1,5,6
 708 1071 708 1071 690 756 c 1,7,-1
 1162 756 l 1,8,-1
 1177 918 l 2,9,10
 1188 1038 1188 1038 1203.5 1103.5 c 128,-1,11
 1219 1169 1219 1169 1246 1212 c 1,12,-1
 1246 1216 l 1,13,-1
 1124 1216 l 2,14,15
 1045 1216 1045 1216 983 1195 c 1,16,-1
 973 1207 l 1,17,18
 1011 1266 1011 1266 1056 1291 c 128,-1,19
 1101 1316 1101 1316 1182 1316 c 2,20,-1
 1403 1316 l 1,21,-1
 1404 1305 l 1,22,23
 1369 1279 1369 1279 1350 1245 c 128,-1,24
 1331 1211 1331 1211 1326 1152 c 2,25,-1
 1246 326 l 2,26,27
 1237 234 1237 234 1219 182.5 c 128,-1,28
 1201 131 1201 131 1165 105 c 1,29,-1
 1167 100 l 1,30,-1
 1222 100 l 2,31,32
 1288 100 1288 100 1325 109 c 128,-1,33
 1362 118 1362 118 1398 146 c 1,34,-1
 1406 134 l 1,35,36
 1367 62 1367 62 1325 31 c 128,-1,37
 1283 0 1283 0 1210 0 c 2,38,-1
 942 0 l 1,39,-1
 937 13 l 1,40,41
 1035 45 1035 45 1074 126 c 1,42,43
 1106 195 1106 195 1118 309 c 2,44,-1
 1156 670 l 1,45,-1
 682 670 l 1,46,47
 676 610 676 610 670.5 535 c 128,-1,48
 665 460 665 460 657 385 c 0,49,50
 635 184 635 184 545 83 c 128,-1,51
 455 -18 455 -18 306 -18 c 2,52,-1
 202 -18 l 1,53,54
 217 73 217 73 273 100 c 1,55,56
 332 83 332 83 410 83 c 0,57,58
 458 83 458 83 480.5 110.5 c 128,-1,59
 503 138 503 138 514 226 c 0,60,61
 531 375 531 375 552.5 626 c 128,-1,62
 574 877 574 877 586 974 c 0,63,64
 608 1159 608 1159 656 1217 c 1,65,-1
 452 1217 l 2,66,67
 293 1217 293 1217 224 1146 c 128,-1,68
 155 1075 155 1075 155 891 c 0,69,70
 155 836 155 836 158 805 c 1,71,72
 147 780 147 780 114 762 c 128,-1,73
 81 744 81 744 44 744 c 1,74,75
 41 775 41 775 41 807 c 0,76,77
 41 917 41 917 78.5 1013 c 128,-1,78
 116 1109 116 1109 177.5 1174.5 c 128,-1,79
 239 1240 239 1240 319 1277.5 c 128,-1,80
 399 1315 399 1315 484 1315 c 2,0,-1
EndSplineSet
EndChar

StartChar: I
Encoding: 73 73 44
Width: 778
GlyphClass: 2
Flags: W
LayerCount: 2
Fore
SplineSet
566 1316 m 2,0,-1
 820 1316 l 1,1,-1
 823 1306 l 1,2,3
 768 1250 768 1250 747 1158.5 c 128,-1,4
 726 1067 726 1067 705 744 c 128,-1,5
 684 421 684 421 679 377 c 0,6,7
 657 180 657 180 568.5 81 c 128,-1,8
 480 -18 480 -18 334 -18 c 2,9,-1
 234 -18 l 1,10,11
 244 65 244 65 297 98 c 1,12,13
 362 79 362 79 419 79 c 128,-1,14
 476 79 476 79 503 107 c 128,-1,15
 530 135 530 135 540 219 c 0,16,17
 569 472 569 472 585.5 707 c 128,-1,18
 602 942 602 942 605 980 c 0,19,20
 617 1138 617 1138 679 1217 c 1,21,-1
 678 1220 l 1,22,-1
 535 1220 l 2,23,24
 373 1220 373 1220 308 1152 c 128,-1,25
 243 1084 243 1084 243 901 c 0,26,27
 243 848 243 848 247 818 c 1,28,29
 236 793 236 793 203.5 775 c 128,-1,30
 171 757 171 757 135 757 c 1,31,32
 132 788 132 788 132 820 c 0,33,34
 132 927 132 927 169.5 1021 c 128,-1,35
 207 1115 207 1115 268.5 1178.5 c 128,-1,36
 330 1242 330 1242 408 1279 c 128,-1,37
 486 1316 486 1316 566 1316 c 2,0,-1
EndSplineSet
EndChar

StartChar: J
Encoding: 74 74 45
Width: 819
GlyphClass: 2
Flags: W
LayerCount: 2
Fore
SplineSet
515 1316 m 2,0,-1
 808 1316 l 1,1,-1
 811 1306 l 1,2,3
 757 1254 757 1254 738.5 1172.5 c 128,-1,4
 720 1091 720 1091 700.5 889 c 128,-1,5
 681 687 681 687 662.5 425.5 c 128,-1,6
 644 164 644 164 641 132 c 0,7,8
 623 -73 623 -73 521.5 -188 c 128,-1,9
 420 -303 420 -303 243 -303 c 2,10,-1
 106 -303 l 1,11,12
 110 -217 110 -217 155 -186 c 1,13,14
 296 -204 296 -204 338 -204 c 0,15,16
 430 -204 430 -204 466 -141.5 c 128,-1,17
 502 -79 502 -79 512.5 40 c 128,-1,18
 523 159 523 159 552.5 521 c 128,-1,19
 582 883 582 883 591 975 c 128,-1,20
 600 1067 600 1067 616.5 1122 c 128,-1,21
 633 1177 633 1177 666 1217 c 1,22,-1
 665 1220 l 1,23,-1
 483 1220 l 2,24,25
 322 1220 322 1220 256.5 1151.5 c 128,-1,26
 191 1083 191 1083 191 901 c 0,27,28
 191 848 191 848 195 818 c 1,29,30
 185 793 185 793 152.5 775 c 128,-1,31
 120 757 120 757 84 757 c 1,32,33
 81 788 81 788 81 820 c 0,34,35
 81 927 81 927 118.5 1021 c 128,-1,36
 156 1115 156 1115 217.5 1178.5 c 128,-1,37
 279 1242 279 1242 357 1279 c 128,-1,38
 435 1316 435 1316 515 1316 c 2,0,-1
EndSplineSet
EndChar

StartChar: K
Encoding: 75 75 46
Width: 1352
GlyphClass: 2
Flags: W
LayerCount: 2
Fore
SplineSet
1343 41 m 2,0,-1
 1434 41 l 1,1,-1
 1436 27 l 1,2,3
 1348 -28 1348 -28 1246 -28 c 0,4,5
 1195 -28 1195 -28 1157.5 8 c 128,-1,6
 1120 44 1120 44 1075.5 140.5 c 128,-1,7
 1031 237 1031 237 972 407 c 128,-1,8
 913 577 913 577 886 620 c 0,9,10
 844 686 844 686 786 687 c 1,11,-1
 722 687 l 1,12,13
 708 441 708 441 701 377 c 0,14,15
 679 180 679 180 590 81 c 128,-1,16
 501 -18 501 -18 355 -18 c 2,17,-1
 255 -18 l 1,18,19
 265 66 265 66 316 98 c 1,20,21
 392 79 392 79 444.5 79 c 128,-1,22
 497 79 497 79 524.5 107 c 128,-1,23
 552 135 552 135 562 219 c 0,24,25
 590 459 590 459 605 700.5 c 128,-1,26
 620 942 620 942 623 978 c 0,27,28
 636 1132 636 1132 703 1217 c 1,29,-1
 702 1220 l 1,30,-1
 501 1220 l 2,31,32
 340 1220 340 1220 274.5 1151.5 c 128,-1,33
 209 1083 209 1083 209 901 c 0,34,35
 209 848 209 848 213 818 c 1,36,37
 203 793 203 793 170.5 775 c 128,-1,38
 138 757 138 757 102 757 c 1,39,40
 99 788 99 788 99 820 c 0,41,42
 99 927 99 927 136.5 1021 c 128,-1,43
 174 1115 174 1115 235.5 1178.5 c 128,-1,44
 297 1242 297 1242 375 1279 c 128,-1,45
 453 1316 453 1316 533 1316 c 2,46,-1
 845 1316 l 1,47,-1
 848 1306 l 1,48,49
 784 1244 784 1244 767 1168 c 0,50,51
 741 1056 741 1056 724 732 c 1,52,-1
 734 732 l 2,53,54
 828 732 828 732 934 834 c 0,55,56
 1026 922 1026 922 1125 1054 c 0,57,58
 1147 1084 1147 1084 1186 1137.5 c 128,-1,59
 1225 1191 1225 1191 1242 1214 c 1,60,-1
 1242 1220 l 1,61,-1
 1181 1220 l 2,62,63
 1114 1220 1114 1220 1045 1195 c 1,64,-1
 1036 1207 l 1,65,66
 1067 1268 1067 1268 1095 1292 c 128,-1,67
 1123 1316 1123 1316 1187 1316 c 2,68,-1
 1420 1316 l 1,69,-1
 1422 1305 l 1,70,71
 1320 1230 1320 1230 1257 1144 c 0,72,73
 1246 1130 1246 1130 1210.5 1081 c 128,-1,74
 1175 1032 1175 1032 1161 1013 c 128,-1,75
 1147 994 1147 994 1114 951 c 128,-1,76
 1081 908 1081 908 1062.5 887.5 c 128,-1,77
 1044 867 1044 867 1013 834.5 c 128,-1,78
 982 802 982 802 958 784 c 0,79,80
 896 738 896 738 851 723 c 1,81,-1
 851 719 l 1,82,83
 1002 694 1002 694 1071 516 c 0,84,85
 1183 228 1183 228 1224 154 c 1,86,87
 1272 70 1272 70 1303 52 c 0,88,89
 1322 41 1322 41 1343 41 c 2,0,-1
EndSplineSet
EndChar

StartChar: L
Encoding: 76 76 47
Width: 1188
GlyphClass: 2
Flags: W
LayerCount: 2
Fore
SplineSet
720.5 1306.5 m 128,-1,1
 801 1335 801 1335 905.5 1335 c 128,-1,2
 1010 1335 1010 1335 1092 1284 c 1,3,4
 1082 1214 1082 1214 1034 1171 c 1,5,6
 980 1201 980 1201 953 1215 c 128,-1,7
 926 1229 926 1229 878.5 1243 c 128,-1,8
 831 1257 831 1257 780.5 1257 c 128,-1,9
 730 1257 730 1257 690 1233 c 128,-1,10
 650 1209 650 1209 627 1163 c 0,11,12
 583 1075 583 1075 579 928 c 0,13,14
 578 883 578 883 576.5 813 c 128,-1,15
 575 743 575 743 574 702.5 c 128,-1,16
 573 662 573 662 570 602 c 128,-1,17
 567 542 567 542 562 505 c 128,-1,18
 557 468 557 468 548 418 c 128,-1,19
 539 368 539 368 526 333.5 c 128,-1,20
 513 299 513 299 493.5 258 c 128,-1,21
 474 217 474 217 448 186 c 1,22,23
 390 113 390 113 311 60 c 1,24,-1
 313 56 l 1,25,26
 338 62 338 62 399.5 62 c 128,-1,27
 461 62 461 62 540.5 43.5 c 128,-1,28
 620 25 620 25 673 4 c 0,29,30
 817 -55 817 -55 883 -55 c 128,-1,31
 949 -55 949 -55 985 -25.5 c 128,-1,32
 1021 4 1021 4 1021 48.5 c 128,-1,33
 1021 93 1021 93 999.5 117 c 128,-1,34
 978 141 978 141 946 141 c 128,-1,35
 914 141 914 141 896 132 c 1,36,37
 898 189 898 189 954.5 189 c 128,-1,38
 1011 189 1011 189 1039 152 c 128,-1,39
 1067 115 1067 115 1067 52 c 0,40,41
 1067 -51 1067 -51 998.5 -112 c 128,-1,42
 930 -173 930 -173 809 -173 c 0,43,44
 709 -173 709 -173 587 -110 c 0,45,46
 536 -83 536 -83 484 -56 c 0,47,48
 359 7 359 7 249 7 c 0,49,50
 223 7 223 7 73 -2 c 1,51,-1
 71 31 l 1,52,53
 276 63 276 63 352 227 c 0,54,55
 400 330 400 330 416 475 c 1,56,57
 429 602 429 602 435 788 c 0,58,59
 436 813 436 813 437.5 860.5 c 128,-1,60
 439 908 439 908 454 979 c 128,-1,61
 469 1050 469 1050 503 1117 c 128,-1,62
 537 1184 537 1184 588.5 1231 c 128,-1,0
 640 1278 640 1278 720.5 1306.5 c 128,-1,1
EndSplineSet
EndChar

StartChar: M
Encoding: 77 77 48
Width: 1720
GlyphClass: 2
Flags: W
LayerCount: 2
Fore
SplineSet
222 838 m 1,0,-1
 223 805 l 1,1,2
 208 782 208 782 174.5 765 c 128,-1,3
 141 748 141 748 107 743 c 1,4,5
 106 756 106 756 106 778 c 0,6,7
 106 1019 106 1019 257 1169 c 128,-1,8
 408 1319 408 1319 666 1319 c 0,9,10
 709 1319 709 1319 777 1313.5 c 128,-1,11
 845 1308 845 1308 870.5 1308 c 128,-1,12
 896 1308 896 1308 973 1315 c 1,13,14
 969 1274 969 1274 969 1214.5 c 128,-1,15
 969 1155 969 1155 996.5 871 c 128,-1,16
 1024 587 1024 587 1028 411 c 1,17,-1
 1033 411 l 1,18,19
 1124 619 1124 619 1207 793 c 128,-1,20
 1290 967 1290 967 1332 1066 c 0,21,22
 1424 1281 1424 1281 1448 1294 c 0,23,24
 1502 1321 1502 1321 1607 1340 c 1,25,-1
 1622 1317 l 1,26,27
 1601 1297 1601 1297 1582 1259 c 128,-1,28
 1563 1221 1563 1221 1557 1177 c 0,29,30
 1512 883 1512 883 1512 570 c 0,31,32
 1512 179 1512 179 1600 99 c 0,33,34
 1609 91 1609 91 1658 91 c 128,-1,35
 1707 91 1707 91 1756 108 c 1,36,-1
 1764 92 l 1,37,38
 1711 46 1711 46 1652 13.5 c 128,-1,39
 1593 -19 1593 -19 1549 -19 c 128,-1,40
 1505 -19 1505 -19 1469.5 24.5 c 128,-1,41
 1434 68 1434 68 1415 146 c 0,42,43
 1379 292 1379 292 1379 528.5 c 128,-1,44
 1379 765 1379 765 1420 1096 c 1,45,-1
 1416 1097 l 1,46,47
 1204 661 1204 661 965 90 c 1,48,49
 953 85 953 85 939.5 85 c 128,-1,50
 926 85 926 85 918 90 c 1,51,52
 918 407 918 407 875 896 c 0,53,54
 856 1113 856 1113 854 1139 c 1,55,-1
 848 1140 l 1,56,57
 766 839 766 839 701 640.5 c 128,-1,58
 636 442 636 442 549 259 c 0,59,60
 485 126 485 126 382.5 57 c 128,-1,61
 280 -12 280 -12 114 -12 c 0,62,63
 86 -12 86 -12 44 -6 c 1,64,65
 44 78 44 78 92 112 c 1,66,67
 190 75 190 75 228 75 c 0,68,69
 298 75 298 75 368 127.5 c 128,-1,70
 438 180 438 180 495 297.5 c 128,-1,71
 552 415 552 415 607 567.5 c 128,-1,72
 662 720 662 720 691.5 821 c 128,-1,73
 721 922 721 922 783 1147 c 0,74,75
 795 1189 795 1189 816 1217 c 1,76,77
 641 1224 641 1224 526 1224 c 0,78,79
 372 1224 372 1224 297 1129.5 c 128,-1,80
 222 1035 222 1035 222 838 c 1,0,-1
EndSplineSet
EndChar

StartChar: N
Encoding: 78 78 49
Width: 1434
GlyphClass: 2
Flags: W
LayerCount: 2
Fore
SplineSet
1545 1373.5 m 128,-1,1
 1604 1392 1604 1392 1656.5 1392 c 128,-1,2
 1709 1392 1709 1392 1742 1386 c 1,3,4
 1743 1379 1743 1379 1743 1364 c 0,5,6
 1743 1297 1743 1297 1706 1268 c 1,7,8
 1693 1272 1693 1272 1663 1283 c 128,-1,9
 1633 1294 1633 1294 1618 1298 c 0,10,11
 1592 1306 1592 1306 1567 1306 c 0,12,13
 1426 1306 1426 1306 1366 1063 c 0,14,15
 1332 927 1332 927 1259 535 c 128,-1,16
 1186 143 1186 143 1150 -15 c 1,17,18
 1138 -20 1138 -20 1124.5 -20 c 128,-1,19
 1111 -20 1111 -20 1103 -15 c 1,20,21
 1094 98 1094 98 1057 233.5 c 128,-1,22
 1020 369 1020 369 973.5 490.5 c 128,-1,23
 927 612 927 612 882 728 c 0,24,25
 774 1004 774 1004 774 1139 c 1,26,-1
 768 1140 l 1,27,28
 687 517 687 517 575 154 c 0,29,30
 537 34 537 34 436 -41.5 c 128,-1,31
 335 -117 335 -117 183 -117 c 0,32,33
 151 -117 151 -117 112 -111 c 1,34,35
 111 -104 111 -104 111 -89 c 0,36,37
 111 -22 111 -22 147 7 c 1,38,39
 252 -31 252 -31 297 -31 c 0,40,41
 368 -31 368 -31 426.5 27.5 c 128,-1,42
 485 86 485 86 512 180 c 0,43,44
 611 528 611 528 702 1147 c 0,45,46
 708 1187 708 1187 727 1217 c 1,47,48
 552 1224 552 1224 465 1224 c 0,49,50
 330 1224 330 1224 264 1151.5 c 128,-1,51
 198 1079 198 1079 198 928 c 0,52,53
 198 904 198 904 207 805 c 1,54,55
 194 782 194 782 162.5 765 c 128,-1,56
 131 748 131 748 98 743 c 1,57,58
 89 796 89 796 89 848 c 0,59,60
 89 1060 89 1060 227 1189.5 c 128,-1,61
 365 1319 365 1319 605 1319 c 0,62,63
 648 1319 648 1319 706.5 1315 c 128,-1,64
 765 1311 765 1311 797.5 1311 c 128,-1,65
 830 1311 830 1311 874 1315 c 1,66,67
 874 1182 874 1182 968 943 c 0,68,69
 1007 842 1007 842 1048 740 c 1,70,71
 1147 487 1147 487 1158 324 c 1,72,-1
 1163 324 l 1,73,74
 1176 390 1176 390 1221.5 655.5 c 128,-1,75
 1267 921 1267 921 1291.5 1021 c 128,-1,76
 1316 1121 1316 1121 1332.5 1164.5 c 128,-1,77
 1349 1208 1349 1208 1378.5 1252.5 c 128,-1,78
 1408 1297 1408 1297 1447 1326 c 128,-1,0
 1486 1355 1486 1355 1545 1373.5 c 128,-1,1
EndSplineSet
EndChar

StartChar: O
Encoding: 79 79 50
Width: 1229
GlyphClass: 2
Flags: W
LayerCount: 2
Fore
SplineSet
822 1333 m 0,0,1
 907 1333 907 1333 970.5 1298 c 128,-1,2
 1034 1263 1034 1263 1071 1200 c 0,3,4
 1144 1077 1144 1077 1144 891 c 0,5,6
 1144 753 1144 753 1105.5 615.5 c 128,-1,7
 1067 478 1067 478 1000.5 366 c 128,-1,8
 934 254 934 254 850 167 c 128,-1,9
 766 80 766 80 668.5 31.5 c 128,-1,10
 571 -17 571 -17 477 -17 c 0,11,12
 350 -17 350 -17 269.5 102 c 128,-1,13
 189 221 189 221 189 413 c 0,14,15
 189 568 189 568 242 733 c 128,-1,16
 295 898 295 898 380 1030 c 128,-1,17
 465 1162 465 1162 583 1247.5 c 128,-1,18
 701 1333 701 1333 822 1333 c 0,0,1
742 1237 m 0,19,20
 638 1237 638 1237 543.5 1134 c 128,-1,21
 449 1031 449 1031 393 864.5 c 128,-1,22
 337 698 337 698 337 517 c 0,23,24
 337 343 337 343 388 220 c 0,25,26
 413 158 413 158 457.5 121.5 c 128,-1,27
 502 85 502 85 561 85 c 128,-1,28
 620 85 620 85 683 118 c 128,-1,29
 746 151 746 151 802.5 213.5 c 128,-1,30
 859 276 859 276 904.5 358 c 128,-1,31
 950 440 950 440 976.5 545 c 128,-1,32
 1003 650 1003 650 1003 761 c 0,33,34
 1003 986 1003 986 939 1111.5 c 128,-1,35
 875 1237 875 1237 742 1237 c 0,19,20
EndSplineSet
EndChar

StartChar: P
Encoding: 80 80 51
Width: 1106
GlyphClass: 2
Flags: W
LayerCount: 2
Fore
SplineSet
736 1254 m 0,0,1
 515 1254 515 1254 383.5 1138 c 128,-1,2
 252 1022 252 1022 231 788 c 1,3,4
 219 760 219 760 182 742 c 128,-1,5
 145 724 145 724 103 724 c 1,6,7
 123 853 123 853 179 963.5 c 128,-1,8
 235 1074 235 1074 321.5 1157 c 128,-1,9
 408 1240 408 1240 529 1287 c 128,-1,10
 650 1334 650 1334 792 1334 c 0,11,12
 985 1334 985 1334 1100.5 1245 c 128,-1,13
 1216 1156 1216 1156 1216 1009 c 0,14,15
 1216 828 1216 828 1081 713 c 128,-1,16
 946 598 946 598 714 598 c 1,17,18
 714 667 714 667 741 689 c 1,19,20
 829 673 829 673 840 673 c 0,21,22
 964 673 964 673 1022 744.5 c 128,-1,23
 1080 816 1080 816 1080 949 c 128,-1,24
 1080 1082 1080 1082 990.5 1168 c 128,-1,25
 901 1254 901 1254 736 1254 c 0,0,1
644 100 m 2,26,27
 735 100 735 100 806 130 c 1,28,-1
 813 119 l 1,29,30
 791 67 791 67 743 33.5 c 128,-1,31
 695 0 695 0 644 0 c 2,32,-1
 307 0 l 1,33,-1
 301 23 l 1,34,35
 402 45 402 45 443 138 c 0,36,37
 476 213 476 213 490 316 c 0,38,39
 546 734 546 734 564 966 c 1,40,41
 570 1060 570 1060 602 1101 c 128,-1,42
 634 1142 634 1142 714 1142 c 1,43,44
 705 1066 705 1066 684 883 c 0,45,46
 634 428 634 428 617 317.5 c 128,-1,47
 600 207 600 207 583 171.5 c 128,-1,48
 566 136 566 136 518 105 c 1,49,-1
 519 100 l 1,50,-1
 644 100 l 2,26,27
EndSplineSet
EndChar

StartChar: Q
Encoding: 81 81 52
Width: 1229
GlyphClass: 2
Flags: W
LayerCount: 2
Fore
SplineSet
664 -12 m 1,0,-1
 585 -18 l 1,1,2
 459 -18 459 -18 386 92.5 c 128,-1,3
 313 203 313 203 313 412 c 0,4,5
 313 536 313 536 345.5 668 c 128,-1,6
 378 800 378 800 437.5 917 c 128,-1,7
 497 1034 497 1034 573.5 1128 c 128,-1,8
 650 1222 650 1222 744 1277 c 128,-1,9
 838 1332 838 1332 927 1332 c 128,-1,10
 1016 1332 1016 1332 1076 1299 c 128,-1,11
 1136 1266 1136 1266 1171 1205 c 0,12,13
 1238 1088 1238 1088 1238 893 c 0,14,15
 1238 742 1238 742 1197.5 598.5 c 128,-1,16
 1157 455 1157 455 1088 342.5 c 128,-1,17
 1019 230 1019 230 930 145.5 c 128,-1,18
 841 61 841 61 743 18 c 1,19,-1
 742 14 l 1,20,21
 794 14 794 14 828.5 0.5 c 128,-1,22
 863 -13 863 -13 893.5 -42.5 c 128,-1,23
 924 -72 924 -72 973 -146.5 c 128,-1,24
 1022 -221 1022 -221 1067 -272.5 c 128,-1,25
 1112 -324 1112 -324 1153 -324 c 0,26,27
 1176 -324 1176 -324 1197.5 -304.5 c 128,-1,28
 1219 -285 1219 -285 1232 -262 c 0,29,30
 1267 -199 1267 -199 1285 -199 c 0,31,32
 1298 -199 1298 -199 1316 -226 c 128,-1,33
 1334 -253 1334 -253 1334 -273 c 0,34,35
 1334 -312 1334 -312 1273 -339.5 c 128,-1,36
 1212 -367 1212 -367 1131.5 -367 c 128,-1,37
 1051 -367 1051 -367 990.5 -328 c 128,-1,38
 930 -289 930 -289 882.5 -218.5 c 128,-1,39
 835 -148 835 -148 815.5 -122 c 128,-1,40
 796 -96 796 -96 768.5 -65.5 c 128,-1,41
 741 -35 741 -35 716.5 -23.5 c 128,-1,42
 692 -12 692 -12 664 -12 c 1,0,-1
853 1236 m 0,43,44
 752 1236 752 1236 661 1133 c 128,-1,45
 570 1030 570 1030 516 863.5 c 128,-1,46
 462 697 462 697 462 516 c 0,47,48
 462 340 462 340 509 217 c 0,49,50
 533 154 533 154 574.5 117.5 c 128,-1,51
 616 81 616 81 679.5 81 c 128,-1,52
 743 81 743 81 818.5 134.5 c 128,-1,53
 894 188 894 188 955.5 277 c 128,-1,54
 1017 366 1017 366 1056.5 494 c 128,-1,55
 1096 622 1096 622 1096 760 c 0,56,57
 1096 985 1096 985 1036.5 1110.5 c 128,-1,58
 977 1236 977 1236 853 1236 c 0,43,44
EndSplineSet
EndChar

StartChar: R
Encoding: 82 82 53
Width: 1229
GlyphClass: 2
Flags: W
LayerCount: 2
Fore
SplineSet
778 1257 m 0,0,1
 532 1257 532 1257 404 1143 c 128,-1,2
 276 1029 276 1029 254 788 c 1,3,4
 235 737 235 737 126 724 c 1,5,6
 166 989 166 989 344 1158 c 0,7,8
 432 1241 432 1241 561 1288 c 128,-1,9
 690 1335 690 1335 847 1335 c 0,10,11
 1029 1335 1029 1335 1132.5 1250 c 128,-1,12
 1236 1165 1236 1165 1236 1026 c 128,-1,13
 1236 887 1236 887 1143 787.5 c 128,-1,14
 1050 688 1050 688 894 653 c 1,15,16
 948 413 948 413 1028 196 c 0,17,18
 1074 70 1074 70 1130.5 -6.5 c 128,-1,19
 1187 -83 1187 -83 1241 -83 c 128,-1,20
 1295 -83 1295 -83 1353 -77 c 1,21,22
 1358 -87 1358 -87 1358 -111 c 0,23,24
 1358 -164 1358 -164 1330 -199 c 1,25,26
 1231 -181 1231 -181 1141 -112 c 128,-1,27
 1051 -43 1051 -43 987 49.5 c 128,-1,28
 923 142 923 142 873 251 c 0,29,30
 781 452 781 452 760 636 c 1,31,32
 775 678 775 678 818 700 c 1,33,-1
 864 700 l 2,34,35
 967 700 967 700 1031 774 c 128,-1,36
 1095 848 1095 848 1095 967 c 128,-1,37
 1095 1086 1095 1086 1010.5 1171.5 c 128,-1,38
 926 1257 926 1257 778 1257 c 0,0,1
609 100 m 2,39,40
 683 100 683 100 751 120 c 1,41,-1
 759 109 l 1,42,43
 740 56 740 56 700.5 28 c 128,-1,44
 661 0 661 0 609 0 c 2,45,-1
 311 0 l 1,46,-1
 305 23 l 1,47,48
 406 45 406 45 447 138 c 0,49,50
 480 213 480 213 494 316 c 0,51,52
 554 763 554 763 571 983 c 1,53,54
 577 1077 577 1077 608.5 1118.5 c 128,-1,55
 640 1160 640 1160 720 1160 c 1,56,57
 715 1120 715 1120 691 904 c 0,58,59
 640 450 640 450 622 328.5 c 128,-1,60
 604 207 604 207 587 171.5 c 128,-1,61
 570 136 570 136 522 105 c 1,62,-1
 523 100 l 1,63,-1
 609 100 l 2,39,40
EndSplineSet
EndChar

StartChar: S
Encoding: 83 83 54
Width: 942
GlyphClass: 2
Flags: W
LayerCount: 2
Fore
SplineSet
646 1333 m 0,0,1
 735 1333 735 1333 803 1296.5 c 128,-1,2
 871 1260 871 1260 871 1199.5 c 128,-1,3
 871 1139 871 1139 826 1102 c 1,4,5
 786 1181 786 1181 729.5 1226 c 128,-1,6
 673 1271 673 1271 592 1271 c 128,-1,7
 511 1271 511 1271 464.5 1219 c 128,-1,8
 418 1167 418 1167 418 1100 c 128,-1,9
 418 1033 418 1033 440.5 981.5 c 128,-1,10
 463 930 463 930 499 890 c 128,-1,11
 535 850 535 850 578.5 810.5 c 128,-1,12
 622 771 622 771 665.5 729 c 128,-1,13
 709 687 709 687 745 640.5 c 128,-1,14
 781 594 781 594 803.5 529.5 c 128,-1,15
 826 465 826 465 826 390 c 0,16,17
 826 206 826 206 691.5 93.5 c 128,-1,18
 557 -19 557 -19 357 -19 c 0,19,20
 211 -19 211 -19 123.5 63 c 128,-1,21
 36 145 36 145 36 264.5 c 128,-1,22
 36 384 36 384 107 456.5 c 128,-1,23
 178 529 178 529 290 529 c 0,24,25
 377 529 377 529 423 475 c 128,-1,26
 469 421 469 421 469 335 c 1,27,-1
 443 332 l 1,28,29
 434 390 434 390 398 428 c 128,-1,30
 362 466 362 466 297 466 c 128,-1,31
 232 466 232 466 187 416.5 c 128,-1,32
 142 367 142 367 142 282 c 0,33,34
 142 168 142 168 215 102 c 128,-1,35
 288 36 288 36 406.5 36 c 128,-1,36
 525 36 525 36 609 116.5 c 128,-1,37
 693 197 693 197 693 310 c 0,38,39
 693 431 693 431 615 531 c 0,40,41
 580 576 580 576 538 619.5 c 128,-1,42
 496 663 496 663 454 707 c 128,-1,43
 412 751 412 751 377 796 c 0,44,45
 299 898 299 898 299 1019 c 0,46,47
 299 1159 299 1159 393 1246 c 128,-1,48
 487 1333 487 1333 646 1333 c 0,0,1
EndSplineSet
EndChar

StartChar: T
Encoding: 84 84 55
Width: 1024
GlyphClass: 2
Flags: W
LayerCount: 2
Fore
SplineSet
547 1221 m 0,0,1
 265 1221 265 1221 265 940 c 0,2,3
 265 863 265 863 286 770 c 1,4,5
 274 745 274 745 240 726.5 c 128,-1,6
 206 708 206 708 169 708 c 1,7,8
 156 773 156 773 156 834 c 0,9,10
 156 942 156 942 193 1034 c 128,-1,11
 230 1126 230 1126 293.5 1188 c 128,-1,12
 357 1250 357 1250 441.5 1284.5 c 128,-1,13
 526 1319 526 1319 620 1319 c 0,14,15
 879 1319 879 1319 1263 1309 c 1,16,17
 1261 1255 1261 1255 1241.5 1227 c 128,-1,18
 1222 1199 1222 1199 1174 1199 c 128,-1,19
 1126 1199 1126 1199 1012.5 1206 c 128,-1,20
 899 1213 899 1213 853 1215 c 1,21,22
 834 1095 834 1095 786.5 745.5 c 128,-1,23
 739 396 739 396 725 307.5 c 128,-1,24
 711 219 711 219 689 177.5 c 128,-1,25
 667 136 667 136 618 105 c 1,26,-1
 619 100 l 1,27,-1
 734 100 l 2,28,29
 804 100 804 100 868 130 c 1,30,-1
 876 119 l 1,31,32
 822 0 822 0 692 0 c 2,33,-1
 403 0 l 1,34,-1
 398 23 l 1,35,36
 499 45 499 45 545 138 c 0,37,38
 582 212 582 212 596.5 306.5 c 128,-1,39
 611 401 611 401 625 507.5 c 128,-1,40
 639 614 639 614 647 686.5 c 128,-1,41
 655 759 655 759 666.5 861 c 128,-1,42
 678 963 678 963 681 991 c 0,43,44
 698 1153 698 1153 780 1213 c 1,45,-1
 780 1218 l 1,46,47
 666 1221 666 1221 547 1221 c 0,0,1
EndSplineSet
EndChar

StartChar: U
Encoding: 85 85 56
Width: 1515
GlyphClass: 2
Flags: W
LayerCount: 2
Fore
SplineSet
1431 1177 m 0,0,1
 1363 817 1363 817 1363 493 c 128,-1,2
 1363 169 1363 169 1437 99 c 0,3,4
 1445 91 1445 91 1493.5 91 c 128,-1,5
 1542 91 1542 91 1593 108 c 1,6,-1
 1601 92 l 1,7,8
 1546 46 1546 46 1486 13.5 c 128,-1,9
 1426 -19 1426 -19 1383 -19 c 128,-1,10
 1340 -19 1340 -19 1308 13 c 128,-1,11
 1276 45 1276 45 1258 108 c 0,12,13
 1227 220 1227 220 1227 422 c 1,14,-1
 1221 422 l 1,15,16
 1153 240 1153 240 1039 116 c 0,17,18
 981 54 981 54 908.5 18 c 128,-1,19
 836 -18 836 -18 758 -18 c 0,20,21
 707 -18 707 -18 669.5 7.5 c 128,-1,22
 632 33 632 33 611 80 c 0,23,24
 571 168 571 168 571 311 c 0,25,26
 571 571 571 571 625 827.5 c 128,-1,27
 679 1084 679 1084 747 1218 c 1,28,-1
 544 1218 l 2,29,30
 376 1218 376 1218 305 1138.5 c 128,-1,31
 234 1059 234 1059 234 850 c 0,32,33
 234 821 234 821 236 805 c 1,34,35
 224 780 224 780 190 762 c 128,-1,36
 156 744 156 744 119 744 c 1,37,38
 118 756 118 756 118 781 c 0,39,40
 118 895 118 895 157 996.5 c 128,-1,41
 196 1098 196 1098 260 1167 c 128,-1,42
 324 1236 324 1236 407.5 1276 c 128,-1,43
 491 1316 491 1316 578 1316 c 2,44,-1
 895 1316 l 1,45,-1
 898 1308 l 1,46,47
 822 1222 822 1222 766.5 940.5 c 128,-1,48
 711 659 711 659 711 407 c 0,49,50
 711 100 711 100 856 100 c 0,51,52
 936 100 936 100 1018.5 182 c 128,-1,53
 1101 264 1101 264 1155.5 382.5 c 128,-1,54
 1210 501 1210 501 1222 613 c 0,55,56
 1263 1028 1263 1028 1318 1294 c 1,57,58
 1364 1318 1364 1318 1486 1340 c 1,59,-1
 1501 1317 l 1,60,61
 1480 1297 1480 1297 1459.5 1259 c 128,-1,62
 1439 1221 1439 1221 1431 1177 c 0,0,1
EndSplineSet
EndChar

StartChar: V
Encoding: 86 86 57
Width: 1311
GlyphClass: 2
Flags: W
LayerCount: 2
Fore
SplineSet
225 836 m 1,0,-1
 226 801 l 1,1,2
 211 780 211 780 177.5 764 c 128,-1,3
 144 748 144 748 110 743 c 1,4,5
 109 756 109 756 109 779 c 0,6,7
 109 1028 109 1028 244 1182.5 c 128,-1,8
 379 1337 379 1337 611 1337 c 0,9,10
 679 1337 679 1337 735 1311 c 128,-1,11
 791 1285 791 1285 829.5 1242 c 128,-1,12
 868 1199 868 1199 897 1135 c 128,-1,13
 926 1071 926 1071 942.5 1004 c 128,-1,14
 959 937 959 937 970 854 c 0,15,16
 987 714 987 714 987 526.5 c 128,-1,17
 987 339 987 339 977 219 c 1,18,-1
 986 217 l 1,19,20
 1249 663 1249 663 1323 1003 c 0,21,22
 1337 1065 1337 1065 1337 1125 c 0,23,24
 1337 1231 1337 1231 1231 1231 c 0,25,26
 1226 1231 1226 1231 1226 1239.5 c 128,-1,27
 1226 1248 1226 1248 1242 1273.5 c 128,-1,28
 1258 1299 1258 1299 1269.5 1310 c 128,-1,29
 1281 1321 1281 1321 1304 1321 c 128,-1,30
 1327 1321 1327 1321 1358.5 1316.5 c 128,-1,31
 1390 1312 1390 1312 1425 1297 c 128,-1,32
 1460 1282 1460 1282 1460 1260 c 0,33,34
 1460 1172 1460 1172 1421 1055 c 0,35,36
 1264 591 1264 591 1046 193 c 0,37,38
 1038 178 1038 178 1023.5 150 c 128,-1,39
 1009 122 1009 122 1000 105 c 128,-1,40
 991 88 991 88 976.5 65.5 c 128,-1,41
 962 43 962 43 951 30 c 0,42,43
 925 -1 925 -1 892.5 -1 c 128,-1,44
 860 -1 860 -1 808 -9 c 1,45,-1
 801 17 l 1,46,47
 863 86 863 86 863 386 c 0,48,49
 863 841 863 841 798 1022 c 0,50,51
 742 1177 742 1177 640 1224 c 1,52,53
 586 1250 586 1250 514 1250 c 0,54,55
 360 1250 360 1250 292.5 1152 c 128,-1,56
 225 1054 225 1054 225 836 c 1,0,-1
EndSplineSet
EndChar

StartChar: W
Encoding: 87 87 58
Width: 1802
GlyphClass: 2
Flags: W
LayerCount: 2
Fore
SplineSet
242 831 m 1,0,-1
 243 798 l 1,1,2
 228 775 228 775 194.5 758 c 128,-1,3
 161 741 161 741 127 736 c 1,4,5
 126 749 126 749 126 771 c 0,6,7
 126 937 126 937 181.5 1063 c 128,-1,8
 237 1189 237 1189 349.5 1262 c 128,-1,9
 462 1335 462 1335 619 1335 c 0,10,11
 683 1335 683 1335 736 1309 c 128,-1,12
 789 1283 789 1283 825.5 1239.5 c 128,-1,13
 862 1196 862 1196 889.5 1132 c 128,-1,14
 917 1068 917 1068 933 1000 c 128,-1,15
 949 932 949 932 959 848 c 0,16,17
 976 707 976 707 976 519.5 c 128,-1,18
 976 332 976 332 966 212 c 1,19,-1
 975 210 l 1,20,21
 1162 526 1162 526 1258 834 c 0,22,23
 1314 1011 1314 1011 1314 1137 c 0,24,25
 1314 1166 1314 1166 1289.5 1205 c 128,-1,26
 1265 1244 1265 1244 1265 1252 c 0,27,28
 1265 1280 1265 1280 1309 1297 c 128,-1,29
 1353 1314 1353 1314 1394 1314 c 0,30,31
 1433 1314 1433 1314 1463.5 1227.5 c 128,-1,32
 1494 1141 1494 1141 1510 1012 c 0,33,34
 1542 752 1542 752 1542 545 c 128,-1,35
 1542 338 1542 338 1533 212 c 1,36,-1
 1541 210 l 1,37,38
 1791 633 1791 633 1868 996 c 0,39,40
 1883 1062 1883 1062 1883 1118 c 0,41,42
 1883 1224 1883 1224 1776 1224 c 0,43,44
 1772 1224 1772 1224 1772 1233 c 128,-1,45
 1772 1242 1772 1242 1787.5 1266 c 128,-1,46
 1803 1290 1803 1290 1815 1302 c 128,-1,47
 1827 1314 1827 1314 1849.5 1314 c 128,-1,48
 1872 1314 1872 1314 1904 1309.5 c 128,-1,49
 1936 1305 1936 1305 1971 1290 c 128,-1,50
 2006 1275 2006 1275 2006 1253 c 0,51,52
 2006 1168 2006 1168 1966 1048 c 0,53,54
 1877 786 1877 786 1792.5 583.5 c 128,-1,55
 1708 381 1708 381 1602 186 c 0,56,57
 1594 172 1594 172 1579 143 c 128,-1,58
 1564 114 1564 114 1555 97.5 c 128,-1,59
 1546 81 1546 81 1532 58 c 128,-1,60
 1518 35 1518 35 1506 22 c 0,61,62
 1478 -8 1478 -8 1446 -8 c 128,-1,63
 1414 -8 1414 -8 1364 -16 c 1,64,-1
 1356 10 l 1,65,66
 1418 79 1418 79 1418 379 c 0,67,68
 1418 772 1418 772 1372 987 c 1,69,-1
 1368 987 l 1,70,71
 1304 761 1304 761 1225.5 576 c 128,-1,72
 1147 391 1147 391 1035 186 c 0,73,74
 1027 171 1027 171 1012.5 143 c 128,-1,75
 998 115 998 115 989 98 c 128,-1,76
 980 81 980 81 965.5 58.5 c 128,-1,77
 951 36 951 36 940 23 c 0,78,79
 914 -8 914 -8 881.5 -8 c 128,-1,80
 849 -8 849 -8 797 -16 c 1,81,-1
 789 10 l 1,82,83
 821 45 821 45 836.5 153 c 128,-1,84
 852 261 852 261 852 382.5 c 128,-1,85
 852 504 852 504 849 592.5 c 128,-1,86
 846 681 846 681 837 773.5 c 128,-1,87
 828 866 828 866 812 934 c 128,-1,88
 796 1002 796 1002 770 1063.5 c 128,-1,89
 744 1125 744 1125 708 1164 c 0,90,91
 632 1247 632 1247 507 1247 c 0,92,93
 360 1247 360 1247 301 1147 c 128,-1,94
 242 1047 242 1047 242 831 c 1,0,-1
EndSplineSet
EndChar

StartChar: X
Encoding: 88 88 59
Width: 1147
GlyphClass: 2
Flags: W
LayerCount: 2
Fore
SplineSet
1145 1340 m 128,-1,1
 1179 1348 1179 1348 1220 1348 c 128,-1,2
 1261 1348 1261 1348 1298 1329 c 1,3,4
 1298 1270 1298 1270 1268 1220 c 1,5,6
 1194 1256 1194 1256 1123.5 1256 c 128,-1,7
 1053 1256 1053 1256 1009 1165 c 2,8,-1
 791 713 l 1,9,10
 860 381 860 381 964 188 c 0,11,12
 1018 88 1018 88 1061 88 c 0,13,14
 1118 88 1118 88 1213 101 c 1,15,-1
 1221 86 l 1,16,17
 1140 11 1140 11 1009 -23 c 1,18,19
 850 -23 850 -23 692 558 c 1,20,-1
 688 558 l 1,21,22
 564 301 564 301 498 195 c 0,23,24
 348 -47 348 -47 172 -126 c 0,25,26
 74 -169 74 -169 -38 -169 c 0,27,28
 -99 -169 -99 -169 -144 -164 c 1,29,30
 -132 -78 -132 -78 -82 -45 c 1,31,32
 -15 -64 -15 -64 70 -64 c 0,33,34
 159 -64 159 -64 253 11 c 0,35,36
 359 96 359 96 483 319 c 0,37,38
 523 391 523 391 548 440 c 0,39,40
 640 627 640 627 666 678 c 1,41,42
 607 960 607 960 571 1062 c 0,43,44
 504 1256 504 1256 409 1256 c 0,45,46
 289 1256 289 1256 238.5 1175 c 128,-1,47
 188 1094 188 1094 188 951 c 0,48,49
 188 918 188 918 191 883 c 1,50,51
 158 813 158 813 70 806 c 1,52,53
 80 1079 80 1079 218 1218 c 0,54,55
 266 1267 266 1267 340 1296.5 c 128,-1,56
 414 1326 414 1326 505 1326 c 0,57,58
 608 1326 608 1326 675 1156 c 0,59,60
 710 1066 710 1066 763 830 c 1,61,-1
 767 830 l 1,62,63
 894 1100 894 1100 934 1160 c 0,64,65
 992 1248 992 1248 1022 1271.5 c 128,-1,66
 1052 1295 1052 1295 1081.5 1313.5 c 128,-1,0
 1111 1332 1111 1332 1145 1340 c 128,-1,1
EndSplineSet
EndChar

StartChar: Y
Encoding: 89 89 60
Width: 1147
GlyphClass: 2
Flags: W
LayerCount: 2
Fore
SplineSet
122 910 m 1,0,-1
 123 876 l 1,1,2
 107 852 107 852 72.5 834 c 128,-1,3
 38 816 38 816 2 811 c 1,4,5
 1 824 1 824 1 847 c 0,6,7
 1 1071 1 1071 124 1206 c 128,-1,8
 247 1341 247 1341 464 1341 c 0,9,10
 612 1341 612 1341 702 1240 c 0,11,12
 790 1140 790 1140 826 985 c 0,13,14
 863 829 863 829 863 652 c 0,15,16
 863 596 863 596 858.5 559 c 128,-1,17
 854 522 854 522 852 495 c 1,18,-1
 861 493 l 1,19,20
 935 575 935 575 988.5 641.5 c 128,-1,21
 1042 708 1042 708 1098 792 c 0,22,23
 1211 962 1211 962 1211 1115 c 0,24,25
 1211 1227 1211 1227 1100 1227 c 0,26,27
 1095 1227 1095 1227 1095 1235.5 c 128,-1,28
 1095 1244 1095 1244 1111.5 1270.5 c 128,-1,29
 1128 1297 1128 1297 1140 1308.5 c 128,-1,30
 1152 1320 1152 1320 1185.5 1320 c 128,-1,31
 1219 1320 1219 1320 1279 1301.5 c 128,-1,32
 1339 1283 1339 1283 1339 1247 c 0,33,34
 1339 1057 1339 1057 1204 834 c 1,35,36
 1083 637 1083 637 878 414 c 0,37,38
 735 259 735 259 666 146.5 c 128,-1,39
 597 34 597 34 597 -89 c 0,40,41
 597 -158 597 -158 626 -196 c 128,-1,42
 655 -234 655 -234 700.5 -234 c 128,-1,43
 746 -234 746 -234 812.5 -209 c 128,-1,44
 879 -184 879 -184 937 -158.5 c 128,-1,45
 995 -133 995 -133 1019 -133 c 0,46,47
 1041 -133 1041 -133 1050.5 -174 c 128,-1,48
 1060 -215 1060 -215 1060 -265 c 1,49,50
 891 -306 891 -306 729 -306 c 0,51,52
 629 -306 629 -306 576.5 -253 c 128,-1,53
 524 -200 524 -200 524 -98 c 0,54,55
 524 105 524 105 715 332 c 1,56,57
 727 394 727 394 727 517.5 c 128,-1,58
 727 641 727 641 715 756.5 c 128,-1,59
 703 872 703 872 676 967 c 128,-1,60
 649 1062 649 1062 606 1124 c 0,61,62
 516 1252 516 1252 350 1252 c 0,63,64
 226 1252 226 1252 174 1163.5 c 128,-1,65
 122 1075 122 1075 122 910 c 1,0,-1
EndSplineSet
EndChar

StartChar: Z
Encoding: 90 90 61
Width: 1270
GlyphClass: 2
Flags: W
LayerCount: 2
Fore
SplineSet
373 859 m 1,0,-1
 372 887 l 1,1,2
 372 1034 372 1034 424 1140 c 0,3,4
 481 1256 481 1256 608 1301 c 0,5,6
 675 1325 675 1325 758 1325 c 128,-1,7
 841 1325 841 1325 935.5 1297.5 c 128,-1,8
 1030 1270 1030 1270 1109.5 1242.5 c 128,-1,9
 1189 1215 1189 1215 1233 1215 c 0,10,11
 1336 1215 1336 1215 1425 1272 c 1,12,-1
 1448 1257 l 1,13,14
 1287 1007 1287 1007 969.5 659.5 c 128,-1,15
 652 312 652 312 398 89 c 1,16,-1
 399 84 l 1,17,18
 453 87 453 87 493 87 c 0,19,20
 604 87 604 87 700 66.5 c 128,-1,21
 796 46 796 46 861.5 17 c 128,-1,22
 927 -12 927 -12 985 -41 c 0,23,24
 1125 -111 1125 -111 1224 -111 c 0,25,26
 1288 -111 1288 -111 1335 -80.5 c 128,-1,27
 1382 -50 1382 -50 1399 0 c 1,28,-1
 1425 -3 l 1,29,30
 1408 -108 1408 -108 1328.5 -170 c 128,-1,31
 1249 -232 1249 -232 1116 -232 c 0,32,33
 993 -232 993 -232 828 -143 c 0,34,35
 760 -106 760 -106 690 -70 c 0,36,37
 522 19 522 19 383 19 c 0,38,39
 311 19 311 19 236 2 c 1,40,-1
 232 16 l 1,41,42
 446 289 446 289 727.5 595.5 c 128,-1,43
 1009 902 1009 902 1283 1147 c 1,44,-1
 1282 1151 l 1,45,46
 1182 1129 1182 1129 1119 1129 c 128,-1,47
 1056 1129 1056 1129 975.5 1146 c 128,-1,48
 895 1163 895 1163 842 1184 c 0,49,50
 703 1239 703 1239 640 1239 c 0,51,52
 567 1239 567 1239 531 1199 c 0,53,54
 501 1165 501 1165 494 1081 c 0,55,56
 492 1047 492 1047 492 1009.5 c 128,-1,57
 492 972 492 972 493 958 c 1,58,59
 477 912 477 912 450 894 c 1,60,61
 428 878 428 878 404 870 c 128,-1,62
 380 862 380 862 373 859 c 1,0,-1
EndSplineSet
EndChar

StartChar: bracketleft
Encoding: 91 91 62
Width: 491
GlyphClass: 2
Flags: W
LayerCount: 2
Fore
SplineSet
321 1468 m 1,0,-1
 684 1468 l 1,1,-1
 653 1428 l 1,2,-1
 428 1428 l 1,3,4
 381 1092 381 1092 318 507 c 128,-1,5
 255 -78 255 -78 246 -156 c 1,6,-1
 504 -156 l 1,7,-1
 470 -198 l 1,8,-1
 135 -198 l 1,9,10
 150 -76 150 -76 211 516 c 128,-1,11
 272 1108 272 1108 321 1468 c 1,0,-1
EndSplineSet
EndChar

StartChar: backslash
Encoding: 92 92 63
Width: 983
GlyphClass: 2
Flags: W
LayerCount: 2
Fore
SplineSet
574 1474 m 1,0,-1
 809 -340 l 1,1,-1
 701 -340 l 1,2,-1
 465 1474 l 1,3,-1
 574 1474 l 1,0,-1
EndSplineSet
EndChar

StartChar: bracketright
Encoding: 93 93 64
Width: 655
GlyphClass: 2
Flags: W
LayerCount: 2
Fore
SplineSet
372 -190 m 1,0,-1
 10 -190 l 1,1,-1
 41 -150 l 1,2,-1
 265 -150 l 1,3,4
 311 184 311 184 369.5 757 c 128,-1,5
 428 1330 428 1330 439 1426 c 1,6,-1
 181 1426 l 1,7,-1
 215 1468 l 1,8,-1
 550 1468 l 1,9,10
 534 1335 534 1335 477.5 751.5 c 128,-1,11
 421 168 421 168 372 -190 c 1,0,-1
EndSplineSet
EndChar

StartChar: asciicircum
Encoding: 94 94 65
Width: 1065
GlyphClass: 2
Flags: W
LayerCount: 2
Fore
SplineSet
543 1322 m 1,0,1
 558 1326 558 1326 587 1326 c 128,-1,2
 616 1326 616 1326 639 1317 c 1,3,4
 673 1170 673 1170 769 1036 c 1,5,6
 845 928 845 928 949 812 c 1,7,-1
 918 774 l 1,8,9
 779 881 779 881 710.5 962 c 128,-1,10
 642 1043 642 1043 584 1176 c 1,11,12
 500 1031 500 1031 386 937 c 0,13,14
 288 857 288 857 174 790 c 1,15,-1
 145 826 l 1,16,17
 437 1046 437 1046 543 1322 c 1,0,1
EndSplineSet
EndChar

StartChar: underscore
Encoding: 95 95 66
Width: 1024
GlyphClass: 2
Flags: W
LayerCount: 2
Fore
SplineSet
68 -151 m 1,0,-1
 1082 -151 l 1,1,-1
 1024 -256 l 1,2,-1
 5 -256 l 1,3,-1
 68 -151 l 1,0,-1
EndSplineSet
EndChar

StartChar: grave
Encoding: 96 96 67
Width: 451
GlyphClass: 2
Flags: W
LayerCount: 2
Fore
SplineSet
302 1332 m 1,0,-1
 395 1348 l 1,1,2
 443 1199 443 1199 603 1094 c 1,3,-1
 579 1070 l 1,4,5
 487 1102 487 1102 411 1169.5 c 128,-1,6
 335 1237 335 1237 302 1332 c 1,0,-1
EndSplineSet
EndChar

StartChar: a
Encoding: 97 97 68
Width: 860
GlyphClass: 2
Flags: W
LayerCount: 2
Fore
SplineSet
632 893 m 1,0,1
 632 893 632 893 797 883 c 1,2,3
 794 766 794 766 770 583 c 128,-1,4
 746 400 746 400 739.5 352.5 c 128,-1,5
 733 305 733 305 718.5 201.5 c 128,-1,6
 704 98 704 98 701 76 c 1,7,-1
 705 74 l 1,8,9
 777 111 777 111 824.5 167.5 c 128,-1,10
 872 224 872 224 918 313 c 1,11,-1
 939 301 l 1,12,13
 888 185 888 185 799 82.5 c 128,-1,14
 710 -20 710 -20 648 -20 c 0,15,16
 629 -20 629 -20 616 -2 c 128,-1,17
 603 16 603 16 603 45 c 0,18,19
 603 123 603 123 627 315 c 1,20,-1
 621 317 l 1,21,22
 563 190 563 190 472 85 c 128,-1,23
 381 -20 381 -20 299 -20 c 0,24,25
 240 -20 240 -20 207 55.5 c 128,-1,26
 174 131 174 131 174 256 c 0,27,28
 174 421 174 421 233 566.5 c 128,-1,29
 292 712 292 712 398 802.5 c 128,-1,30
 504 893 504 893 632 893 c 1,0,1
559 801 m 0,31,32
 464 801 464 801 402.5 732.5 c 128,-1,33
 341 664 341 664 315.5 552.5 c 128,-1,34
 290 441 290 441 290 287 c 0,35,36
 290 197 290 197 310 142.5 c 128,-1,37
 330 88 330 88 371 88 c 0,38,39
 423 88 423 88 489 165.5 c 128,-1,40
 555 243 555 243 602 346.5 c 128,-1,41
 649 450 649 450 655 526 c 1,42,-1
 679 782 l 1,43,44
 595 801 595 801 559 801 c 0,31,32
EndSplineSet
EndChar

StartChar: b
Encoding: 98 98 69
Width: 860
GlyphClass: 2
Flags: W
LayerCount: 2
Fore
SplineSet
709 819 m 0,0,1
 673 819 673 819 625.5 787 c 128,-1,2
 578 755 578 755 526 690.5 c 128,-1,3
 474 626 474 626 429 541 c 128,-1,4
 384 456 384 456 351.5 339 c 128,-1,5
 319 222 319 222 312 96 c 1,6,7
 312 70 312 70 437 70 c 0,8,9
 489 70 489 70 533 92.5 c 128,-1,10
 577 115 577 115 608 153 c 128,-1,11
 639 191 639 191 664 243 c 128,-1,12
 689 295 689 295 704.5 351 c 128,-1,13
 720 407 720 407 730 469 c 0,14,15
 749 578 749 578 749 668 c 128,-1,16
 749 758 749 758 741 788.5 c 128,-1,17
 733 819 733 819 709 819 c 0,0,1
568.5 1478.5 m 128,-1,19
 642 1518 642 1518 709 1518 c 128,-1,20
 776 1518 776 1518 822 1507 c 1,21,22
 806 1446 806 1446 740 1409 c 1,23,24
 682 1421 682 1421 633 1421 c 128,-1,25
 584 1421 584 1421 556 1409 c 128,-1,26
 528 1397 528 1397 507.5 1377.5 c 128,-1,27
 487 1358 487 1358 471 1324 c 128,-1,28
 455 1290 455 1290 444 1254.5 c 128,-1,29
 433 1219 433 1219 424 1164 c 0,30,31
 412 1085 412 1085 400 942 c 2,32,-1
 365 522 l 1,33,-1
 369 518 l 1,34,35
 443 672 443 672 564 793.5 c 128,-1,36
 685 915 685 915 786 915 c 0,37,38
 833 915 833 915 855 881 c 128,-1,39
 877 847 877 847 877 753.5 c 128,-1,40
 877 660 877 660 856.5 551 c 128,-1,41
 836 442 836 442 789.5 337 c 128,-1,42
 743 232 743 232 675.5 153 c 128,-1,43
 608 74 608 74 504.5 25.5 c 128,-1,44
 401 -23 401 -23 276 -23 c 0,45,46
 207 -23 207 -23 207 57 c 0,47,48
 207 205 207 205 254.5 604.5 c 128,-1,49
 302 1004 302 1004 308 1080 c 128,-1,50
 314 1156 314 1156 350 1235 c 128,-1,51
 386 1314 386 1314 440.5 1376.5 c 128,-1,18
 495 1439 495 1439 568.5 1478.5 c 128,-1,19
EndSplineSet
EndChar

StartChar: c
Encoding: 99 99 70
Width: 696
GlyphClass: 2
Flags: W
LayerCount: 2
Fore
SplineSet
543 808 m 0,0,1
 475 808 475 808 424 760.5 c 128,-1,2
 373 713 373 713 344 633 c 0,3,4
 288 474 288 474 288 264 c 0,5,6
 288 171 288 171 317.5 119.5 c 128,-1,7
 347 68 347 68 411 68 c 128,-1,8
 475 68 475 68 559 128.5 c 128,-1,9
 643 189 643 189 704 295 c 1,10,-1
 721 281 l 1,11,12
 646 143 646 143 548 62.5 c 128,-1,13
 450 -18 450 -18 356 -18 c 128,-1,14
 262 -18 262 -18 213 49.5 c 128,-1,15
 164 117 164 117 164 224 c 128,-1,16
 164 331 164 331 202.5 450.5 c 128,-1,17
 241 570 241 570 302 667 c 128,-1,18
 363 764 363 764 444.5 828 c 128,-1,19
 526 892 526 892 607 892 c 128,-1,20
 688 892 688 892 736 850 c 1,21,22
 736 824 736 824 718 794 c 128,-1,23
 700 764 700 764 671 747 c 1,24,25
 645 773 645 773 610 790.5 c 128,-1,26
 575 808 575 808 543 808 c 0,0,1
EndSplineSet
EndChar

StartChar: d
Encoding: 100 100 71
Width: 901
GlyphClass: 2
Flags: W
LayerCount: 2
Fore
SplineSet
660 -17 m 0,0,1
 618 -17 618 -17 618 66 c 0,2,3
 618 113 618 113 646 309 c 1,4,-1
 640 313 l 1,5,6
 558 134 558 134 444 37 c 0,7,8
 381 -17 381 -17 327 -17 c 128,-1,9
 273 -17 273 -17 238 28 c 0,10,11
 175 107 175 107 175 258 c 128,-1,12
 175 409 175 409 232.5 551.5 c 128,-1,13
 290 694 290 694 399 786 c 128,-1,14
 508 878 508 878 643 878 c 0,15,16
 677 878 677 878 706 867 c 1,17,18
 714 938 714 938 724 1046 c 128,-1,19
 734 1154 734 1154 790.5 1252 c 128,-1,20
 847 1350 847 1350 937 1414.5 c 128,-1,21
 1027 1479 1027 1479 1123 1479 c 0,22,23
 1163 1479 1163 1479 1208 1470 c 1,24,25
 1196 1410 1196 1410 1141 1376 c 1,26,27
 1073 1386 1073 1386 1030.5 1386 c 128,-1,28
 988 1386 988 1386 957.5 1372 c 128,-1,29
 927 1358 927 1358 905.5 1327.5 c 128,-1,30
 884 1297 884 1297 869 1260.5 c 128,-1,31
 854 1224 854 1224 844 1166 c 0,32,33
 825 1065 825 1065 814 921 c 0,34,35
 783 527 783 527 712 80 c 1,36,-1
 716 76 l 1,37,38
 785 113 785 113 833 169 c 128,-1,39
 881 225 881 225 924 309 c 1,40,-1
 945 296 l 1,41,42
 896 183 896 183 808 83 c 128,-1,43
 720 -17 720 -17 660 -17 c 0,0,1
691 764 m 1,44,45
 653 800 653 800 571.5 800 c 128,-1,46
 490 800 490 800 425 731.5 c 128,-1,47
 360 663 360 663 326.5 546.5 c 128,-1,48
 293 430 293 430 293 283 c 0,49,50
 293 196 293 196 320.5 143 c 128,-1,51
 348 90 348 90 399 90 c 128,-1,52
 450 90 450 90 512 165 c 128,-1,53
 574 240 574 240 618.5 340.5 c 128,-1,54
 663 441 663 441 670 516 c 2,55,-1
 691 764 l 1,44,45
EndSplineSet
EndChar

StartChar: e
Encoding: 101 101 72
Width: 696
GlyphClass: 2
Flags: W
LayerCount: 2
Fore
SplineSet
544 805 m 0,0,1
 477 805 477 805 426 752 c 0,2,3
 334 657 334 657 313 434 c 1,4,5
 443 455 443 455 522 543 c 128,-1,6
 601 631 601 631 601 727 c 0,7,8
 601 805 601 805 544 805 c 0,0,1
603 893 m 0,9,10
 657 893 657 893 683 864.5 c 128,-1,11
 709 836 709 836 709 788 c 0,12,13
 709 709 709 709 676.5 642.5 c 128,-1,14
 644 576 644 576 586 530 c 0,15,16
 475 440 475 440 309 401 c 1,17,18
 301 333 301 333 301 255 c 128,-1,19
 301 177 301 177 319 123 c 128,-1,20
 337 69 337 69 373 69 c 0,21,22
 442 69 442 69 525 133.5 c 128,-1,23
 608 198 608 198 670 310 c 1,24,-1
 694 297 l 1,25,26
 614 152 614 152 515.5 67.5 c 128,-1,27
 417 -17 417 -17 324 -17 c 0,28,29
 250 -17 250 -17 212.5 48 c 128,-1,30
 175 113 175 113 175 219 c 0,31,32
 175 365 175 365 231 520 c 128,-1,33
 287 675 287 675 388 784 c 128,-1,34
 489 893 489 893 603 893 c 0,9,10
EndSplineSet
EndChar

StartChar: f
Encoding: 102 102 73
Width: 655
GlyphClass: 2
Flags: W
LayerCount: 2
Fore
SplineSet
873 1485 m 0,0,1
 906 1485 906 1485 946 1475.5 c 128,-1,2
 986 1466 986 1466 1010 1452 c 1,3,4
 997 1385 997 1385 950 1361 c 1,5,6
 853 1392 853 1392 786.5 1392 c 128,-1,7
 720 1392 720 1392 681 1368.5 c 128,-1,8
 642 1345 642 1345 618 1301 c 0,9,10
 572 1219 572 1219 552 1064 c 128,-1,11
 532 909 532 909 521 870 c 1,12,-1
 789 881 l 1,13,-1
 762 829 l 1,14,15
 713 806 713 806 511 792 c 1,16,-1
 410 137 l 2,17,18
 372 -112 372 -112 261.5 -238.5 c 128,-1,19
 151 -365 151 -365 -17 -365 c 0,20,21
 -67 -365 -67 -365 -129 -354 c 1,22,23
 -114 -288 -114 -288 -63 -257 c 1,24,25
 6 -275 6 -275 72 -275 c 0,26,27
 155 -275 155 -275 207 -215.5 c 128,-1,28
 259 -156 259 -156 283 -6 c 2,29,-1
 409 786 l 1,30,-1
 192 779 l 1,31,32
 204 827 204 827 231 854 c 1,33,34
 259 856 259 856 321 858 c 128,-1,35
 383 860 383 860 423 863 c 1,36,-1
 445 990 l 2,37,38
 484 1219 484 1219 601 1352 c 128,-1,39
 718 1485 718 1485 873 1485 c 0,0,1
EndSplineSet
EndChar

StartChar: g
Encoding: 103 103 74
Width: 819
GlyphClass: 2
Flags: W
LayerCount: 2
Fore
SplineSet
479 -336 m 128,-1,1
 404 -369 404 -369 287 -369 c 128,-1,2
 170 -369 170 -369 99 -348 c 1,3,4
 99 -268 99 -268 160 -238 c 1,5,6
 287 -272 287 -272 363 -272 c 128,-1,7
 439 -272 439 -272 480 -262 c 128,-1,8
 521 -252 521 -252 553.5 -224 c 128,-1,9
 586 -196 586 -196 602 -144 c 128,-1,10
 618 -92 618 -92 625 -8 c 2,11,-1
 650 315 l 1,12,-1
 643 319 l 1,13,14
 549 138 549 138 434 43 c 0,15,16
 368 -12 368 -12 311 -12 c 0,17,18
 277 -12 277 -12 251.5 13.5 c 128,-1,19
 226 39 226 39 213 78 c 0,20,21
 187 158 187 158 187 231 c 0,22,23
 187 410 187 410 247 558.5 c 128,-1,24
 307 707 307 707 412.5 793 c 128,-1,25
 518 879 518 879 646 879 c 0,26,27
 684 879 684 879 736.5 875 c 128,-1,28
 789 871 789 871 811 871 c 1,29,30
 796 640 796 640 765.5 409.5 c 128,-1,31
 735 179 735 179 724.5 92.5 c 128,-1,32
 714 6 714 6 684 -83 c 128,-1,33
 654 -172 654 -172 604 -237.5 c 128,-1,0
 554 -303 554 -303 479 -336 c 128,-1,1
695 772 m 1,34,35
 641 789 641 789 567.5 789 c 128,-1,36
 494 789 494 789 440.5 753.5 c 128,-1,37
 387 718 387 718 356 650 c 0,38,39
 298 523 298 523 298 290 c 0,40,41
 298 206 298 206 322 150 c 128,-1,42
 346 94 346 94 384 94 c 0,43,44
 436 94 436 94 503 166.5 c 128,-1,45
 570 239 570 239 619 342.5 c 128,-1,46
 668 446 668 446 675 532 c 2,47,-1
 695 772 l 1,34,35
EndSplineSet
EndChar

StartChar: h
Encoding: 104 104 75
Width: 901
GlyphClass: 2
Flags: W
LayerCount: 2
Fore
SplineSet
718 1375 m 1,0,1
 655 1384 655 1384 609 1384 c 128,-1,2
 563 1384 563 1384 530 1365 c 128,-1,3
 497 1346 497 1346 475.5 1316 c 128,-1,4
 454 1286 454 1286 439 1238 c 0,5,6
 414 1159 414 1159 402 1033 c 1,7,8
 360 536 360 536 358 510 c 1,9,-1
 364 508 l 1,10,11
 432 674 432 674 545.5 783 c 128,-1,12
 659 892 659 892 757 892 c 0,13,14
 791 892 791 892 813.5 867 c 128,-1,15
 836 842 836 842 836 793 c 0,16,17
 836 679 836 679 792 430.5 c 128,-1,18
 748 182 748 182 740 80 c 1,19,-1
 749 76 l 1,20,21
 862 131 862 131 943 307 c 1,22,-1
 968 295 l 1,23,24
 927 190 927 190 839 86 c 128,-1,25
 751 -18 751 -18 689 -18 c 0,26,27
 661 -18 661 -18 643.5 2.5 c 128,-1,28
 626 23 626 23 626 56 c 0,29,30
 626 157 626 157 652 305 c 128,-1,31
 678 453 678 453 704 579.5 c 128,-1,32
 730 706 730 706 730 752.5 c 128,-1,33
 730 799 730 799 712 799 c 0,34,35
 666 799 666 799 612.5 766.5 c 128,-1,36
 559 734 559 734 504.5 666 c 128,-1,37
 450 598 450 598 406 505 c 128,-1,38
 362 412 362 412 334 277 c 128,-1,39
 306 142 306 142 306 -10 c 0,40,41
 306 -18 306 -18 298 -18 c 0,42,43
 256 -18 256 -18 228.5 1 c 128,-1,44
 201 20 201 20 201 55 c 128,-1,45
 201 90 201 90 208 170 c 128,-1,46
 215 250 215 250 228 370 c 128,-1,47
 241 490 241 490 253 596.5 c 128,-1,48
 265 703 265 703 281.5 850 c 128,-1,49
 298 997 298 997 306 1068 c 0,50,51
 317 1168 317 1168 375 1262.5 c 128,-1,52
 433 1357 433 1357 521 1417 c 128,-1,53
 609 1477 609 1477 702 1477 c 0,54,55
 744 1477 744 1477 785 1468 c 1,56,57
 774 1408 774 1408 718 1375 c 1,0,1
EndSplineSet
EndChar

StartChar: i
Encoding: 105 105 76
Width: 491
GlyphClass: 2
Flags: W
LayerCount: 2
Fore
SplineSet
382 891 m 0,0,1
 422 891 422 891 422 820.5 c 128,-1,2
 422 750 422 750 406.5 630.5 c 128,-1,3
 391 511 391 511 359.5 324 c 128,-1,4
 328 137 328 137 320 81 c 1,5,-1
 324 79 l 1,6,7
 384 100 384 100 445 169.5 c 128,-1,8
 506 239 506 239 538 306 c 1,9,-1
 558 296 l 1,10,11
 536 240 536 240 485 166.5 c 128,-1,12
 434 93 434 93 376 38 c 128,-1,13
 318 -17 318 -17 283 -17 c 0,14,15
 227 -17 227 -17 227 61 c 0,16,17
 227 163 227 163 271 424 c 128,-1,18
 315 685 315 685 319 799 c 1,19,-1
 313 801 l 1,20,21
 265 783 265 783 229.5 749.5 c 128,-1,22
 194 716 194 716 155 664 c 1,23,-1
 139 676 l 1,24,25
 193 771 193 771 256.5 831 c 128,-1,26
 320 891 320 891 382 891 c 0,0,1
475 1305 m 1,27,28
 494 1273 494 1273 494 1223.5 c 128,-1,29
 494 1174 494 1174 459 1130 c 128,-1,30
 424 1086 424 1086 362 1069 c 1,31,32
 359 1096 359 1096 359 1121 c 0,33,34
 359 1200 359 1200 389.5 1242.5 c 128,-1,35
 420 1285 420 1285 475 1305 c 1,27,28
EndSplineSet
EndChar

StartChar: j
Encoding: 106 106 77
Width: 451
GlyphClass: 2
Flags: W
LayerCount: 2
Fore
SplineSet
465 1308 m 1,0,1
 486 1272 486 1272 486 1223.5 c 128,-1,2
 486 1175 486 1175 451 1130 c 128,-1,3
 416 1085 416 1085 353 1068 c 1,4,5
 349 1104 349 1104 349 1120 c 0,6,7
 349 1260 349 1260 465 1308 c 1,0,1
378 891 m 0,8,9
 404 891 404 891 414 870 c 128,-1,10
 424 849 424 849 424 815 c 128,-1,11
 424 781 424 781 351 125 c 0,12,13
 323 -118 323 -118 214.5 -249 c 128,-1,14
 106 -380 106 -380 -64 -380 c 0,15,16
 -104 -380 -104 -380 -152 -370 c 1,17,18
 -139 -302 -139 -302 -87 -273 c 1,19,20
 -34 -289 -34 -289 26 -289 c 0,21,22
 113 -289 113 -289 161 -230 c 128,-1,23
 209 -171 209 -171 228 -19 c 2,24,-1
 306 608 l 2,25,26
 320 724 320 724 323 800 c 1,27,-1
 317 803 l 1,28,29
 268 783 268 783 232.5 748.5 c 128,-1,30
 197 714 197 714 155 656 c 1,31,-1
 138 666 l 1,32,33
 187 762 187 762 254.5 826.5 c 128,-1,34
 322 891 322 891 378 891 c 0,8,9
EndSplineSet
EndChar

StartChar: k
Encoding: 107 107 78
Width: 901
GlyphClass: 2
Flags: W
LayerCount: 2
Fore
SplineSet
683 893 m 0,0,1
 742 893 742 893 773 863 c 128,-1,2
 804 833 804 833 804 779 c 128,-1,3
 804 725 804 725 783.5 677.5 c 128,-1,4
 763 630 763 630 724 596 c 0,5,6
 655 534 655 534 549 491 c 1,7,8
 580 427 580 427 640.5 278 c 128,-1,9
 701 129 701 129 717 78 c 1,10,-1
 721 76 l 1,11,12
 840 131 840 131 929 305 c 1,13,-1
 952 294 l 1,14,15
 905 178 905 178 814.5 80 c 128,-1,16
 724 -18 724 -18 664 -18 c 0,17,18
 640 -18 640 -18 610.5 39.5 c 128,-1,19
 581 97 581 97 556.5 170.5 c 128,-1,20
 532 244 532 244 496 327 c 128,-1,21
 460 410 460 410 428 448 c 1,22,-1
 429 465 l 1,23,24
 549 516 549 516 620 587.5 c 128,-1,25
 691 659 691 659 691 739 c 0,26,27
 691 782 691 782 677 802.5 c 128,-1,28
 663 823 663 823 617 823 c 128,-1,29
 571 823 571 823 524.5 790.5 c 128,-1,30
 478 758 478 758 447 705 c 128,-1,31
 416 652 416 652 392 578 c 128,-1,32
 368 504 368 504 354.5 429.5 c 128,-1,33
 341 355 341 355 332 270 c 0,34,35
 318 138 318 138 318 -12 c 0,36,37
 318 -18 318 -18 310 -18 c 0,38,39
 268 -18 268 -18 240.5 0 c 128,-1,40
 213 18 213 18 213 62 c 128,-1,41
 213 106 213 106 229.5 270 c 128,-1,42
 246 434 246 434 276 704.5 c 128,-1,43
 306 975 306 975 317 1071 c 128,-1,44
 328 1167 328 1167 386 1262 c 128,-1,45
 444 1357 444 1357 532.5 1417 c 128,-1,46
 621 1477 621 1477 714 1477 c 0,47,48
 765 1477 765 1477 797 1468 c 1,49,50
 786 1407 786 1407 729 1375 c 1,51,52
 668 1384 668 1384 625 1384 c 128,-1,53
 582 1384 582 1384 553 1371.5 c 128,-1,54
 524 1359 524 1359 503.5 1334 c 128,-1,55
 483 1309 483 1309 468.5 1280 c 128,-1,56
 454 1251 454 1251 444 1208 c 0,57,58
 428 1137 428 1137 416 1033 c 1,59,-1
 376 648 l 1,60,-1
 380 648 l 1,61,62
 490 893 490 893 683 893 c 0,0,1
EndSplineSet
EndChar

StartChar: l
Encoding: 108 108 79
Width: 491
GlyphClass: 2
Flags: W
LayerCount: 2
Fore
SplineSet
249 -18 m 128,-1,1
 193 -18 193 -18 193 58.5 c 128,-1,2
 193 135 193 135 204.5 232.5 c 128,-1,3
 216 330 216 330 240 493 c 128,-1,4
 264 656 264 656 277 753 c 2,5,-1
 315 1052 l 2,6,7
 328 1155 328 1155 384.5 1252 c 128,-1,8
 441 1349 441 1349 530 1413 c 128,-1,9
 619 1477 619 1477 714 1477 c 0,10,11
 743 1477 743 1477 800 1468 c 1,12,13
 788 1404 788 1404 733 1377 c 1,14,15
 649 1386 649 1386 620 1386 c 0,16,17
 520 1386 520 1386 474 1281 c 0,18,19
 441 1204 441 1204 415 990 c 0,20,21
 413 974 413 974 407 919 c 0,22,23
 367 566 367 566 294 79 c 1,24,-1
 297 77 l 1,25,26
 418 128 418 128 502 307 c 1,27,-1
 521 295 l 1,28,29
 483 192 483 192 394 87 c 128,-1,0
 305 -18 305 -18 249 -18 c 128,-1,1
EndSplineSet
EndChar

StartChar: m
Encoding: 109 109 80
Width: 1270
GlyphClass: 2
Flags: W
LayerCount: 2
Fore
SplineSet
417.5 870.5 m 128,-1,1
 429 849 429 849 429 812 c 128,-1,2
 429 775 429 775 422.5 727 c 128,-1,3
 416 679 416 679 405 617 c 128,-1,4
 394 555 394 555 388 511 c 1,5,-1
 394 509 l 1,6,7
 454 686 454 686 547 789 c 128,-1,8
 640 892 640 892 748 892 c 0,9,10
 781 892 781 892 801.5 867 c 128,-1,11
 822 842 822 842 822 801 c 128,-1,12
 822 760 822 760 818 722.5 c 128,-1,13
 814 685 814 685 810 661.5 c 128,-1,14
 806 638 806 638 796 588.5 c 128,-1,15
 786 539 786 539 782 515 c 1,16,-1
 787 513 l 1,17,18
 860 704 860 704 947.5 798 c 128,-1,19
 1035 892 1035 892 1145 892 c 0,20,21
 1177 892 1177 892 1199 860 c 128,-1,22
 1221 828 1221 828 1221 776 c 0,23,24
 1221 673 1221 673 1167 428.5 c 128,-1,25
 1113 184 1113 184 1104 80 c 1,26,-1
 1110 76 l 1,27,28
 1237 134 1237 134 1327 310 c 1,29,-1
 1346 295 l 1,30,31
 1303 190 1303 190 1212 86.5 c 128,-1,32
 1121 -17 1121 -17 1058 -17 c 0,33,34
 1037 -17 1037 -17 1022.5 7 c 128,-1,35
 1008 31 1008 31 1008 63 c 0,36,37
 1008 181 1008 181 1058 440.5 c 128,-1,38
 1108 700 1108 700 1108 748.5 c 128,-1,39
 1108 797 1108 797 1096 797 c 0,40,41
 1053 797 1053 797 1004 763.5 c 128,-1,42
 955 730 955 730 905.5 660.5 c 128,-1,43
 856 591 856 591 816.5 497.5 c 128,-1,44
 777 404 777 404 752 272 c 128,-1,45
 727 140 727 140 727 -7 c 0,46,47
 727 -17 727 -17 715 -17 c 0,48,49
 621 -17 621 -17 621 47 c 0,50,51
 621 165 621 165 665 432 c 128,-1,52
 709 699 709 699 709 748 c 128,-1,53
 709 797 709 797 697 797 c 0,54,55
 601 797 601 797 506 661 c 0,56,57
 399 508 399 508 358 273 c 0,58,59
 334 141 334 141 334 -7 c 0,60,61
 334 -17 334 -17 327 -17 c 0,62,63
 278 -17 278 -17 250 2 c 128,-1,64
 222 21 222 21 222 59 c 0,65,66
 222 167 222 167 272.5 441 c 128,-1,67
 323 715 323 715 323 801 c 1,68,-1
 321 805 l 1,69,70
 218 768 218 768 149 665 c 1,71,-1
 132 676 l 1,72,73
 177 759 177 759 246.5 825.5 c 128,-1,74
 316 892 316 892 388 892 c 0,75,0
 406 892 406 892 417.5 870.5 c 128,-1,1
EndSplineSet
EndChar

StartChar: n
Encoding: 110 110 81
Width: 942
GlyphClass: 2
Flags: W
LayerCount: 2
Fore
SplineSet
655 56 m 0,0,1
 655 157 655 157 680 301.5 c 128,-1,2
 705 446 705 446 730 571 c 128,-1,3
 755 696 755 696 755 747.5 c 128,-1,4
 755 799 755 799 739 799 c 0,5,6
 695 799 695 799 641.5 766.5 c 128,-1,7
 588 734 588 734 532.5 666 c 128,-1,8
 477 598 477 598 431.5 505 c 128,-1,9
 386 412 386 412 357 277.5 c 128,-1,10
 328 143 328 143 328 -8 c 0,11,12
 328 -18 328 -18 320 -18 c 0,13,14
 276 -18 276 -18 249 1.5 c 128,-1,15
 222 21 222 21 222 60 c 0,16,17
 222 180 222 180 269.5 448.5 c 128,-1,18
 317 717 317 717 317 800 c 1,19,-1
 313 804 l 1,20,21
 222 769 222 769 156 666 c 1,22,-1
 140 678 l 1,23,24
 180 753 180 753 239 817 c 0,25,26
 270 851 270 851 306.5 871.5 c 128,-1,27
 343 892 343 892 378 892 c 0,28,29
 397 892 397 892 408.5 870 c 128,-1,30
 420 848 420 848 420 810.5 c 128,-1,31
 420 773 420 773 414.5 728 c 128,-1,32
 409 683 409 683 396.5 614.5 c 128,-1,33
 384 546 384 546 378 510 c 1,34,-1
 385 508 l 1,35,36
 457 674 457 674 573 783 c 128,-1,37
 689 892 689 892 788 892 c 0,38,39
 824 892 824 892 845 866 c 128,-1,40
 866 840 866 840 866 787 c 0,41,42
 866 678 866 678 820.5 432 c 128,-1,43
 775 186 775 186 767 80 c 1,44,-1
 772 76 l 1,45,46
 893 132 893 132 975 307 c 1,47,-1
 996 295 l 1,48,49
 958 191 958 191 871.5 86.5 c 128,-1,50
 785 -18 785 -18 726 -18 c 0,51,52
 697 -18 697 -18 676 3 c 128,-1,53
 655 24 655 24 655 56 c 0,0,1
EndSplineSet
EndChar

StartChar: o
Encoding: 111 111 82
Width: 819
GlyphClass: 2
Flags: W
LayerCount: 2
Fore
SplineSet
596 891 m 0,0,1
 726 891 726 891 779.5 814.5 c 128,-1,2
 833 738 833 738 833 606.5 c 128,-1,3
 833 475 833 475 790.5 360.5 c 128,-1,4
 748 246 748 246 680 163.5 c 128,-1,5
 612 81 612 81 525 31 c 128,-1,6
 438 -19 438 -19 349.5 -19 c 128,-1,7
 261 -19 261 -19 211.5 54.5 c 128,-1,8
 162 128 162 128 162 270.5 c 128,-1,9
 162 413 162 413 221.5 557.5 c 128,-1,10
 281 702 281 702 383 796.5 c 128,-1,11
 485 891 485 891 596 891 c 0,0,1
545 822 m 0,12,13
 470 822 470 822 409.5 748.5 c 128,-1,14
 349 675 349 675 317.5 562.5 c 128,-1,15
 286 450 286 450 286 326 c 0,16,17
 286 55 286 55 403.5 55 c 128,-1,18
 521 55 521 55 619 193.5 c 128,-1,19
 717 332 717 332 717 519 c 0,20,21
 717 663 717 663 674.5 742.5 c 128,-1,22
 632 822 632 822 545 822 c 0,12,13
EndSplineSet
EndChar

StartChar: p
Encoding: 112 112 83
Width: 901
GlyphClass: 2
Flags: W
LayerCount: 2
Fore
SplineSet
665.5 859.5 m 128,-1,1
 721 892 721 892 776.5 892 c 128,-1,2
 832 892 832 892 867 850.5 c 128,-1,3
 902 809 902 809 902 723 c 0,4,5
 902 571 902 571 854 432 c 128,-1,6
 806 293 806 293 731.5 199 c 128,-1,7
 657 105 657 105 567.5 49.5 c 128,-1,8
 478 -6 478 -6 394 -6 c 0,9,10
 363 -6 363 -6 351 -4 c 1,11,12
 344 -55 344 -55 335 -152.5 c 128,-1,13
 326 -250 326 -250 326 -285 c 0,14,15
 326 -298 326 -298 334.5 -302.5 c 128,-1,16
 343 -307 343 -307 369 -311 c 2,17,-1
 541 -339 l 1,18,19
 541 -353 541 -353 537 -365 c 1,20,21
 337 -349 337 -349 240 -349 c 128,-1,22
 143 -349 143 -349 53 -361 c 1,23,24
 53 -343 53 -343 60 -337 c 1,25,-1
 116 -327 l 2,26,27
 163 -318 163 -318 189.5 -285 c 128,-1,28
 216 -252 216 -252 226 -184 c 0,29,30
 230 -155 230 -155 273.5 214.5 c 128,-1,31
 317 584 317 584 349 800 c 1,32,-1
 344 804 l 1,33,34
 256 770 256 770 187 669 c 1,35,-1
 170 681 l 1,36,37
 209 753 209 753 269 819 c 0,38,39
 300 853 300 853 337 873.5 c 128,-1,40
 374 894 374 894 409 894 c 0,41,42
 428 894 428 894 439 871.5 c 128,-1,43
 450 849 450 849 450 808.5 c 128,-1,44
 450 768 450 768 423 619 c 1,45,46
 421 601 421 601 419 593 c 1,47,-1
 425 591 l 1,48,49
 494 710 494 710 571 788 c 0,50,0
 610 827 610 827 665.5 859.5 c 128,-1,1
705 802 m 0,51,52
 649 802 649 802 581 734 c 128,-1,53
 513 666 513 666 458.5 553.5 c 128,-1,54
 404 441 404 441 391 326 c 0,55,56
 369 142 369 142 368 130 c 2,57,-1
 366 107 l 1,58,59
 366 74 366 74 445.5 74 c 128,-1,60
 525 74 525 74 585.5 120 c 128,-1,61
 646 166 646 166 680.5 233.5 c 128,-1,62
 715 301 715 301 738 386 c 0,63,64
 776 526 776 526 776 664 c 128,-1,65
 776 802 776 802 705 802 c 0,51,52
EndSplineSet
EndChar

StartChar: q
Encoding: 113 113 84
Width: 819
GlyphClass: 2
Flags: W
LayerCount: 2
Fore
SplineSet
871 -364 m 1,0,1
 702 -351 702 -351 658.5 -351 c 128,-1,2
 615 -351 615 -351 355 -366 c 1,3,4
 355 -350 355 -350 369 -339 c 1,5,-1
 455 -329 l 2,6,7
 511 -323 511 -323 539 -285 c 128,-1,8
 567 -247 567 -247 582 -152 c 0,9,10
 632 173 632 173 635 316 c 1,11,-1
 629 318 l 1,12,13
 571 203 571 203 482 98 c 0,14,15
 437 46 437 46 386 14 c 128,-1,16
 335 -18 335 -18 285.5 -18 c 128,-1,17
 236 -18 236 -18 211 54 c 128,-1,18
 186 126 186 126 186 230 c 0,19,20
 186 415 186 415 242.5 566.5 c 128,-1,21
 299 718 299 718 398.5 804 c 128,-1,22
 498 890 498 890 620 890 c 0,23,24
 659 890 659 890 701 880.5 c 128,-1,25
 743 871 743 871 749.5 871 c 128,-1,26
 756 871 756 871 778 880.5 c 128,-1,27
 800 890 800 890 804.5 890 c 128,-1,28
 809 890 809 890 809 884 c 128,-1,29
 809 878 809 878 802.5 837.5 c 128,-1,30
 796 797 796 797 794 771 c 0,31,32
 768 452 768 452 696 -162 c 0,33,34
 693 -183 693 -183 693 -201 c 0,35,36
 693 -259 693 -259 722.5 -288 c 128,-1,37
 752 -317 752 -317 820 -329 c 2,38,-1
 887 -341 l 1,39,40
 887 -356 887 -356 871 -364 c 1,0,1
682 783 m 1,41,42
 605 798 605 798 542.5 798 c 128,-1,43
 480 798 480 798 429.5 762 c 128,-1,44
 379 726 379 726 350 656 c 0,45,46
 297 525 297 525 297 290 c 0,47,48
 297 206 297 206 314 157.5 c 128,-1,49
 331 109 331 109 362 109 c 0,50,51
 421 109 421 109 491.5 183 c 128,-1,52
 562 257 562 257 611.5 362 c 128,-1,53
 661 467 661 467 667 554 c 2,54,-1
 682 783 l 1,41,42
EndSplineSet
EndChar

StartChar: r
Encoding: 114 114 85
Width: 614
GlyphClass: 2
Flags: W
LayerCount: 2
Fore
SplineSet
316 -8 m 0,0,1
 316 -18 316 -18 308 -18 c 0,2,3
 257 -18 257 -18 234 -2 c 128,-1,4
 211 14 211 14 211 52 c 0,5,6
 211 176 211 176 258.5 447 c 128,-1,7
 306 718 306 718 306 799 c 1,8,-1
 301 802 l 1,9,10
 219 772 219 772 145 667 c 1,11,-1
 129 677 l 1,12,13
 175 762 175 762 238 827 c 128,-1,14
 301 892 301 892 368 892 c 0,15,16
 385 892 385 892 396.5 869 c 128,-1,17
 408 846 408 846 408 815.5 c 128,-1,18
 408 785 408 785 402.5 739.5 c 128,-1,19
 397 694 397 694 386.5 626.5 c 128,-1,20
 376 559 376 559 371 524 c 1,21,-1
 377 521 l 1,22,23
 448 689 448 689 541.5 794.5 c 128,-1,24
 635 900 635 900 721 900 c 0,25,26
 746 900 746 900 768 894 c 1,27,28
 768 865 768 865 757.5 834 c 128,-1,29
 747 803 747 803 732 787 c 1,30,31
 599 787 599 787 494 654 c 0,32,33
 382 512 382 512 339 270 c 0,34,35
 316 141 316 141 316 -8 c 0,0,1
EndSplineSet
EndChar

StartChar: s
Encoding: 115 115 86
Width: 655
GlyphClass: 2
Flags: W
LayerCount: 2
Fore
SplineSet
317.5 821 m 128,-1,1
 407 891 407 891 511.5 891 c 128,-1,2
 616 891 616 891 675 846 c 1,3,4
 673 821 673 821 657 791.5 c 128,-1,5
 641 762 641 762 617 743 c 1,6,7
 531 825 531 825 429 825 c 0,8,9
 382 825 382 825 355 796.5 c 128,-1,10
 328 768 328 768 328 726 c 128,-1,11
 328 684 328 684 339 654 c 128,-1,12
 350 624 350 624 374.5 593.5 c 128,-1,13
 399 563 399 563 416.5 545.5 c 128,-1,14
 434 528 434 528 467 497 c 0,15,16
 543 426 543 426 583.5 368.5 c 128,-1,17
 624 311 624 311 624 252 c 0,18,19
 624 148 624 148 533.5 65 c 128,-1,20
 443 -18 443 -18 328 -18 c 0,21,22
 264 -18 264 -18 205.5 10 c 128,-1,23
 147 38 147 38 117 82 c 1,24,25
 117 162 117 162 177 201 c 1,26,27
 250 54 250 54 381 54 c 0,28,29
 449 54 449 54 493.5 91 c 128,-1,30
 538 128 538 128 538 183 c 128,-1,31
 538 238 538 238 499 289 c 128,-1,32
 460 340 460 340 401.5 392.5 c 128,-1,33
 343 445 343 445 324 464 c 128,-1,34
 305 483 305 483 278 514 c 1,35,36
 228 575 228 575 228 648 c 0,37,0
 228 751 228 751 317.5 821 c 128,-1,1
EndSplineSet
EndChar

StartChar: t
Encoding: 116 116 87
Width: 655
GlyphClass: 2
Flags: W
LayerCount: 2
Fore
SplineSet
346 803 m 1,0,1
 346 803 346 803 194 796 c 1,2,3
 197 834 197 834 233 870 c 1,4,5
 241 871 241 871 350 877 c 1,6,-1
 360 957 l 2,7,8
 364 986 364 986 396 1007.5 c 128,-1,9
 428 1029 428 1029 464 1029 c 1,10,-1
 456 884 l 1,11,-1
 688 884 l 1,12,13
 688 835 688 835 644 804 c 1,14,-1
 447 804 l 1,15,-1
 373 78 l 1,16,-1
 377 76 l 1,17,18
 446 107 446 107 510 169 c 128,-1,19
 574 231 574 231 610 309 c 1,20,-1
 630 297 l 1,21,22
 593 200 593 200 489 91 c 128,-1,23
 385 -18 385 -18 321 -18 c 0,24,25
 299 -18 299 -18 285.5 6.5 c 128,-1,26
 272 31 272 31 272 72 c 128,-1,27
 272 113 272 113 277.5 179.5 c 128,-1,28
 283 246 283 246 290 309.5 c 128,-1,29
 297 373 297 373 314.5 522.5 c 128,-1,30
 332 672 332 672 346 803 c 1,0,1
EndSplineSet
EndChar

StartChar: u
Encoding: 117 117 88
Width: 942
GlyphClass: 2
Flags: W
LayerCount: 2
Fore
SplineSet
409 888 m 0,0,1
 428 888 428 888 437.5 864.5 c 128,-1,2
 447 841 447 841 447 806 c 0,3,4
 447 691 447 691 408.5 451 c 128,-1,5
 370 211 370 211 370 118 c 0,6,7
 370 76 370 76 385 76 c 0,8,9
 421 76 421 76 466.5 109.5 c 128,-1,10
 512 143 512 143 560.5 211.5 c 128,-1,11
 609 280 609 280 649 371.5 c 128,-1,12
 689 463 689 463 714.5 594 c 128,-1,13
 740 725 740 725 740 869 c 0,14,15
 740 888 740 888 766 888 c 0,16,17
 816 888 816 888 832 873.5 c 128,-1,18
 848 859 848 859 848 815 c 0,19,20
 848 677 848 677 805 412 c 128,-1,21
 762 147 762 147 762 80 c 1,22,-1
 766 76 l 1,23,24
 826 98 826 98 883.5 167.5 c 128,-1,25
 941 237 941 237 970 305 c 1,26,-1
 992 294 l 1,27,28
 958 204 958 204 868 93 c 128,-1,29
 778 -18 778 -18 726 -18 c 0,30,31
 667 -18 667 -18 667 45 c 128,-1,32
 667 108 667 108 696 362 c 1,33,-1
 687 364 l 1,34,35
 619 183 619 183 523 82.5 c 128,-1,36
 427 -18 427 -18 322 -18 c 0,37,38
 294 -18 294 -18 273 16.5 c 128,-1,39
 252 51 252 51 252 119.5 c 128,-1,40
 252 188 252 188 299 441 c 128,-1,41
 346 694 346 694 346 793 c 1,42,-1
 341 802 l 1,43,44
 259 767 259 767 186 663 c 1,45,-1
 170 675 l 1,46,47
 223 784 223 784 312 850 c 0,48,49
 363 888 363 888 409 888 c 0,0,1
EndSplineSet
EndChar

StartChar: v
Encoding: 118 118 89
Width: 901
GlyphClass: 2
Flags: W
LayerCount: 2
Fore
SplineSet
421 806 m 2,0,1
 421 806 421 806 408 374 c 1,2,3
 408 95 408 95 498 95 c 0,4,5
 526 95 526 95 566.5 123 c 128,-1,6
 607 151 607 151 651 204 c 128,-1,7
 695 257 695 257 733 324 c 128,-1,8
 771 391 771 391 795.5 479.5 c 128,-1,9
 820 568 820 568 820 657 c 0,10,11
 820 682 820 682 783.5 746 c 128,-1,12
 747 810 747 810 747 838 c 128,-1,13
 747 866 747 866 761.5 880.5 c 128,-1,14
 776 895 776 895 795 895 c 0,15,16
 892 895 892 895 892 742 c 1,17,18
 891 616 891 616 859.5 495.5 c 128,-1,19
 828 375 828 375 777.5 285 c 128,-1,20
 727 195 727 195 667 125 c 128,-1,21
 607 55 607 55 547.5 19 c 128,-1,22
 488 -17 488 -17 442.5 -17 c 128,-1,23
 397 -17 397 -17 367.5 17.5 c 128,-1,24
 338 52 338 52 324 116 c 0,25,26
 298 229 298 229 298 443 c 128,-1,27
 298 657 298 657 314 794 c 1,28,-1
 310 802 l 1,29,30
 231 768 231 768 160 668 c 1,31,-1
 135 680 l 1,32,33
 169 745 169 745 232 810 c 0,34,35
 265 843 265 843 305 863.5 c 128,-1,36
 345 884 345 884 384 884 c 0,37,38
 402 884 402 884 411.5 861.5 c 128,-1,39
 421 839 421 839 421 806 c 2,0,1
EndSplineSet
EndChar

StartChar: w
Encoding: 119 119 90
Width: 1393
GlyphClass: 2
Flags: W
LayerCount: 2
Fore
SplineSet
916 800 m 2,0,-1
 913 536 l 1,1,2
 913 214 913 214 946 130 c 0,3,4
 962 92 962 92 988 92 c 128,-1,5
 1014 92 1014 92 1054.5 119.5 c 128,-1,6
 1095 147 1095 147 1139 200 c 128,-1,7
 1183 253 1183 253 1221 320 c 128,-1,8
 1259 387 1259 387 1283.5 476.5 c 128,-1,9
 1308 566 1308 566 1308 656 c 0,10,11
 1308 679 1308 679 1268 744 c 128,-1,12
 1228 809 1228 809 1228 837 c 128,-1,13
 1228 865 1228 865 1240.5 880 c 128,-1,14
 1253 895 1253 895 1277 895 c 128,-1,15
 1301 895 1301 895 1331 873 c 128,-1,16
 1361 851 1361 851 1365.5 818.5 c 128,-1,17
 1370 786 1370 786 1370 741 c 0,18,19
 1370 615 1370 615 1339.5 494.5 c 128,-1,20
 1309 374 1309 374 1261 284 c 128,-1,21
 1213 194 1213 194 1156 124 c 128,-1,22
 1099 54 1099 54 1043 18 c 128,-1,23
 987 -18 987 -18 949 -18 c 128,-1,24
 911 -18 911 -18 889 -4.5 c 128,-1,25
 867 9 867 9 854.5 29.5 c 128,-1,26
 842 50 842 50 835 86 c 0,27,28
 825 136 825 136 825 235 c 2,29,-1
 825 411 l 1,30,-1
 820 411 l 1,31,32
 756 225 756 225 656.5 103.5 c 128,-1,33
 557 -18 557 -18 479 -18 c 0,34,35
 400 -18 400 -18 372 107 c 0,36,37
 348 211 348 211 348 421.5 c 128,-1,38
 348 632 348 632 371 796 c 1,39,-1
 365 804 l 1,40,41
 282 771 282 771 203 670 c 1,42,-1
 184 681 l 1,43,44
 240 788 240 788 336 850 c 0,45,46
 392 886 392 886 448 886 c 0,47,48
 463 886 463 886 471.5 863 c 128,-1,49
 480 840 480 840 480 801.5 c 128,-1,50
 480 763 480 763 470.5 619.5 c 128,-1,51
 461 476 461 476 461 396 c 0,52,53
 461 92 461 92 537 92 c 0,54,55
 569 92 569 92 614.5 136.5 c 128,-1,56
 660 181 660 181 703 253 c 128,-1,57
 746 325 746 325 776.5 430 c 128,-1,58
 807 535 807 535 807 642 c 0,59,60
 807 675 807 675 793 744 c 128,-1,61
 779 813 779 813 779 835 c 0,62,63
 779 880 779 880 817 880 c 0,64,65
 823 880 823 880 879 876 c 0,66,67
 901 874 901 874 908.5 856.5 c 128,-1,68
 916 839 916 839 916 800 c 2,0,-1
EndSplineSet
EndChar

StartChar: x
Encoding: 120 120 91
Width: 860
GlyphClass: 2
Flags: W
LayerCount: 2
Fore
SplineSet
623 -22 m 0,0,1
 601 -22 601 -22 579.5 23 c 128,-1,2
 558 68 558 68 527 156 c 1,3,-1
 461 333 l 1,4,5
 442 302 442 302 351 139 c 1,6,7
 306 64 306 64 259.5 24 c 128,-1,8
 213 -16 213 -16 139 -16 c 0,9,10
 100 -16 100 -16 71 -2 c 1,11,12
 71 49 71 49 103 84 c 1,13,14
 170 64 170 64 192 64 c 128,-1,15
 214 64 214 64 240 79.5 c 128,-1,16
 266 95 266 95 278 110 c 128,-1,17
 290 125 290 125 310 158 c 1,18,19
 336 198 336 198 434 385 c 1,20,21
 414 436 414 436 376 547 c 0,22,23
 292 791 292 791 281 791 c 0,24,25
 254 791 254 791 163 697 c 1,26,-1
 149 705 l 1,27,28
 227 843 227 843 285 876 c 0,29,30
 314 892 314 892 333 892 c 128,-1,31
 352 892 352 892 359.5 890 c 128,-1,32
 367 888 367 888 373.5 882.5 c 128,-1,33
 380 877 380 877 385 872.5 c 128,-1,34
 390 868 390 868 395 857.5 c 128,-1,35
 400 847 400 847 403.5 840 c 128,-1,36
 407 833 407 833 412.5 817.5 c 128,-1,37
 418 802 418 802 420 794 c 0,38,39
 430 762 430 762 438 737 c 2,40,-1
 508 503 l 1,41,-1
 631 733 l 1,42,43
 679 816 679 816 732.5 852 c 128,-1,44
 786 888 786 888 877 888 c 2,45,-1
 891 888 l 1,46,47
 891 833 891 833 854 800 c 1,48,49
 786 808 786 808 785 808 c 0,50,51
 750 808 750 808 730.5 794 c 128,-1,52
 711 780 711 780 695 749 c 2,53,-1
 535 453 l 1,54,55
 597 274 597 274 679 74 c 1,56,57
 797 130 797 130 885 301 c 1,58,-1
 904 290 l 1,59,60
 863 188 863 188 768.5 83 c 128,-1,61
 674 -22 674 -22 623 -22 c 0,0,1
EndSplineSet
EndChar

StartChar: y
Encoding: 121 121 92
Width: 819
GlyphClass: 2
Flags: W
LayerCount: 2
Fore
SplineSet
146 -369 m 0,0,1
 18 -369 18 -369 -38 -350 c 1,2,3
 -38 -273 -38 -273 16 -242 c 1,4,5
 131 -272 131 -272 188 -272 c 0,6,7
 445 -272 445 -272 445 -13 c 0,8,9
 445 170 445 170 414.5 367.5 c 128,-1,10
 384 565 384 565 346.5 688.5 c 128,-1,11
 309 812 309 812 283 830 c 1,12,13
 241 822 241 822 200.5 788.5 c 128,-1,14
 160 755 160 755 99 688 c 1,15,-1
 81 701 l 1,16,17
 188 894 188 894 337 894 c 0,18,19
 421 894 421 894 456 782 c 0,20,21
 486 689 486 689 514.5 506 c 128,-1,22
 543 323 543 323 552 72 c 1,23,-1
 564 72 l 1,24,25
 780 417 780 417 780 657 c 0,26,27
 780 682 780 682 742.5 746 c 128,-1,28
 705 810 705 810 705 838 c 128,-1,29
 705 866 705 866 718 880.5 c 128,-1,30
 731 895 731 895 749 895 c 0,31,32
 847 895 847 895 847 742 c 0,33,34
 847 567 847 567 785 406 c 0,35,36
 713 221 713 221 526 -98 c 0,37,38
 472 -189 472 -189 441.5 -222.5 c 128,-1,39
 411 -256 411 -256 377.5 -286.5 c 128,-1,40
 344 -317 344 -317 312 -332 c 0,41,42
 231 -369 231 -369 146 -369 c 0,0,1
EndSplineSet
EndChar

StartChar: z
Encoding: 122 122 93
Width: 901
GlyphClass: 2
Flags: W
LayerCount: 2
Fore
SplineSet
377 103 m 0,0,1
 459 103 459 103 568.5 84 c 128,-1,2
 678 65 678 65 724 65 c 0,3,4
 801 65 801 65 852 169 c 1,5,-1
 879 155 l 1,6,7
 844 42 844 42 800 -3 c 0,8,9
 758 -46 758 -46 688.5 -46 c 128,-1,10
 619 -46 619 -46 478 3 c 128,-1,11
 337 52 337 52 283 52 c 0,12,13
 260 52 260 52 242 42 c 128,-1,14
 224 32 224 32 201 6 c 1,15,-1
 176 32 l 1,16,17
 265 155 265 155 356.5 269.5 c 128,-1,18
 448 384 448 384 590.5 553.5 c 128,-1,19
 733 723 733 723 762 758 c 1,20,-1
 758 762 l 1,21,22
 722 751 722 751 666.5 751 c 128,-1,23
 611 751 611 751 516 763 c 128,-1,24
 421 775 421 775 374 775 c 0,25,26
 280 775 280 775 226 668 c 1,27,-1
 199 677 l 1,28,29
 234 780 234 780 286 836 c 128,-1,30
 338 892 338 892 419 892 c 0,31,32
 474 892 474 892 589 860.5 c 128,-1,33
 704 829 704 829 733 829 c 128,-1,34
 762 829 762 829 787.5 836.5 c 128,-1,35
 813 844 813 844 827.5 852.5 c 128,-1,36
 842 861 842 861 866 878 c 1,37,-1
 905 854 l 1,38,39
 645 477 645 477 286 92 c 1,40,41
 295 93 295 93 315 96 c 0,42,43
 362 103 362 103 377 103 c 0,0,1
EndSplineSet
EndChar

StartChar: braceleft
Encoding: 123 123 94
Width: 491
GlyphClass: 2
Flags: W
LayerCount: 2
Fore
SplineSet
227 584 m 1,0,1
 273 584 273 584 329 551 c 1,2,3
 438 484 438 484 438 334 c 0,4,5
 438 259 438 259 408 87 c 128,-1,6
 378 -85 378 -85 378 -162 c 128,-1,7
 378 -239 378 -239 408 -286 c 128,-1,8
 438 -333 438 -333 515 -341 c 1,9,-1
 495 -369 l 1,10,11
 376 -350 376 -350 318.5 -282 c 128,-1,12
 261 -214 261 -214 261 -114 c 0,13,14
 261 -37 261 -37 296.5 135.5 c 128,-1,15
 332 308 332 308 332 379 c 128,-1,16
 332 450 332 450 298 500.5 c 128,-1,17
 264 551 264 551 190 560 c 2,18,-1
 165 563 l 1,19,-1
 194 615 l 1,20,21
 261 615 261 615 300 676 c 1,22,23
 325 717 325 717 334 771 c 128,-1,24
 343 825 343 825 345 890.5 c 128,-1,25
 347 956 347 956 347.5 1024 c 128,-1,26
 348 1092 348 1092 352.5 1159 c 128,-1,27
 357 1226 357 1226 375.5 1284.5 c 128,-1,28
 394 1343 394 1343 427 1388.5 c 128,-1,29
 460 1434 460 1434 522.5 1460 c 128,-1,30
 585 1486 585 1486 673 1486 c 1,31,-1
 689 1460 l 1,32,33
 618 1452 618 1452 573 1412 c 128,-1,34
 528 1372 528 1372 508.5 1311.5 c 128,-1,35
 489 1251 489 1251 480 1178 c 128,-1,36
 471 1105 471 1105 466 1025.5 c 128,-1,37
 461 946 461 946 452 874 c 128,-1,38
 443 802 443 802 416.5 737 c 128,-1,39
 390 672 390 672 345 634 c 0,40,41
 290 589 290 589 227 588 c 1,42,-1
 227 584 l 1,0,1
EndSplineSet
EndChar

StartChar: bar
Encoding: 124 124 95
Width: 1065
GlyphClass: 2
Flags: W
LayerCount: 2
Fore
SplineSet
962 1472 m 1,0,-1
 810 -342 l 1,1,-1
 709 -342 l 1,2,-1
 860 1472 l 1,3,-1
 962 1472 l 1,0,-1
EndSplineSet
EndChar

StartChar: braceright
Encoding: 125 125 96
Width: 491
GlyphClass: 2
Flags: W
LayerCount: 2
Fore
SplineSet
222 842 m 0,0,1
 222 907 222 907 241.5 1045.5 c 128,-1,2
 261 1184 261 1184 261 1245 c 0,3,4
 261 1448 261 1448 103 1471 c 1,5,-1
 117 1496 l 1,6,7
 263 1490 263 1490 322 1420.5 c 128,-1,8
 381 1351 381 1351 381 1235 c 0,9,10
 381 1160 381 1160 350.5 1002 c 128,-1,11
 320 844 320 844 320 770.5 c 128,-1,12
 320 697 320 697 355.5 658 c 128,-1,13
 391 619 391 619 448 619 c 2,14,-1
 459 619 l 1,15,-1
 440 565 l 1,16,-1
 412 563 l 2,17,18
 305 555 305 555 266 462 c 0,19,20
 232 380 232 380 232 249 c 2,21,-1
 232 43 l 2,22,23
 232 -101 232 -101 200 -183 c 128,-1,24
 168 -265 168 -265 94 -314 c 128,-1,25
 20 -363 20 -363 -85 -363 c 1,26,-1
 -72 -335 l 1,27,28
 1 -335 1 -335 41 -282.5 c 128,-1,29
 81 -230 81 -230 92 -141 c 128,-1,30
 103 -52 103 -52 105 42 c 0,31,32
 111 314 111 314 147 416 c 0,33,34
 173 489 173 489 241.5 539 c 128,-1,35
 310 589 310 589 377 589 c 0,36,37
 387 589 387 589 392 588 c 1,38,-1
 393 592 l 1,39,40
 304 601 304 601 263 671 c 128,-1,41
 222 741 222 741 222 842 c 0,0,1
EndSplineSet
EndChar

StartChar: asciitilde
Encoding: 126 126 97
Width: 1065
GlyphClass: 2
Flags: W
LayerCount: 2
Fore
SplineSet
746 548 m 0,0,1
 798 548 798 548 868.5 579 c 128,-1,2
 939 610 939 610 1001 655 c 1,3,-1
 1014 621 l 1,4,5
 851 444 851 444 733 444 c 0,6,7
 681 444 681 444 626 461.5 c 128,-1,8
 571 479 571 479 532 500 c 0,9,10
 431 557 431 557 360 557 c 0,11,12
 214 557 214 557 101 450 c 1,13,-1
 88 484 l 1,14,15
 249 661 249 661 370 661 c 0,16,17
 440 661 440 661 546.5 604.5 c 128,-1,18
 653 548 653 548 746 548 c 0,0,1
EndSplineSet
EndChar

StartChar: exclamdown
Encoding: 161 161 99
Width: 573
GlyphClass: 2
Flags: W
LayerCount: 2
Fore
SplineSet
577 688.5 m 128,-1,1
 545 646 545 646 504.5 646 c 128,-1,2
 464 646 464 646 439 681 c 128,-1,3
 414 716 414 716 414 764.5 c 128,-1,4
 414 813 414 813 448.5 853.5 c 128,-1,5
 483 894 483 894 519.5 894 c 128,-1,6
 556 894 556 894 582.5 858.5 c 128,-1,7
 609 823 609 823 609 777 c 128,-1,0
 609 731 609 731 577 688.5 c 128,-1,1
445 533 m 1,8,-1
 504 533 l 1,9,10
 425 0 425 0 363 -541 c 1,11,-1
 190 -578 l 1,12,-1
 445 533 l 1,8,-1
EndSplineSet
EndChar

StartChar: cent
Encoding: 162 162 100
Width: 901
GlyphClass: 2
Flags: W
LayerCount: 2
Fore
SplineSet
360 -18 m 0,0,1
 274 -18 274 -18 231 51 c 128,-1,2
 188 120 188 120 188 224 c 0,3,4
 188 402 188 402 280 591.5 c 128,-1,5
 372 781 372 781 496 856 c 1,6,-1
 513 1074 l 1,7,-1
 560 1074 l 1,8,-1
 544 878 l 1,9,10
 580 892 580 892 611 892 c 0,11,12
 693 892 693 892 741 850 c 1,13,14
 741 824 741 824 723 794 c 128,-1,15
 705 764 705 764 676 747 c 1,16,17
 615 808 615 808 551 808 c 0,18,19
 543 808 543 808 539 807 c 1,20,-1
 481 81 l 1,21,22
 541 103 541 103 601 158 c 128,-1,23
 661 213 661 213 709 295 c 1,24,-1
 726 281 l 1,25,26
 615 78 615 78 476 10 c 1,27,-1
 460 -188 l 1,28,-1
 413 -188 l 1,29,-1
 427 -7 l 1,30,31
 392 -18 392 -18 360 -18 c 0,0,1
410 68 m 0,32,33
 417 68 417 68 433 70 c 1,34,-1
 491 797 l 1,35,36
 400 759 400 759 356 608 c 128,-1,37
 312 457 312 457 312 262.5 c 128,-1,38
 312 68 312 68 410 68 c 0,32,33
EndSplineSet
EndChar

StartChar: sterling
Encoding: 163 163 101
Width: 983
GlyphClass: 2
Flags: W
LayerCount: 2
Fore
SplineSet
764 -133 m 0,0,1
 691 -133 691 -133 623.5 -111 c 128,-1,2
 556 -89 556 -89 511 -63 c 128,-1,3
 466 -37 466 -37 398.5 -15 c 128,-1,4
 331 7 331 7 271 7 c 128,-1,5
 211 7 211 7 125 -1 c 1,6,-1
 125 40 l 1,7,8
 268 75 268 75 340 178 c 0,9,10
 404 268 404 268 425 430 c 0,11,12
 434 499 434 499 438 590 c 1,13,-1
 235 590 l 1,14,15
 261 648 261 648 304 670 c 1,16,-1
 443 670 l 1,17,-1
 443 789 l 2,18,19
 443 956 443 956 507 1082 c 0,20,21
 542 1151 542 1151 594.5 1201.5 c 128,-1,22
 647 1252 647 1252 729 1283 c 128,-1,23
 811 1314 811 1314 914 1314 c 0,24,25
 973 1314 973 1314 1030 1299.5 c 128,-1,26
 1087 1285 1087 1285 1122 1263 c 1,27,28
 1113 1204 1113 1204 1064 1150 c 1,29,30
 928 1236 928 1236 796 1236 c 0,31,32
 584 1236 584 1236 584 897 c 2,33,-1
 584 670 l 1,34,-1
 722 670 l 2,35,36
 801 670 801 670 859 686 c 1,37,-1
 868 676 l 1,38,39
 826 626 826 626 798 608 c 128,-1,40
 770 590 770 590 734 590 c 2,41,-1
 581 590 l 1,42,43
 569 402 569 402 513 275.5 c 128,-1,44
 457 149 457 149 321 60 c 1,45,-1
 323 56 l 1,46,47
 348 62 348 62 394 62 c 0,48,49
 486 62 486 62 634 23.5 c 128,-1,50
 782 -15 782 -15 842.5 -15 c 128,-1,51
 903 -15 903 -15 940.5 17 c 128,-1,52
 978 49 978 49 986 106 c 1,53,-1
 1022 108 l 1,54,55
 1022 -6 1022 -6 954 -69.5 c 128,-1,56
 886 -133 886 -133 764 -133 c 0,0,1
EndSplineSet
EndChar

StartChar: currency
Encoding: 164 164 102
Width: 1229
GlyphClass: 2
Flags: W
LayerCount: 2
Fore
SplineSet
389 423.5 m 128,-1,1
 370 480 370 480 370 551.5 c 128,-1,2
 370 623 370 623 387 679.5 c 128,-1,3
 404 736 404 736 455 801 c 1,4,-1
 362 893 l 1,5,-1
 433 965 l 1,6,-1
 526 872 l 1,7,8
 642 961 642 961 777 961 c 128,-1,9
 912 961 912 961 1031 872 c 1,10,-1
 1123 965 l 1,11,-1
 1192 893 l 1,12,-1
 1101 801 l 1,13,14
 1149 737 1149 737 1169.5 679 c 128,-1,15
 1190 621 1190 621 1190 550 c 128,-1,16
 1190 479 1190 479 1169.5 421.5 c 128,-1,17
 1149 364 1149 364 1101 303 c 1,18,-1
 1192 211 l 1,19,-1
 1123 139 l 1,20,-1
 1031 231 l 1,21,22
 916 139 916 139 780 139 c 128,-1,23
 644 139 644 139 526 231 c 1,24,-1
 433 139 l 1,25,-1
 362 211 l 1,26,-1
 455 303 l 1,27,0
 408 367 408 367 389 423.5 c 128,-1,1
991.5 762.5 m 128,-1,29
 903 851 903 851 780.5 851 c 128,-1,30
 658 851 658 851 569 763 c 128,-1,31
 480 675 480 675 480 550 c 128,-1,32
 480 425 480 425 568.5 336.5 c 128,-1,33
 657 248 657 248 780 248 c 128,-1,34
 903 248 903 248 991.5 337 c 128,-1,35
 1080 426 1080 426 1080 550 c 128,-1,28
 1080 674 1080 674 991.5 762.5 c 128,-1,29
EndSplineSet
EndChar

StartChar: yen
Encoding: 165 165 103
Width: 1475
GlyphClass: 2
Flags: W
LayerCount: 2
Fore
SplineSet
275 910 m 1,0,-1
 276 876 l 1,1,2
 260 852 260 852 225.5 834 c 128,-1,3
 191 816 191 816 155 811 c 1,4,5
 154 824 154 824 154 847 c 0,6,7
 154 1071 154 1071 277 1206 c 128,-1,8
 400 1341 400 1341 617 1341 c 0,9,10
 765 1341 765 1341 855 1240 c 0,11,12
 943 1140 943 1140 980 985 c 1,13,14
 1016 829 1016 829 1016 652 c 0,15,16
 1016 582 1016 582 999 488 c 1,17,-1
 1008 486 l 1,18,19
 1082 568 1082 568 1136.5 635.5 c 128,-1,20
 1191 703 1191 703 1248 788 c 0,21,22
 1364 963 1364 963 1364 1115 c 0,23,24
 1364 1227 1364 1227 1253 1227 c 0,25,26
 1248 1227 1248 1227 1248 1235.5 c 128,-1,27
 1248 1244 1248 1244 1264.5 1270.5 c 128,-1,28
 1281 1297 1281 1297 1293 1308.5 c 128,-1,29
 1305 1320 1305 1320 1338.5 1320 c 128,-1,30
 1372 1320 1372 1320 1432 1301.5 c 128,-1,31
 1492 1283 1492 1283 1492 1247 c 0,32,33
 1492 997 1492 997 1246 670 c 1,34,-1
 1458 670 l 2,35,36
 1537 670 1537 670 1595 686 c 1,37,-1
 1604 676 l 1,38,39
 1562 626 1562 626 1535 608 c 128,-1,40
 1508 590 1508 590 1472 590 c 2,41,-1
 1182 590 l 1,42,43
 1170 575 1170 575 1046 440 c 1,44,-1
 1350 440 l 2,45,46
 1429 440 1429 440 1487 456 c 1,47,-1
 1496 446 l 1,48,49
 1454 396 1454 396 1426 378 c 128,-1,50
 1398 360 1398 360 1362 360 c 2,51,-1
 979 360 l 1,52,53
 864 228 864 228 807 125 c 128,-1,54
 750 22 750 22 750 -89 c 0,55,56
 750 -158 750 -158 779 -196 c 128,-1,57
 808 -234 808 -234 853.5 -234 c 128,-1,58
 899 -234 899 -234 965.5 -209 c 128,-1,59
 1032 -184 1032 -184 1090 -158.5 c 128,-1,60
 1148 -133 1148 -133 1172 -133 c 0,61,62
 1194 -133 1194 -133 1203.5 -174 c 128,-1,63
 1213 -215 1213 -215 1213 -265 c 1,64,65
 1044 -306 1044 -306 882 -306 c 0,66,67
 782 -306 782 -306 729.5 -253 c 128,-1,68
 677 -200 677 -200 677 -98 c 0,69,70
 677 23 677 23 744 145 c 0,71,72
 779 210 779 210 803 248.5 c 128,-1,73
 827 287 827 287 878 360 c 1,74,-1
 463 360 l 1,75,76
 487 412 487 412 542 440 c 1,77,-1
 884 440 l 1,78,-1
 884 590 l 1,79,-1
 543 590 l 1,80,81
 567 642 567 642 622 670 c 1,82,-1
 877 670 l 1,83,84
 859 957 859 957 770.5 1104.5 c 128,-1,85
 682 1252 682 1252 503 1252 c 0,86,87
 379 1252 379 1252 327 1163.5 c 128,-1,88
 275 1075 275 1075 275 910 c 1,0,-1
EndSplineSet
EndChar

StartChar: brokenbar
Encoding: 166 166 104
Width: 1065
GlyphClass: 2
Flags: W
LayerCount: 2
Fore
SplineSet
820 -340 m 1,0,-1
 719 -340 l 1,1,-1
 780 400 l 1,2,-1
 881 400 l 1,3,-1
 820 -340 l 1,0,-1
972 1474 m 1,4,-1
 916 817 l 1,5,-1
 815 817 l 1,6,-1
 870 1474 l 1,7,-1
 972 1474 l 1,4,-1
EndSplineSet
EndChar

StartChar: section
Encoding: 167 167 105
Width: 860
GlyphClass: 2
Flags: W
LayerCount: 2
Fore
SplineSet
700 1411 m 0,0,1
 807 1411 807 1411 880 1363 c 128,-1,2
 953 1315 953 1315 953 1255 c 0,3,4
 953 1232 953 1232 937 1217 c 128,-1,5
 921 1202 921 1202 898 1202 c 128,-1,6
 875 1202 875 1202 859 1211.5 c 128,-1,7
 843 1221 843 1221 817 1251 c 0,8,9
 733 1345 733 1345 655 1345 c 0,10,11
 595 1345 595 1345 560.5 1304 c 128,-1,12
 526 1263 526 1263 526 1194 c 128,-1,13
 526 1125 526 1125 571 975 c 128,-1,14
 616 825 616 825 668 653.5 c 128,-1,15
 720 482 720 482 730 401 c 128,-1,16
 740 320 740 320 740 266 c 0,17,18
 740 -9 740 -9 574 -193 c 0,19,20
 417 -368 417 -368 203 -368 c 0,21,22
 99 -368 99 -368 14 -326.5 c 128,-1,23
 -71 -285 -71 -285 -71 -222 c 0,24,25
 -71 -198 -71 -198 -57 -183 c 128,-1,26
 -43 -168 -43 -168 -23.5 -168 c 128,-1,27
 -4 -168 -4 -168 9.5 -175 c 128,-1,28
 23 -182 23 -182 74 -218 c 0,29,30
 185 -298 185 -298 258 -298 c 128,-1,31
 331 -298 331 -298 373.5 -241.5 c 128,-1,32
 416 -185 416 -185 416 -78 c 128,-1,33
 416 29 416 29 384 154 c 128,-1,34
 352 279 352 279 313.5 379 c 128,-1,35
 275 479 275 479 243 605.5 c 128,-1,36
 211 732 211 732 211 848.5 c 128,-1,37
 211 965 211 965 259 1085 c 0,38,39
 323 1245 323 1245 437.5 1328 c 128,-1,40
 552 1411 552 1411 700 1411 c 0,0,1
468 1276 m 1,41,42
 308 1095 308 1095 308 882 c 0,43,44
 308 777 308 777 332.5 666 c 128,-1,45
 357 555 357 555 388 466 c 0,46,47
 498 146 498 146 498 -18 c 0,48,49
 498 -110 498 -110 469 -217 c 1,50,51
 561 -119 561 -119 602.5 -17.5 c 128,-1,52
 644 84 644 84 644 214 c 0,53,54
 644 278 644 278 634.5 356.5 c 128,-1,55
 625 435 625 435 535.5 731 c 128,-1,56
 446 1027 446 1027 446 1137 c 0,57,58
 446 1209 446 1209 468 1276 c 1,41,42
EndSplineSet
EndChar

StartChar: dieresis
Encoding: 168 168 106
Width: 737
GlyphClass: 2
Flags: W
LayerCount: 2
Fore
SplineSet
426 1167 m 1,0,-1
 506 1251 l 1,1,2
 562 1211 562 1211 585 1163 c 1,3,4
 560 1112 560 1112 507 1071 c 1,5,6
 456 1113 456 1113 426 1167 c 1,0,-1
699 1167 m 1,7,-1
 779 1251 l 1,8,9
 835 1211 835 1211 858 1163 c 1,10,11
 833 1112 833 1112 780 1071 c 1,12,13
 729 1113 729 1113 699 1167 c 1,7,-1
EndSplineSet
EndChar

StartChar: copyright
Encoding: 169 169 107
Width: 1515
GlyphClass: 2
Flags: W
LayerCount: 2
Fore
SplineSet
994 1281 m 0,0,1
 1120 1281 1120 1281 1226 1233 c 128,-1,2
 1332 1185 1332 1185 1400 1106 c 128,-1,3
 1468 1027 1468 1027 1506 928.5 c 128,-1,4
 1544 830 1544 830 1544 727 c 0,5,6
 1544 513 1544 513 1460.5 349.5 c 128,-1,7
 1377 186 1377 186 1217.5 93.5 c 128,-1,8
 1058 1 1058 1 843 1 c 0,9,10
 727 1 727 1 624 50 c 128,-1,11
 521 99 521 99 452 178 c 128,-1,12
 383 257 383 257 343 355.5 c 128,-1,13
 303 454 303 454 303 554 c 0,14,15
 303 869 303 869 476 1070 c 0,16,17
 560 1169 560 1169 693 1225 c 128,-1,18
 826 1281 826 1281 994 1281 c 0,0,1
942 1193 m 0,19,20
 804 1193 804 1193 695 1147.5 c 128,-1,21
 586 1102 586 1102 520 1025 c 0,22,23
 387 870 387 870 387 655 c 0,24,25
 387 478 387 478 473 334 c 0,26,27
 565 181 565 181 718 121 c 0,28,29
 801 89 801 89 896 89 c 0,30,31
 1036 89 1036 89 1145.5 134.5 c 128,-1,32
 1255 180 1255 180 1322 257 c 0,33,34
 1456 413 1456 413 1456 628 c 0,35,36
 1456 805 1456 805 1370 948 c 0,37,38
 1277 1101 1277 1101 1122 1161 c 0,39,40
 1038 1193 1038 1193 942 1193 c 0,19,20
792 981 m 128,-1,42
 871 1015 871 1015 954 1015 c 128,-1,43
 1037 1015 1037 1015 1102.5 994 c 128,-1,44
 1168 973 1168 973 1187 946 c 1,45,-1
 1187 824 l 1,46,-1
 1157 824 l 1,47,48
 1150 872 1150 872 1112 912 c 0,49,50
 1064 961 1064 961 954.5 961 c 128,-1,51
 845 961 845 961 775.5 875 c 128,-1,52
 706 789 706 789 706 655 c 128,-1,53
 706 521 706 521 776.5 424 c 128,-1,54
 847 327 847 327 975 327 c 0,55,56
 1061 327 1061 327 1114 373 c 1,57,58
 1156 408 1156 408 1186 456 c 1,59,-1
 1214 456 l 1,60,-1
 1187 333 l 1,61,62
 1167 312 1167 312 1092 292.5 c 128,-1,63
 1017 273 1017 273 947 273 c 128,-1,64
 877 273 877 273 809 295 c 128,-1,65
 741 317 741 317 687 362 c 128,-1,66
 633 407 633 407 602 482.5 c 128,-1,67
 571 558 571 558 571 658 c 0,68,69
 571 784 571 784 666 894 c 0,70,41
 713 947 713 947 792 981 c 128,-1,42
EndSplineSet
EndChar

StartChar: ordfeminine
Encoding: 170 170 108
Width: 532
GlyphClass: 2
Flags: W
LayerCount: 2
Fore
SplineSet
516 742 m 0,0,1
 484 742 484 742 484 794 c 0,2,3
 484 830 484 830 505.5 922 c 128,-1,4
 527 1014 527 1014 535 1055 c 1,5,-1
 521 1057 l 1,6,7
 503 1007 503 1007 467 937.5 c 128,-1,8
 431 868 431 868 379.5 805.5 c 128,-1,9
 328 743 328 743 290 743 c 0,10,11
 217 743 217 743 217 935 c 0,12,13
 217 1086 217 1086 288 1219 c 0,14,15
 324 1285 324 1285 385 1326.5 c 128,-1,16
 446 1368 446 1368 523 1368 c 128,-1,17
 600 1368 600 1368 667 1362 c 1,18,19
 641 1099 641 1099 572 830 c 1,20,-1
 579 823 l 1,21,22
 634 849 634 849 711 924 c 1,23,-1
 731 903 l 1,24,25
 681 840 681 840 618 791 c 128,-1,26
 555 742 555 742 516 742 c 0,0,1
467 1298 m 0,27,28
 413 1298 413 1298 376 1251 c 0,29,30
 313 1169 313 1169 313 1017 c 128,-1,31
 313 865 313 865 335 865 c 0,32,33
 370 865 370 865 415 937 c 128,-1,34
 460 1009 460 1009 494.5 1105.5 c 128,-1,35
 529 1202 529 1202 544 1285 c 1,36,37
 502 1298 502 1298 467 1298 c 0,27,28
EndSplineSet
EndChar

StartChar: guillemotleft
Encoding: 171 171 109
Width: 696
GlyphClass: 2
Flags: W
LayerCount: 2
Fore
SplineSet
741 117 m 1,0,-1
 653 26 l 1,1,2
 614 105 614 105 537 206.5 c 128,-1,3
 460 308 460 308 357 400 c 1,4,5
 478 489 478 489 576 590.5 c 128,-1,6
 674 692 674 692 732 774 c 1,7,-1
 791 666 l 1,8,9
 751 621 751 621 647.5 538 c 128,-1,10
 544 455 544 455 461 401 c 1,11,12
 533 344 533 344 621 255 c 128,-1,13
 709 166 709 166 741 117 c 1,0,-1
419 117 m 1,14,-1
 331 26 l 1,15,16
 292 105 292 105 215 206.5 c 128,-1,17
 138 308 138 308 35 400 c 1,18,19
 156 489 156 489 254 590.5 c 128,-1,20
 352 692 352 692 410 774 c 1,21,-1
 469 666 l 1,22,23
 429 621 429 621 325.5 538 c 128,-1,24
 222 455 222 455 139 401 c 1,25,26
 211 344 211 344 299 255 c 128,-1,27
 387 166 387 166 419 117 c 1,14,-1
EndSplineSet
EndChar

StartChar: logicalnot
Encoding: 172 172 110
Width: 1229
GlyphClass: 2
Flags: W
LayerCount: 2
Fore
SplineSet
1173 674 m 1,0,-1
 1173 110 l 1,1,-1
 1026 110 l 1,2,-1
 1026 548 l 1,3,-1
 198 548 l 1,4,-1
 241 674 l 1,5,-1
 1173 674 l 1,0,-1
EndSplineSet
EndChar

StartChar: uni00AD
Encoding: 173 173 111
Width: 573
GlyphClass: 2
Flags: W
LayerCount: 2
Fore
SplineSet
193 533 m 1,0,1
 486 533 486 533 692 560 c 1,2,-1
 632 456 l 1,3,4
 427 431 427 431 138 431 c 1,5,-1
 193 533 l 1,0,1
EndSplineSet
EndChar

StartChar: registered
Encoding: 174 174 112
Width: 1515
GlyphClass: 2
Flags: W
LayerCount: 2
Fore
SplineSet
842 1006.5 m 128,-1,1
 926 1015 926 1015 963 1015 c 128,-1,2
 1000 1015 1000 1015 1040.5 1004.5 c 128,-1,3
 1081 994 1081 994 1117.5 971 c 128,-1,4
 1154 948 1154 948 1175.5 905.5 c 128,-1,5
 1197 863 1197 863 1197 805 c 0,6,7
 1197 639 1197 639 1013 605 c 1,8,-1
 1004 592 l 1,9,10
 1011 582 1011 582 1044.5 534 c 128,-1,11
 1078 486 1078 486 1088.5 471.5 c 128,-1,12
 1099 457 1099 457 1127 420 c 128,-1,13
 1155 383 1155 383 1171 366 c 0,14,15
 1219 313 1219 313 1256 286 c 1,16,-1
 1221 236 l 1,17,18
 1038 354 1038 354 846 631 c 1,19,-1
 854 638 l 1,20,21
 868 633 868 633 890 633 c 0,22,23
 987 633 987 633 1033 687 c 128,-1,24
 1079 741 1079 741 1079 815.5 c 128,-1,25
 1079 890 1079 890 1036.5 923 c 128,-1,26
 994 956 994 956 930.5 956 c 128,-1,27
 867 956 867 956 806 938 c 1,28,-1
 806 326 l 1,29,30
 816 321 816 321 856 313 c 1,31,-1
 856 282 l 1,32,-1
 617 282 l 1,33,-1
 617 313 l 1,34,35
 650 319 650 319 681 328 c 1,36,-1
 681 950 l 1,37,38
 655 960 655 960 617 967 c 1,39,-1
 617 998 l 1,40,-1
 698 998 l 2,41,0
 758 998 758 998 842 1006.5 c 128,-1,1
981 1281 m 0,42,43
 1107 1281 1107 1281 1213 1233 c 128,-1,44
 1319 1185 1319 1185 1387 1106 c 128,-1,45
 1455 1027 1455 1027 1493 928.5 c 128,-1,46
 1531 830 1531 830 1531 727 c 0,47,48
 1531 513 1531 513 1448 349.5 c 128,-1,49
 1365 186 1365 186 1205.5 93.5 c 128,-1,50
 1046 1 1046 1 831 1 c 0,51,52
 715 1 715 1 612 50 c 128,-1,53
 509 99 509 99 439.5 178 c 128,-1,54
 370 257 370 257 330 355.5 c 128,-1,55
 290 454 290 454 290 554 c 0,56,57
 290 869 290 869 462 1070 c 0,58,59
 547 1169 547 1169 680 1225 c 128,-1,60
 813 1281 813 1281 981 1281 c 0,42,43
929 1193 m 0,61,62
 791 1193 791 1193 682 1147.5 c 128,-1,63
 573 1102 573 1102 507 1024 c 0,64,65
 374 868 374 868 374 653 c 0,66,67
 374 546 374 546 408.5 446 c 128,-1,68
 443 346 443 346 506 266 c 128,-1,69
 569 186 569 186 667 137.5 c 128,-1,70
 765 89 765 89 880.5 89 c 128,-1,71
 996 89 996 89 1089.5 119 c 128,-1,72
 1183 149 1183 149 1247.5 200.5 c 128,-1,73
 1312 252 1312 252 1357 322 c 0,74,75
 1443 454 1443 454 1443 629 c 0,76,77
 1443 805 1443 805 1356 948 c 0,78,79
 1264 1101 1264 1101 1108 1161 c 0,80,81
 1025 1193 1025 1193 929 1193 c 0,61,62
EndSplineSet
EndChar

StartChar: macron
Encoding: 175 175 113
Width: 1024
GlyphClass: 2
Flags: W
LayerCount: 2
Fore
SplineSet
693 1187 m 1,0,-1
 1150 1187 l 1,1,-1
 1091 1111 l 1,2,-1
 633 1111 l 1,3,-1
 693 1187 l 1,0,-1
EndSplineSet
EndChar

StartChar: degree
Encoding: 176 176 114
Width: 819
GlyphClass: 2
Flags: W
LayerCount: 2
Fore
SplineSet
477 888.5 m 128,-1,1
 521 832 521 832 595 832 c 128,-1,2
 669 832 669 832 714.5 888.5 c 128,-1,3
 760 945 760 945 760 1043 c 128,-1,4
 760 1141 760 1141 714 1197 c 128,-1,5
 668 1253 668 1253 596 1253 c 128,-1,6
 524 1253 524 1253 478.5 1196.5 c 128,-1,7
 433 1140 433 1140 433 1042.5 c 128,-1,0
 433 945 433 945 477 888.5 c 128,-1,1
584 774 m 0,8,9
 482 774 482 774 407 845 c 128,-1,10
 332 916 332 916 332 1035 c 128,-1,11
 332 1154 332 1154 409.5 1232 c 128,-1,12
 487 1310 487 1310 601 1310 c 128,-1,13
 715 1310 715 1310 788 1241.5 c 128,-1,14
 861 1173 861 1173 861 1050.5 c 128,-1,15
 861 928 861 928 783.5 851 c 128,-1,16
 706 774 706 774 584 774 c 0,8,9
EndSplineSet
EndChar

StartChar: plusminus
Encoding: 177 177 115
Width: 1124
GlyphClass: 2
Flags: W
LayerCount: 2
Fore
SplineSet
737 717 m 1,0,-1
 1168 717 l 1,1,-1
 1132 610 l 1,2,-1
 744 610 l 1,3,-1
 744 236 l 1,4,-1
 633 236 l 1,5,-1
 633 610 l 1,6,-1
 215 610 l 1,7,-1
 251 717 l 1,8,-1
 626 717 l 1,9,-1
 626 1065 l 1,10,-1
 737 1103 l 1,11,-1
 737 717 l 1,0,-1
1112 4 m 1,12,-1
 192 4 l 1,13,-1
 225 102 l 1,14,-1
 1145 102 l 1,15,-1
 1112 4 l 1,12,-1
EndSplineSet
EndChar

StartChar: twosuperior
Encoding: 178 178 116
Width: 541
GlyphClass: 2
Flags: W
LayerCount: 2
Fore
SplineSet
336 1427 m 128,-1,1
 400 1473 400 1473 475.5 1473 c 128,-1,2
 551 1473 551 1473 600 1432 c 128,-1,3
 649 1391 649 1391 649 1320 c 0,4,5
 649 1230 649 1230 576 1137 c 0,6,7
 525 1073 525 1073 454 1002 c 128,-1,8
 383 931 383 931 361 907 c 1,9,-1
 361 899 l 1,10,-1
 523 899 l 2,11,12
 565 899 565 899 586.5 913 c 128,-1,13
 608 927 608 927 633 963 c 1,14,-1
 653 958 l 1,15,-1
 598 802 l 1,16,17
 508 810 508 810 468 810 c 2,18,-1
 209 810 l 1,19,-1
 203 835 l 1,20,21
 315 929 315 929 416 1051 c 0,22,23
 468 1115 468 1115 500.5 1180.5 c 128,-1,24
 533 1246 533 1246 533 1298 c 128,-1,25
 533 1350 533 1350 500.5 1380 c 128,-1,26
 468 1410 468 1410 427.5 1410 c 128,-1,27
 387 1410 387 1410 354.5 1376 c 128,-1,28
 322 1342 322 1342 322 1298 c 0,29,30
 322 1283 322 1283 330.5 1267.5 c 128,-1,31
 339 1252 339 1252 353.5 1252 c 128,-1,32
 368 1252 368 1252 375 1262 c 1,33,-1
 394 1244 l 1,34,35
 373 1215 373 1215 342.5 1215 c 128,-1,36
 312 1215 312 1215 292 1240.5 c 128,-1,37
 272 1266 272 1266 272 1306 c 0,38,0
 272 1381 272 1381 336 1427 c 128,-1,1
EndSplineSet
EndChar

StartChar: threesuperior
Encoding: 179 179 117
Width: 541
GlyphClass: 2
Flags: W
LayerCount: 2
Fore
SplineSet
314.5 1444 m 128,-1,1
 375 1476 375 1476 438.5 1476 c 128,-1,2
 502 1476 502 1476 550.5 1436 c 128,-1,3
 599 1396 599 1396 599 1326 c 0,4,5
 599 1217 599 1217 459 1174 c 1,6,7
 529 1166 529 1166 566 1118.5 c 128,-1,8
 603 1071 603 1071 603 1007 c 0,9,10
 603 905 603 905 524 850 c 128,-1,11
 445 795 445 795 341 795 c 128,-1,12
 237 795 237 795 171 836 c 1,13,14
 173 856 173 856 188.5 882 c 128,-1,15
 204 908 204 908 220 920 c 1,16,17
 287 849 287 849 353.5 849 c 128,-1,18
 420 849 420 849 457 888 c 128,-1,19
 494 927 494 927 494 986 c 128,-1,20
 494 1045 494 1045 450 1085 c 128,-1,21
 406 1125 406 1125 321 1125 c 1,22,-1
 318 1162 l 1,23,24
 390 1169 390 1169 438 1213 c 128,-1,25
 486 1257 486 1257 486 1308.5 c 128,-1,26
 486 1360 486 1360 455 1385 c 128,-1,27
 424 1410 424 1410 380 1410 c 128,-1,28
 336 1410 336 1410 294.5 1390.5 c 128,-1,29
 253 1371 253 1371 229 1342 c 1,30,-1
 221 1370 l 1,31,0
 254 1412 254 1412 314.5 1444 c 128,-1,1
EndSplineSet
EndChar

StartChar: acute
Encoding: 180 180 118
Width: 614
GlyphClass: 2
Flags: W
LayerCount: 2
Fore
SplineSet
660 1348 m 1,0,-1
 753 1332 l 1,1,2
 721 1239 721 1239 646 1173.5 c 128,-1,3
 571 1108 571 1108 476 1070 c 1,4,-1
 452 1094 l 1,5,6
 532 1146 532 1146 584 1206 c 128,-1,7
 636 1266 636 1266 660 1348 c 1,0,-1
EndSplineSet
EndChar

StartChar: mu
Encoding: 181 181 119
AltUni2: 0003bc.ffffffff.0
Width: 942
GlyphClass: 2
Flags: W
LayerCount: 2
Fore
SplineSet
484 888 m 0,0,1
 503 888 503 888 512.5 864.5 c 128,-1,2
 522 841 522 841 522 806 c 0,3,4
 522 691 522 691 483.5 451 c 128,-1,5
 445 211 445 211 445 118 c 0,6,7
 445 76 445 76 460 76 c 0,8,9
 496 76 496 76 541.5 109.5 c 128,-1,10
 587 143 587 143 635.5 211.5 c 128,-1,11
 684 280 684 280 724 371.5 c 128,-1,12
 764 463 764 463 789.5 594 c 128,-1,13
 815 725 815 725 815 869 c 0,14,15
 815 888 815 888 841 888 c 0,16,17
 891 888 891 888 907 873.5 c 128,-1,18
 923 859 923 859 923 815 c 0,19,20
 923 677 923 677 880 412 c 128,-1,21
 837 147 837 147 837 80 c 1,22,-1
 841 76 l 1,23,24
 901 98 901 98 958.5 167.5 c 128,-1,25
 1016 237 1016 237 1045 305 c 1,26,-1
 1067 294 l 1,27,28
 1033 204 1033 204 943 93 c 128,-1,29
 853 -18 853 -18 801 -18 c 0,30,31
 742 -18 742 -18 742 45 c 128,-1,32
 742 108 742 108 771 362 c 1,33,-1
 762 364 l 1,34,35
 700 199 700 199 613 99.5 c 128,-1,36
 526 0 526 0 425 -19 c 1,37,-1
 390 -302 l 1,38,39
 281 -355 281 -355 188 -380 c 1,40,41
 170 -346 170 -346 170 -343 c 1,42,43
 230 -301 230 -301 256 -252 c 128,-1,44
 282 -203 282 -203 295 -137 c 1,45,46
 322 26 322 26 363 352 c 128,-1,47
 404 678 404 678 421 793 c 1,48,-1
 416 802 l 1,49,50
 334 767 334 767 261 663 c 1,51,-1
 245 675 l 1,52,53
 298 784 298 784 387 850 c 0,54,55
 438 888 438 888 484 888 c 0,0,1
EndSplineSet
EndChar

StartChar: paragraph
Encoding: 182 182 120
Width: 1024
GlyphClass: 2
Flags: W
LayerCount: 2
Fore
SplineSet
308 -342 m 2,0,-1
 205 -342 l 1,1,2
 224 -259 224 -259 287 -229 c 1,3,4
 353 -246 353 -246 411 -246 c 128,-1,5
 469 -246 469 -246 493.5 -218.5 c 128,-1,6
 518 -191 518 -191 528 -104 c 2,7,-1
 561 193 l 1,8,9
 416 195 416 195 302 248 c 0,10,11
 234 280 234 280 184.5 329 c 128,-1,12
 135 378 135 378 103 461 c 128,-1,13
 71 544 71 544 71 656.5 c 128,-1,14
 71 769 71 769 118.5 866 c 128,-1,15
 166 963 166 963 247 1025 c 128,-1,16
 328 1087 328 1087 432 1121 c 128,-1,17
 536 1155 536 1155 663 1155 c 128,-1,18
 790 1155 790 1155 926 1105 c 1,19,20
 921 1031 921 1031 917 1031 c 1,21,22
 834 1058 834 1058 779 1067 c 1,23,24
 724 527 724 527 690 278 c 1,25,26
 768 281 768 281 843 294 c 1,27,-1
 832 220 l 1,28,29
 790 206 790 206 679 197 c 1,30,-1
 660 55 l 2,31,32
 606 -342 606 -342 308 -342 c 2,0,-1
321 658 m 0,33,34
 321 522 321 522 374 420 c 1,35,36
 431 307 431 307 571 283 c 1,37,-1
 658 1078 l 1,38,39
 497 1074 497 1074 409 955.5 c 128,-1,40
 321 837 321 837 321 658 c 0,33,34
EndSplineSet
EndChar

StartChar: periodcentered
Encoding: 183 183 121
Width: 682
GlyphClass: 2
Flags: W
LayerCount: 2
Fore
SplineSet
347 851 m 0,0,1
 417 851 417 851 417 750 c 0,2,3
 417 689 417 689 389 651 c 128,-1,4
 361 613 361 613 317 613 c 0,5,6
 287 613 287 613 267.5 637.5 c 128,-1,7
 248 662 248 662 248 715.5 c 128,-1,8
 248 769 248 769 275 810 c 128,-1,9
 302 851 302 851 347 851 c 0,0,1
EndSplineSet
EndChar

StartChar: cedilla
Encoding: 184 184 122
Width: 614
GlyphClass: 2
Flags: W
LayerCount: 2
Fore
SplineSet
296 -91 m 1,0,1
 433 -134 433 -134 433 -231 c 0,2,3
 433 -282 433 -282 387.5 -323.5 c 128,-1,4
 342 -365 342 -365 270.5 -365 c 128,-1,5
 199 -365 199 -365 145 -305 c 1,6,7
 167 -262 167 -262 214 -242 c 1,8,9
 253 -312 253 -312 316 -312 c 0,10,11
 344 -312 344 -312 356 -299.5 c 128,-1,12
 368 -287 368 -287 366 -266 c 0,13,14
 361 -225 361 -225 316.5 -185 c 128,-1,15
 272 -145 272 -145 212 -141 c 1,16,-1
 203 -124 l 1,17,-1
 334 3 l 1,18,-1
 392 2 l 1,19,20
 371 -19 371 -19 337.5 -51 c 128,-1,21
 304 -83 304 -83 296 -91 c 1,0,1
EndSplineSet
EndChar

StartChar: onesuperior
Encoding: 185 185 123
Width: 541
GlyphClass: 2
Flags: W
LayerCount: 2
Fore
SplineSet
525 1331 m 0,0,1
 461 900 461 900 461 883.5 c 128,-1,2
 461 867 461 867 467 860.5 c 128,-1,3
 473 854 473 854 486 850.5 c 128,-1,4
 499 847 499 847 512 846 c 2,5,-1
 548 842 l 2,6,7
 571 839 571 839 588 836 c 1,8,-1
 581 802 l 1,9,10
 522 807 522 807 411 807 c 128,-1,11
 300 807 300 807 212 801 c 1,12,-1
 216 832 l 1,13,14
 287 846 287 846 317 864.5 c 128,-1,15
 347 883 347 883 355 930 c 0,16,17
 419 1293 419 1293 419 1349 c 1,18,19
 361 1331 361 1331 294 1307 c 1,20,-1
 283 1333 l 1,21,22
 418 1406 418 1406 497 1477 c 1,23,-1
 552 1472 l 1,24,25
 550 1460 550 1460 540 1411.5 c 128,-1,26
 530 1363 530 1363 525 1331 c 0,0,1
EndSplineSet
EndChar

StartChar: ordmasculine
Encoding: 186 186 124
Width: 532
GlyphClass: 2
Flags: W
LayerCount: 2
Fore
SplineSet
592 1378 m 0,0,1
 737 1378 737 1378 737 1171 c 0,2,3
 737 1063 737 1063 689.5 962.5 c 128,-1,4
 642 862 642 862 565 801.5 c 128,-1,5
 488 741 488 741 406 741 c 0,6,7
 264 741 264 741 264 933 c 0,8,9
 264 1034 264 1034 305 1135.5 c 128,-1,10
 346 1237 346 1237 423.5 1307.5 c 128,-1,11
 501 1378 501 1378 592 1378 c 0,0,1
536 1311 m 0,12,13
 490 1311 490 1311 456 1278.5 c 128,-1,14
 422 1246 422 1246 404 1194 c 0,15,16
 368 1093 368 1093 368 971 c 0,17,18
 368 812 368 812 457 812 c 0,19,20
 519 812 519 812 560 861.5 c 128,-1,21
 601 911 601 911 616 977 c 128,-1,22
 631 1043 631 1043 631 1120 c 0,23,24
 631 1311 631 1311 536 1311 c 0,12,13
EndSplineSet
EndChar

StartChar: guillemotright
Encoding: 187 187 125
Width: 778
GlyphClass: 2
Flags: W
LayerCount: 2
Fore
SplineSet
147 683 m 1,0,-1
 235 774 l 1,1,2
 274 695 274 695 351 593.5 c 128,-1,3
 428 492 428 492 531 400 c 1,4,5
 410 311 410 311 312 209.5 c 128,-1,6
 214 108 214 108 156 26 c 1,7,-1
 97 134 l 1,8,9
 137 179 137 179 240.5 262 c 128,-1,10
 344 345 344 345 427 399 c 1,11,12
 355 456 355 456 267 545 c 128,-1,13
 179 634 179 634 147 683 c 1,0,-1
469 683 m 1,14,-1
 557 774 l 1,15,16
 596 695 596 695 673 593.5 c 128,-1,17
 750 492 750 492 853 400 c 1,18,19
 732 311 732 311 634 209.5 c 128,-1,20
 536 108 536 108 478 26 c 1,21,-1
 419 134 l 1,22,23
 459 179 459 179 562.5 262 c 128,-1,24
 666 345 666 345 749 399 c 1,25,26
 677 456 677 456 589 545 c 128,-1,27
 501 634 501 634 469 683 c 1,14,-1
EndSplineSet
EndChar

StartChar: onequarter
Encoding: 188 188 126
Width: 1352
GlyphClass: 2
Flags: W
LayerCount: 2
Fore
SplineSet
1119 161 m 2,0,-1
 995 160 l 2,1,2
 962 160 962 160 951 161 c 1,3,-1
 945 182 l 1,4,5
 948 186 948 186 1092.5 358 c 128,-1,6
 1237 530 1237 530 1284 610 c 1,7,8
 1301 620 1301 620 1333.5 637.5 c 128,-1,9
 1366 655 1366 655 1381 664 c 1,10,-1
 1404 657 l 1,11,12
 1364 430 1364 430 1338 223 c 1,13,14
 1418 223 1418 223 1456 240 c 1,15,-1
 1465 228 l 1,16,17
 1433 192 1433 192 1403.5 175.5 c 128,-1,18
 1374 159 1374 159 1333 159 c 1,19,-1
 1313 0 l 1,20,-1
 1192 -12 l 1,21,-1
 1221 159 l 1,22,23
 1196 161 1196 161 1119 161 c 2,0,-1
1058 223 m 1,24,-1
 1224 223 l 1,25,-1
 1268 489 l 1,26,-1
 1057 227 l 1,27,-1
 1058 223 l 1,24,-1
587 876 m 0,28,29
 587 856 587 856 612 850 c 0,30,31
 630 845 630 845 663 842 c 128,-1,32
 696 839 696 839 712 836 c 1,33,-1
 705 802 l 1,34,35
 647 807 647 807 537.5 807 c 128,-1,36
 428 807 428 807 341 801 c 1,37,-1
 345 832 l 1,38,39
 415 845 415 845 444.5 863 c 128,-1,40
 474 881 474 881 482 928 c 0,41,42
 501 1035 501 1035 523 1177.5 c 128,-1,43
 545 1320 545 1320 545 1342 c 1,44,45
 480 1322 480 1322 422 1300 c 1,46,-1
 411 1326 l 1,47,48
 542 1396 542 1396 622 1468 c 1,49,-1
 676 1463 l 1,50,51
 673 1446 673 1446 663.5 1399.5 c 128,-1,52
 654 1353 654 1353 620.5 1134 c 128,-1,53
 587 915 587 915 587 876 c 0,28,29
1626 1474 m 1,54,-1
 412 0 l 1,55,-1
 293 0 l 1,56,-1
 1506 1474 l 1,57,-1
 1626 1474 l 1,54,-1
EndSplineSet
EndChar

StartChar: onehalf
Encoding: 189 189 127
Width: 1352
GlyphClass: 2
Flags: W
LayerCount: 2
Fore
SplineSet
1552 1474 m 1,0,-1
 338 0 l 1,1,-1
 219 0 l 1,2,-1
 1432 1474 l 1,3,-1
 1552 1474 l 1,0,-1
1311 325 m 0,4,5
 1259 258 1259 258 1187 187 c 128,-1,6
 1115 116 1115 116 1093 92 c 1,7,-1
 1094 84 l 1,8,-1
 1258 84 l 2,9,10
 1300 84 1300 84 1321 98 c 128,-1,11
 1342 112 1342 112 1368 148 c 1,12,-1
 1388 143 l 1,13,-1
 1332 -14 l 1,14,15
 1250 -6 1250 -6 1201 -6 c 2,16,-1
 939 -6 l 1,17,-1
 934 19 l 1,18,19
 1051 119 1051 119 1148 236 c 0,20,21
 1202 301 1202 301 1234.5 366.5 c 128,-1,22
 1267 432 1267 432 1267 485 c 128,-1,23
 1267 538 1267 538 1234.5 568.5 c 128,-1,24
 1202 599 1202 599 1161 599 c 128,-1,25
 1120 599 1120 599 1086.5 564.5 c 128,-1,26
 1053 530 1053 530 1053 486 c 0,27,28
 1053 471 1053 471 1062 455.5 c 128,-1,29
 1071 440 1071 440 1085.5 440 c 128,-1,30
 1100 440 1100 440 1107 450 c 1,31,-1
 1126 432 l 1,32,33
 1105 403 1105 403 1074 403 c 128,-1,34
 1043 403 1043 403 1023 428.5 c 128,-1,35
 1003 454 1003 454 1003 495 c 0,36,37
 1003 570 1003 570 1067.5 616.5 c 128,-1,38
 1132 663 1132 663 1206.5 663 c 128,-1,39
 1281 663 1281 663 1329 630 c 1,40,41
 1385 590 1385 590 1385 505 c 128,-1,42
 1385 420 1385 420 1311 325 c 0,4,5
523 876 m 2,43,-1
 523 866 l 1,44,45
 524 856 524 856 541 851 c 128,-1,46
 558 846 558 846 596 842 c 128,-1,47
 634 838 634 838 648 836 c 1,48,-1
 641 802 l 1,49,50
 583 807 583 807 473.5 807 c 128,-1,51
 364 807 364 807 277 801 c 1,52,-1
 281 832 l 1,53,54
 351 845 351 845 380.5 863 c 128,-1,55
 410 881 410 881 418 928 c 0,56,57
 437 1035 437 1035 459 1177.5 c 128,-1,58
 481 1320 481 1320 481 1342 c 1,59,60
 416 1322 416 1322 358 1300 c 1,61,-1
 347 1326 l 1,62,63
 478 1396 478 1396 558 1468 c 1,64,-1
 612 1463 l 1,65,66
 609 1446 609 1446 599.5 1399.5 c 128,-1,67
 590 1353 590 1353 556.5 1129 c 128,-1,68
 523 905 523 905 523 876 c 2,43,-1
EndSplineSet
EndChar

StartChar: threequarters
Encoding: 190 190 128
Width: 1352
GlyphClass: 2
Flags: W
LayerCount: 2
Fore
SplineSet
450 1407.5 m 128,-1,1
 508 1438 508 1438 568 1438 c 128,-1,2
 628 1438 628 1438 674 1400.5 c 128,-1,3
 720 1363 720 1363 720 1296 c 0,4,5
 720 1192 720 1192 587 1151 c 1,6,7
 654 1143 654 1143 689 1098 c 128,-1,8
 724 1053 724 1053 724 992 c 0,9,10
 724 895 724 895 648.5 842.5 c 128,-1,11
 573 790 573 790 474 790 c 128,-1,12
 375 790 375 790 313 829 c 1,13,14
 315 849 315 849 329.5 873.5 c 128,-1,15
 344 898 344 898 360 909 c 1,16,17
 421 842 421 842 489 842 c 0,18,19
 543 842 543 842 575 879 c 128,-1,20
 607 916 607 916 607 972 c 128,-1,21
 607 1028 607 1028 568.5 1066 c 128,-1,22
 530 1104 530 1104 456 1104 c 1,23,-1
 453 1139 l 1,24,25
 518 1146 518 1146 561.5 1188 c 128,-1,26
 605 1230 605 1230 605 1279 c 128,-1,27
 605 1328 605 1328 577.5 1352 c 128,-1,28
 550 1376 550 1376 510 1376 c 128,-1,29
 470 1376 470 1376 430.5 1357.5 c 128,-1,30
 391 1339 391 1339 368 1311 c 1,31,-1
 361 1337 l 1,32,0
 392 1377 392 1377 450 1407.5 c 128,-1,1
1056 161 m 2,33,-1
 932 160 l 2,34,35
 899 160 899 160 888 161 c 1,36,-1
 882 182 l 1,37,38
 885 186 885 186 1029.5 358 c 128,-1,39
 1174 530 1174 530 1221 610 c 1,40,41
 1278 643 1278 643 1324 661 c 1,42,-1
 1341 657 l 1,43,44
 1301 430 1301 430 1275 223 c 1,45,46
 1355 223 1355 223 1393 240 c 1,47,-1
 1402 228 l 1,48,49
 1370 192 1370 192 1340.5 175.5 c 128,-1,50
 1311 159 1311 159 1270 159 c 1,51,-1
 1250 0 l 1,52,-1
 1129 -12 l 1,53,-1
 1158 159 l 1,54,55
 1133 161 1133 161 1056 161 c 2,33,-1
995 223 m 1,56,-1
 1161 223 l 1,57,-1
 1205 489 l 1,58,-1
 994 227 l 1,59,-1
 995 223 l 1,56,-1
1582 1474 m 1,60,-1
 368 0 l 1,61,-1
 249 0 l 1,62,-1
 1462 1474 l 1,63,-1
 1582 1474 l 1,60,-1
EndSplineSet
EndChar

StartChar: questiondown
Encoding: 191 191 129
Width: 819
GlyphClass: 2
Flags: W
LayerCount: 2
Fore
SplineSet
728 392 m 0,0,1
 728 300 728 300 642 206 c 1,2,3
 603 165 603 165 556.5 122.5 c 128,-1,4
 510 80 510 80 463.5 34.5 c 128,-1,5
 417 -11 417 -11 378.5 -59 c 128,-1,6
 340 -107 340 -107 316 -167 c 128,-1,7
 292 -227 292 -227 292 -290 c 0,8,9
 292 -404 292 -404 347.5 -461 c 128,-1,10
 403 -518 403 -518 485.5 -518 c 128,-1,11
 568 -518 568 -518 645 -471 c 128,-1,12
 722 -424 722 -424 765 -346 c 1,13,-1
 789 -361 l 1,14,15
 738 -470 738 -470 628 -537.5 c 128,-1,16
 518 -605 518 -605 408 -605 c 128,-1,17
 298 -605 298 -605 227.5 -537.5 c 128,-1,18
 157 -470 157 -470 157 -335 c 0,19,20
 157 -256 157 -256 185.5 -184 c 128,-1,21
 214 -112 214 -112 259 -57.5 c 128,-1,22
 304 -3 304 -3 358 47 c 128,-1,23
 412 97 412 97 466.5 141 c 128,-1,24
 521 185 521 185 566 226 c 0,25,26
 666 320 666 320 666 410 c 0,27,28
 666 448 666 448 650 474 c 0,29,30
 643 485 643 485 630 502 c 1,31,-1
 673 511 l 1,32,33
 728 466 728 466 728 392 c 0,0,1
765 687 m 128,-1,35
 734 646 734 646 694.5 646 c 128,-1,36
 655 646 655 646 631 679.5 c 128,-1,37
 607 713 607 713 607 761 c 128,-1,38
 607 809 607 809 640.5 848 c 128,-1,39
 674 887 674 887 709.5 887 c 128,-1,40
 745 887 745 887 770.5 852.5 c 128,-1,41
 796 818 796 818 796 773 c 128,-1,34
 796 728 796 728 765 687 c 128,-1,35
EndSplineSet
EndChar

StartChar: Agrave
Encoding: 192 192 130
Width: 1270
GlyphClass: 2
Flags: W
LayerCount: 2
Fore
SplineSet
314 839 m 1,0,-1
 315 806 l 1,1,2
 300 783 300 783 266.5 766 c 128,-1,3
 233 749 233 749 199 744 c 1,4,5
 198 757 198 757 198 779 c 0,6,7
 198 1020 198 1020 349 1170 c 128,-1,8
 500 1320 500 1320 758 1320 c 0,9,10
 810 1320 810 1320 902 1315 c 128,-1,11
 994 1310 994 1310 1025 1310 c 128,-1,12
 1056 1310 1056 1310 1078 1313 c 1,13,-1
 1076 1293 l 1,14,15
 1013 1223 1013 1223 1013 925 c 0,16,17
 1013 592 1013 592 1039 360 c 0,18,19
 1053 236 1053 236 1079 164.5 c 128,-1,20
 1105 93 1105 93 1141 93 c 0,21,22
 1195 93 1195 93 1268 108 c 1,23,-1
 1275 93 l 1,24,25
 1162 2 1162 2 1084 -18 c 1,26,27
 996 -18 996 -18 954 104 c 0,28,29
 919 207 919 207 907 382 c 0,30,31
 904 427 904 427 900 491 c 1,32,-1
 594 491 l 1,33,-1
 395 109 l 2,34,35
 325 -25 325 -25 226.5 -93.5 c 128,-1,36
 128 -162 128 -162 -30 -162 c 0,37,38
 -68 -162 -68 -162 -110 -156 c 1,39,40
 -110 -69 -110 -69 -62 -38 c 1,41,42
 38 -76 38 -76 84 -76 c 0,43,44
 225 -76 225 -76 331 131 c 1,45,-1
 830 1117 l 2,46,47
 851 1159 851 1159 867.5 1182.5 c 128,-1,48
 884 1206 884 1206 904 1214 c 1,49,-1
 904 1219 l 1,50,51
 766 1225 766 1225 613.5 1225 c 128,-1,52
 461 1225 461 1225 387.5 1136 c 128,-1,53
 314 1047 314 1047 314 839 c 1,0,-1
895 557 m 1,54,55
 888 732 888 732 888 866.5 c 128,-1,56
 888 1001 888 1001 897 1091 c 1,57,-1
 892 1091 l 1,58,-1
 620 557 l 1,59,-1
 895 557 l 1,54,55
749 1706 m 1,60,-1
 842 1722 l 1,61,62
 890 1573 890 1573 1050 1468 c 1,63,-1
 1026 1444 l 1,64,65
 934 1476 934 1476 858 1543.5 c 128,-1,66
 782 1611 782 1611 749 1706 c 1,60,-1
EndSplineSet
EndChar

StartChar: Aacute
Encoding: 193 193 131
Width: 1270
GlyphClass: 2
Flags: W
LayerCount: 2
Fore
SplineSet
314 839 m 1,0,-1
 315 806 l 1,1,2
 300 783 300 783 266.5 766 c 128,-1,3
 233 749 233 749 199 744 c 1,4,5
 198 757 198 757 198 779 c 0,6,7
 198 1020 198 1020 349 1170 c 128,-1,8
 500 1320 500 1320 758 1320 c 0,9,10
 810 1320 810 1320 902 1315 c 128,-1,11
 994 1310 994 1310 1025 1310 c 128,-1,12
 1056 1310 1056 1310 1078 1313 c 1,13,-1
 1076 1293 l 1,14,15
 1013 1223 1013 1223 1013 925 c 0,16,17
 1013 592 1013 592 1039 360 c 0,18,19
 1053 236 1053 236 1079 164.5 c 128,-1,20
 1105 93 1105 93 1141 93 c 0,21,22
 1195 93 1195 93 1268 108 c 1,23,-1
 1275 93 l 1,24,25
 1162 2 1162 2 1084 -18 c 1,26,27
 996 -18 996 -18 954 104 c 0,28,29
 919 207 919 207 907 382 c 0,30,31
 904 427 904 427 900 491 c 1,32,-1
 594 491 l 1,33,-1
 395 109 l 2,34,35
 325 -25 325 -25 226.5 -93.5 c 128,-1,36
 128 -162 128 -162 -30 -162 c 0,37,38
 -68 -162 -68 -162 -110 -156 c 1,39,40
 -110 -69 -110 -69 -62 -38 c 1,41,42
 38 -76 38 -76 84 -76 c 0,43,44
 225 -76 225 -76 331 131 c 1,45,-1
 830 1117 l 2,46,47
 851 1159 851 1159 867.5 1182.5 c 128,-1,48
 884 1206 884 1206 904 1214 c 1,49,-1
 904 1219 l 1,50,51
 766 1225 766 1225 613.5 1225 c 128,-1,52
 461 1225 461 1225 387.5 1136 c 128,-1,53
 314 1047 314 1047 314 839 c 1,0,-1
895 557 m 1,54,55
 888 732 888 732 888 866.5 c 128,-1,56
 888 1001 888 1001 897 1091 c 1,57,-1
 892 1091 l 1,58,-1
 620 557 l 1,59,-1
 895 557 l 1,54,55
1083 1720 m 1,60,-1
 1176 1704 l 1,61,62
 1144 1611 1144 1611 1069 1545.5 c 128,-1,63
 994 1480 994 1480 899 1442 c 1,64,-1
 875 1466 l 1,65,66
 955 1518 955 1518 1007 1578 c 128,-1,67
 1059 1638 1059 1638 1083 1720 c 1,60,-1
EndSplineSet
EndChar

StartChar: Acircumflex
Encoding: 194 194 132
Width: 1270
GlyphClass: 2
Flags: W
LayerCount: 2
Fore
SplineSet
314 839 m 1,0,-1
 315 806 l 1,1,2
 300 783 300 783 266.5 766 c 128,-1,3
 233 749 233 749 199 744 c 1,4,5
 198 757 198 757 198 779 c 0,6,7
 198 1020 198 1020 349 1170 c 128,-1,8
 500 1320 500 1320 758 1320 c 0,9,10
 810 1320 810 1320 902 1315 c 128,-1,11
 994 1310 994 1310 1025 1310 c 128,-1,12
 1056 1310 1056 1310 1078 1313 c 1,13,-1
 1076 1293 l 1,14,15
 1013 1223 1013 1223 1013 925 c 0,16,17
 1013 592 1013 592 1039 360 c 0,18,19
 1053 236 1053 236 1079 164.5 c 128,-1,20
 1105 93 1105 93 1141 93 c 0,21,22
 1195 93 1195 93 1268 108 c 1,23,-1
 1275 93 l 1,24,25
 1162 2 1162 2 1084 -18 c 1,26,27
 996 -18 996 -18 954 104 c 0,28,29
 919 207 919 207 907 382 c 0,30,31
 904 427 904 427 900 491 c 1,32,-1
 594 491 l 1,33,-1
 395 109 l 2,34,35
 325 -25 325 -25 226.5 -93.5 c 128,-1,36
 128 -162 128 -162 -30 -162 c 0,37,38
 -68 -162 -68 -162 -110 -156 c 1,39,40
 -110 -69 -110 -69 -62 -38 c 1,41,42
 38 -76 38 -76 84 -76 c 0,43,44
 225 -76 225 -76 331 131 c 1,45,-1
 830 1117 l 2,46,47
 851 1159 851 1159 867.5 1182.5 c 128,-1,48
 884 1206 884 1206 904 1214 c 1,49,-1
 904 1219 l 1,50,51
 766 1225 766 1225 613.5 1225 c 128,-1,52
 461 1225 461 1225 387.5 1136 c 128,-1,53
 314 1047 314 1047 314 839 c 1,0,-1
895 557 m 1,54,55
 888 732 888 732 888 866.5 c 128,-1,56
 888 1001 888 1001 897 1091 c 1,57,-1
 892 1091 l 1,58,-1
 620 557 l 1,59,-1
 895 557 l 1,54,55
996 1709 m 1,60,61
 1022 1713 1022 1713 1042.5 1713 c 128,-1,62
 1063 1713 1063 1713 1087 1702 c 1,63,64
 1087 1583 1087 1583 1199 1476 c 1,65,-1
 1180 1451 l 1,66,67
 1071 1505 1071 1505 1020 1601 c 1,68,-1
 1016 1601 l 1,69,70
 983 1555 983 1555 924 1516 c 128,-1,71
 865 1477 865 1477 800 1455 c 1,72,-1
 783 1477 l 1,73,74
 954 1575 954 1575 996 1709 c 1,60,61
EndSplineSet
EndChar

StartChar: Atilde
Encoding: 195 195 133
Width: 1270
GlyphClass: 2
Flags: W
LayerCount: 2
Fore
SplineSet
314 839 m 1,0,-1
 315 806 l 1,1,2
 300 783 300 783 266.5 766 c 128,-1,3
 233 749 233 749 199 744 c 1,4,5
 198 757 198 757 198 779 c 0,6,7
 198 1020 198 1020 349 1170 c 128,-1,8
 500 1320 500 1320 758 1320 c 0,9,10
 810 1320 810 1320 902 1315 c 128,-1,11
 994 1310 994 1310 1025 1310 c 128,-1,12
 1056 1310 1056 1310 1078 1313 c 1,13,-1
 1076 1293 l 1,14,15
 1013 1223 1013 1223 1013 925 c 0,16,17
 1013 592 1013 592 1039 360 c 0,18,19
 1053 236 1053 236 1079 164.5 c 128,-1,20
 1105 93 1105 93 1141 93 c 0,21,22
 1195 93 1195 93 1268 108 c 1,23,-1
 1275 93 l 1,24,25
 1162 2 1162 2 1084 -18 c 1,26,27
 996 -18 996 -18 954 104 c 0,28,29
 919 207 919 207 907 382 c 0,30,31
 904 427 904 427 900 491 c 1,32,-1
 594 491 l 1,33,-1
 395 109 l 2,34,35
 325 -25 325 -25 226.5 -93.5 c 128,-1,36
 128 -162 128 -162 -30 -162 c 0,37,38
 -68 -162 -68 -162 -110 -156 c 1,39,40
 -110 -69 -110 -69 -62 -38 c 1,41,42
 38 -76 38 -76 84 -76 c 0,43,44
 225 -76 225 -76 331 131 c 1,45,-1
 830 1117 l 2,46,47
 851 1159 851 1159 867.5 1182.5 c 128,-1,48
 884 1206 884 1206 904 1214 c 1,49,-1
 904 1219 l 1,50,51
 766 1225 766 1225 613.5 1225 c 128,-1,52
 461 1225 461 1225 387.5 1136 c 128,-1,53
 314 1047 314 1047 314 839 c 1,0,-1
895 557 m 1,54,55
 888 732 888 732 888 866.5 c 128,-1,56
 888 1001 888 1001 897 1091 c 1,57,-1
 892 1091 l 1,58,-1
 620 557 l 1,59,-1
 895 557 l 1,54,55
977 1526 m 128,-1,61
 907 1553 907 1553 868 1553 c 128,-1,62
 829 1553 829 1553 802 1539 c 128,-1,63
 775 1525 775 1525 743 1494 c 1,64,-1
 729 1512 l 1,65,66
 807 1609 807 1609 902 1640 c 1,67,68
 938 1640 938 1640 1016 1612.5 c 128,-1,69
 1094 1585 1094 1585 1127.5 1585 c 128,-1,70
 1161 1585 1161 1585 1185.5 1594.5 c 128,-1,71
 1210 1604 1210 1604 1239 1627 c 1,72,-1
 1251 1613 l 1,73,74
 1171 1517 1171 1517 1084 1499 c 1,75,60
 1047 1499 1047 1499 977 1526 c 128,-1,61
EndSplineSet
EndChar

StartChar: Adieresis
Encoding: 196 196 134
Width: 1270
GlyphClass: 2
Flags: W
LayerCount: 2
Fore
SplineSet
314 839 m 1,0,-1
 315 806 l 1,1,2
 300 783 300 783 266.5 766 c 128,-1,3
 233 749 233 749 199 744 c 1,4,5
 198 757 198 757 198 779 c 0,6,7
 198 1020 198 1020 349 1170 c 128,-1,8
 500 1320 500 1320 758 1320 c 0,9,10
 810 1320 810 1320 902 1315 c 128,-1,11
 994 1310 994 1310 1025 1310 c 128,-1,12
 1056 1310 1056 1310 1078 1313 c 1,13,-1
 1076 1293 l 1,14,15
 1013 1223 1013 1223 1013 925 c 0,16,17
 1013 592 1013 592 1039 360 c 0,18,19
 1053 236 1053 236 1079 164.5 c 128,-1,20
 1105 93 1105 93 1141 93 c 0,21,22
 1195 93 1195 93 1268 108 c 1,23,-1
 1275 93 l 1,24,25
 1162 2 1162 2 1084 -18 c 1,26,27
 996 -18 996 -18 954 104 c 0,28,29
 919 207 919 207 907 382 c 0,30,31
 904 427 904 427 900 491 c 1,32,-1
 594 491 l 1,33,-1
 395 109 l 2,34,35
 325 -25 325 -25 226.5 -93.5 c 128,-1,36
 128 -162 128 -162 -30 -162 c 0,37,38
 -68 -162 -68 -162 -110 -156 c 1,39,40
 -110 -69 -110 -69 -62 -38 c 1,41,42
 38 -76 38 -76 84 -76 c 0,43,44
 225 -76 225 -76 331 131 c 1,45,-1
 830 1117 l 2,46,47
 851 1159 851 1159 867.5 1182.5 c 128,-1,48
 884 1206 884 1206 904 1214 c 1,49,-1
 904 1219 l 1,50,51
 766 1225 766 1225 613.5 1225 c 128,-1,52
 461 1225 461 1225 387.5 1136 c 128,-1,53
 314 1047 314 1047 314 839 c 1,0,-1
895 557 m 1,54,55
 888 732 888 732 888 866.5 c 128,-1,56
 888 1001 888 1001 897 1091 c 1,57,-1
 892 1091 l 1,58,-1
 620 557 l 1,59,-1
 895 557 l 1,54,55
779 1579 m 1,60,-1
 859 1663 l 1,61,62
 915 1623 915 1623 938 1575 c 1,63,64
 913 1524 913 1524 860 1483 c 1,65,66
 809 1525 809 1525 779 1579 c 1,60,-1
1052 1579 m 1,67,-1
 1132 1663 l 1,68,69
 1188 1623 1188 1623 1211 1575 c 1,70,71
 1186 1524 1186 1524 1133 1483 c 1,72,73
 1082 1525 1082 1525 1052 1579 c 1,67,-1
EndSplineSet
EndChar

StartChar: Aring
Encoding: 197 197 135
Width: 1270
GlyphClass: 2
Flags: W
LayerCount: 2
Fore
SplineSet
314 839 m 1,0,-1
 315 806 l 1,1,2
 300 783 300 783 266.5 766 c 128,-1,3
 233 749 233 749 199 744 c 1,4,5
 198 757 198 757 198 779 c 0,6,7
 198 1020 198 1020 349 1170 c 128,-1,8
 500 1320 500 1320 758 1320 c 0,9,10
 810 1320 810 1320 902 1315 c 128,-1,11
 994 1310 994 1310 1025 1310 c 128,-1,12
 1056 1310 1056 1310 1078 1313 c 1,13,-1
 1076 1293 l 1,14,15
 1013 1223 1013 1223 1013 925 c 0,16,17
 1013 592 1013 592 1039 360 c 0,18,19
 1053 236 1053 236 1079 164.5 c 128,-1,20
 1105 93 1105 93 1141 93 c 0,21,22
 1195 93 1195 93 1268 108 c 1,23,-1
 1275 93 l 1,24,25
 1162 2 1162 2 1084 -18 c 1,26,27
 996 -18 996 -18 954 104 c 0,28,29
 919 207 919 207 907 382 c 0,30,31
 904 427 904 427 900 491 c 1,32,-1
 594 491 l 1,33,-1
 395 109 l 2,34,35
 325 -25 325 -25 226.5 -93.5 c 128,-1,36
 128 -162 128 -162 -30 -162 c 0,37,38
 -68 -162 -68 -162 -110 -156 c 1,39,40
 -110 -69 -110 -69 -62 -38 c 1,41,42
 38 -76 38 -76 84 -76 c 0,43,44
 225 -76 225 -76 331 131 c 1,45,-1
 830 1117 l 2,46,47
 851 1159 851 1159 867.5 1182.5 c 128,-1,48
 884 1206 884 1206 904 1214 c 1,49,-1
 904 1219 l 1,50,51
 766 1225 766 1225 613.5 1225 c 128,-1,52
 461 1225 461 1225 387.5 1136 c 128,-1,53
 314 1047 314 1047 314 839 c 1,0,-1
895 557 m 1,54,55
 888 732 888 732 888 866.5 c 128,-1,56
 888 1001 888 1001 897 1091 c 1,57,-1
 892 1091 l 1,58,-1
 620 557 l 1,59,-1
 895 557 l 1,54,55
1061 1671 m 0,60,61
 1168 1671 1168 1671 1168 1584 c 0,62,63
 1168 1524 1168 1524 1118.5 1482.5 c 128,-1,64
 1069 1441 1069 1441 1004 1441 c 0,65,66
 962 1441 962 1441 937.5 1462 c 128,-1,67
 913 1483 913 1483 913 1522 c 0,68,69
 913 1579 913 1579 957.5 1625 c 128,-1,70
 1002 1671 1002 1671 1061 1671 c 0,60,61
1051 1642 m 0,71,72
 1017 1642 1017 1642 999.5 1612.5 c 128,-1,73
 982 1583 982 1583 982 1538 c 0,74,75
 982 1471 982 1471 1023 1471 c 0,76,77
 1057 1471 1057 1471 1077.5 1500 c 128,-1,78
 1098 1529 1098 1529 1098 1573 c 0,79,80
 1098 1642 1098 1642 1051 1642 c 0,71,72
EndSplineSet
EndChar

StartChar: AE
Encoding: 198 198 136
Width: 1515
GlyphClass: 2
Flags: W
LayerCount: 2
Fore
SplineSet
807 1320 m 1,0,-1
 1049 1314 l 2,1,2
 1083 1314 1083 1314 1092 1316 c 1,3,-1
 1361 1316 l 1,4,-1
 1618 1322 l 2,5,6
 1639 1322 1639 1322 1652 1308 c 128,-1,7
 1665 1294 1665 1294 1665 1277.5 c 128,-1,8
 1665 1261 1665 1261 1640.5 1180.5 c 128,-1,9
 1616 1100 1616 1100 1602 1064 c 1,10,-1
 1580 1068 l 1,11,12
 1587 1140 1587 1140 1587 1163.5 c 128,-1,13
 1587 1187 1587 1187 1564 1200.5 c 128,-1,14
 1541 1214 1541 1214 1503 1214 c 2,15,-1
 1171 1214 l 1,16,17
 1145 1181 1145 1181 1136 1113 c 1,18,-1
 1097 772 l 1,19,20
 1183 769 1183 769 1356 769 c 0,21,22
 1441 769 1441 769 1497 795 c 1,23,-1
 1506 785 l 1,24,25
 1447 674 1447 674 1358 674 c 2,26,-1
 1084 674 l 1,27,-1
 1032 301 l 2,28,29
 1021 220 1021 220 1000 178.5 c 128,-1,30
 979 137 979 137 928 104 c 1,31,-1
 929 100 l 1,32,-1
 1264 100 l 2,33,34
 1337 100 1337 100 1406 121 c 128,-1,35
 1475 142 1475 142 1521 176 c 2,36,-1
 1599 232 l 1,37,-1
 1612 216 l 1,38,-1
 1509 95 l 2,39,40
 1481 61 1481 61 1464 42.5 c 128,-1,41
 1447 24 1447 24 1424.5 7.5 c 128,-1,42
 1402 -9 1402 -9 1384.5 -9 c 128,-1,43
 1367 -9 1367 -9 1283 -4.5 c 128,-1,44
 1199 0 1199 0 1154 0 c 2,45,-1
 705 0 l 1,46,-1
 701 23 l 1,47,48
 806 49 806 49 849 115.5 c 128,-1,49
 892 182 892 182 909 319 c 128,-1,50
 926 456 926 456 931 491 c 1,51,-1
 643 491 l 1,52,-1
 444 109 l 2,53,54
 374 -25 374 -25 275.5 -93.5 c 128,-1,55
 177 -162 177 -162 19 -162 c 0,56,57
 -19 -162 -19 -162 -61 -156 c 1,58,59
 -61 -69 -61 -69 -13 -38 c 1,60,61
 87 -76 87 -76 133 -76 c 0,62,63
 259 -76 259 -76 352 131 c 1,64,-1
 848 1117 l 2,65,66
 876 1171 876 1171 891.5 1189.5 c 128,-1,67
 907 1208 907 1208 921 1214 c 1,68,-1
 921 1219 l 1,69,70
 799 1225 799 1225 667 1225 c 0,71,72
 510 1225 510 1225 436.5 1136 c 128,-1,73
 363 1047 363 1047 363 839 c 1,74,-1
 364 806 l 1,75,76
 349 783 349 783 315.5 766 c 128,-1,77
 282 749 282 749 248 744 c 1,78,79
 247 757 247 757 247 779 c 0,80,81
 247 1020 247 1020 398 1170 c 128,-1,82
 549 1320 549 1320 807 1320 c 1,0,-1
992 956 m 1,83,84
 1014 1138 1014 1138 1051 1214 c 1,85,-1
 1046 1214 l 1,86,87
 1001 1206 1001 1206 941 1091 c 1,88,-1
 669 557 l 1,89,-1
 939 557 l 1,90,91
 951 648 951 648 968 780 c 2,92,-1
 992 956 l 1,83,84
EndSplineSet
EndChar

StartChar: Ccedilla
Encoding: 199 199 137
Width: 1065
GlyphClass: 2
Flags: W
LayerCount: 2
Fore
SplineSet
481 -214 m 1,0,1
 618 -257 618 -257 618 -354 c 0,2,3
 618 -405 618 -405 572.5 -446.5 c 128,-1,4
 527 -488 527 -488 455.5 -488 c 128,-1,5
 384 -488 384 -488 330 -428 c 1,6,7
 352 -385 352 -385 399 -365 c 1,8,9
 438 -435 438 -435 501 -435 c 0,10,11
 529 -435 529 -435 541 -422.5 c 128,-1,12
 553 -410 553 -410 551 -389 c 0,13,14
 546 -348 546 -348 501.5 -308 c 128,-1,15
 457 -268 457 -268 397 -264 c 1,16,-1
 388 -247 l 1,17,-1
 508 -130 l 1,18,19
 403 -123 403 -123 329 -46 c 0,20,21
 188 99 188 99 188 408 c 0,22,23
 188 603 188 603 233 777 c 128,-1,24
 278 951 278 951 353.5 1073 c 128,-1,25
 429 1195 429 1195 531.5 1266 c 128,-1,26
 634 1337 634 1337 747 1337 c 0,27,28
 882 1337 882 1337 952.5 1262 c 128,-1,29
 1023 1187 1023 1187 1023 1060 c 0,30,31
 1023 909 1023 909 942 818.5 c 128,-1,32
 861 728 861 728 740 728 c 0,33,34
 675 728 675 728 634 767 c 128,-1,35
 593 806 593 806 593 868 c 1,36,-1
 613 877 l 1,37,38
 636 778 636 778 738 778 c 0,39,40
 824 778 824 778 875.5 836.5 c 128,-1,41
 927 895 927 895 927 999.5 c 128,-1,42
 927 1104 927 1104 868.5 1174 c 128,-1,43
 810 1244 810 1244 705 1244 c 0,44,45
 531 1244 531 1244 420 1052 c 128,-1,46
 309 860 309 860 309 524 c 0,47,48
 309 194 309 194 428 56 c 1,49,50
 488 -12 488 -12 569 -12 c 0,51,52
 678 -12 678 -12 764 63 c 128,-1,53
 850 138 850 138 907 271 c 1,54,-1
 935 254 l 1,55,56
 863 55 863 55 728 -55 c 0,57,58
 653 -116 653 -116 570 -128 c 1,59,-1
 481 -214 l 1,0,1
EndSplineSet
EndChar

StartChar: Egrave
Encoding: 200 200 138
Width: 1270
GlyphClass: 2
Flags: W
LayerCount: 2
Fore
SplineSet
1038 -9 m 2,0,-1
 801 0 l 1,1,-1
 352 0 l 1,2,-1
 348 23 l 1,3,4
 453 49 453 49 496 115.5 c 128,-1,5
 539 182 539 182 555 309 c 0,6,7
 588 580 588 580 639 956 c 0,8,9
 652 1055 652 1055 674 1114 c 128,-1,10
 696 1173 696 1173 742 1212 c 1,11,-1
 742 1215 l 1,12,-1
 601 1215 l 2,13,14
 426 1215 426 1215 333 1126.5 c 128,-1,15
 240 1038 240 1038 240 842 c 0,16,17
 240 803 240 803 241 786 c 1,18,19
 209 735 209 735 123 724 c 1,20,-1
 123 757 l 2,21,22
 123 866 123 866 170 968 c 128,-1,23
 217 1070 217 1070 298 1146.5 c 128,-1,24
 379 1223 379 1223 494.5 1269.5 c 128,-1,25
 610 1316 610 1316 739 1316 c 2,26,-1
 1014 1316 l 1,27,-1
 1271 1322 l 2,28,29
 1292 1322 1292 1322 1305 1308 c 128,-1,30
 1318 1294 1318 1294 1318 1277.5 c 128,-1,31
 1318 1261 1318 1261 1293.5 1180.5 c 128,-1,32
 1269 1100 1269 1100 1255 1064 c 1,33,-1
 1233 1068 l 1,34,35
 1240 1140 1240 1140 1240 1161 c 0,36,37
 1240 1213 1240 1213 1156 1213 c 2,38,-1
 817 1213 l 1,39,40
 792 1181 792 1181 783 1113 c 1,41,-1
 744 772 l 1,42,43
 830 769 830 769 1008 769 c 0,44,45
 1093 769 1093 769 1149 795 c 1,46,-1
 1158 785 l 1,47,48
 1099 674 1099 674 1010 674 c 2,49,-1
 731 674 l 1,50,-1
 679 301 l 2,51,52
 668 220 668 220 647 178.5 c 128,-1,53
 626 137 626 137 575 104 c 1,54,-1
 576 100 l 1,55,-1
 917 100 l 2,56,57
 990 100 990 100 1059 121 c 128,-1,58
 1128 142 1128 142 1174 176 c 2,59,-1
 1252 232 l 1,60,-1
 1265 216 l 1,61,-1
 1162 95 l 2,62,63
 1134 61 1134 61 1117 42.5 c 128,-1,64
 1100 24 1100 24 1077.5 7.5 c 128,-1,65
 1055 -9 1055 -9 1038 -9 c 2,0,-1
842 1707 m 1,66,-1
 935 1723 l 1,67,68
 983 1574 983 1574 1143 1469 c 1,69,-1
 1119 1445 l 1,70,71
 1027 1477 1027 1477 951 1544.5 c 128,-1,72
 875 1612 875 1612 842 1707 c 1,66,-1
EndSplineSet
EndChar

StartChar: Eacute
Encoding: 201 201 139
Width: 1270
GlyphClass: 2
Flags: W
LayerCount: 2
Fore
SplineSet
1038 -9 m 2,0,-1
 801 0 l 1,1,-1
 352 0 l 1,2,-1
 348 23 l 1,3,4
 453 49 453 49 496 115.5 c 128,-1,5
 539 182 539 182 555 309 c 0,6,7
 588 580 588 580 639 956 c 0,8,9
 652 1055 652 1055 674 1114 c 128,-1,10
 696 1173 696 1173 742 1212 c 1,11,-1
 742 1215 l 1,12,-1
 601 1215 l 2,13,14
 426 1215 426 1215 333 1126.5 c 128,-1,15
 240 1038 240 1038 240 842 c 0,16,17
 240 803 240 803 241 786 c 1,18,19
 209 735 209 735 123 724 c 1,20,-1
 123 757 l 2,21,22
 123 866 123 866 170 968 c 128,-1,23
 217 1070 217 1070 298 1146.5 c 128,-1,24
 379 1223 379 1223 494.5 1269.5 c 128,-1,25
 610 1316 610 1316 739 1316 c 2,26,-1
 1014 1316 l 1,27,-1
 1271 1322 l 2,28,29
 1292 1322 1292 1322 1305 1308 c 128,-1,30
 1318 1294 1318 1294 1318 1277.5 c 128,-1,31
 1318 1261 1318 1261 1293.5 1180.5 c 128,-1,32
 1269 1100 1269 1100 1255 1064 c 1,33,-1
 1233 1068 l 1,34,35
 1240 1140 1240 1140 1240 1161 c 0,36,37
 1240 1213 1240 1213 1156 1213 c 2,38,-1
 817 1213 l 1,39,40
 792 1181 792 1181 783 1113 c 1,41,-1
 744 772 l 1,42,43
 830 769 830 769 1008 769 c 0,44,45
 1093 769 1093 769 1149 795 c 1,46,-1
 1158 785 l 1,47,48
 1099 674 1099 674 1010 674 c 2,49,-1
 731 674 l 1,50,-1
 679 301 l 2,51,52
 668 220 668 220 647 178.5 c 128,-1,53
 626 137 626 137 575 104 c 1,54,-1
 576 100 l 1,55,-1
 917 100 l 2,56,57
 990 100 990 100 1059 121 c 128,-1,58
 1128 142 1128 142 1174 176 c 2,59,-1
 1252 232 l 1,60,-1
 1265 216 l 1,61,-1
 1162 95 l 2,62,63
 1134 61 1134 61 1117 42.5 c 128,-1,64
 1100 24 1100 24 1077.5 7.5 c 128,-1,65
 1055 -9 1055 -9 1038 -9 c 2,0,-1
1052 1724 m 1,66,-1
 1145 1708 l 1,67,68
 1113 1615 1113 1615 1038 1549.5 c 128,-1,69
 963 1484 963 1484 868 1446 c 1,70,-1
 844 1470 l 1,71,72
 924 1522 924 1522 976 1582 c 128,-1,73
 1028 1642 1028 1642 1052 1724 c 1,66,-1
EndSplineSet
EndChar

StartChar: Ecircumflex
Encoding: 202 202 140
Width: 1270
GlyphClass: 2
Flags: W
LayerCount: 2
Fore
SplineSet
1038 -9 m 2,0,-1
 801 0 l 1,1,-1
 352 0 l 1,2,-1
 348 23 l 1,3,4
 453 49 453 49 496 115.5 c 128,-1,5
 539 182 539 182 555 309 c 0,6,7
 588 580 588 580 639 956 c 0,8,9
 652 1055 652 1055 674 1114 c 128,-1,10
 696 1173 696 1173 742 1212 c 1,11,-1
 742 1215 l 1,12,-1
 601 1215 l 2,13,14
 426 1215 426 1215 333 1126.5 c 128,-1,15
 240 1038 240 1038 240 842 c 0,16,17
 240 803 240 803 241 786 c 1,18,19
 209 735 209 735 123 724 c 1,20,-1
 123 757 l 2,21,22
 123 866 123 866 170 968 c 128,-1,23
 217 1070 217 1070 298 1146.5 c 128,-1,24
 379 1223 379 1223 494.5 1269.5 c 128,-1,25
 610 1316 610 1316 739 1316 c 2,26,-1
 1014 1316 l 1,27,-1
 1271 1322 l 2,28,29
 1292 1322 1292 1322 1305 1308 c 128,-1,30
 1318 1294 1318 1294 1318 1277.5 c 128,-1,31
 1318 1261 1318 1261 1293.5 1180.5 c 128,-1,32
 1269 1100 1269 1100 1255 1064 c 1,33,-1
 1233 1068 l 1,34,35
 1240 1140 1240 1140 1240 1161 c 0,36,37
 1240 1213 1240 1213 1156 1213 c 2,38,-1
 817 1213 l 1,39,40
 792 1181 792 1181 783 1113 c 1,41,-1
 744 772 l 1,42,43
 830 769 830 769 1008 769 c 0,44,45
 1093 769 1093 769 1149 795 c 1,46,-1
 1158 785 l 1,47,48
 1099 674 1099 674 1010 674 c 2,49,-1
 731 674 l 1,50,-1
 679 301 l 2,51,52
 668 220 668 220 647 178.5 c 128,-1,53
 626 137 626 137 575 104 c 1,54,-1
 576 100 l 1,55,-1
 917 100 l 2,56,57
 990 100 990 100 1059 121 c 128,-1,58
 1128 142 1128 142 1174 176 c 2,59,-1
 1252 232 l 1,60,-1
 1265 216 l 1,61,-1
 1162 95 l 2,62,63
 1134 61 1134 61 1117 42.5 c 128,-1,64
 1100 24 1100 24 1077.5 7.5 c 128,-1,65
 1055 -9 1055 -9 1038 -9 c 2,0,-1
994 1706 m 1,66,67
 1020 1710 1020 1710 1040.5 1710 c 128,-1,68
 1061 1710 1061 1710 1085 1699 c 1,69,70
 1085 1580 1085 1580 1197 1473 c 1,71,-1
 1178 1448 l 1,72,73
 1069 1502 1069 1502 1018 1598 c 1,74,-1
 1014 1598 l 1,75,76
 981 1552 981 1552 922 1513 c 128,-1,77
 863 1474 863 1474 798 1452 c 1,78,-1
 781 1474 l 1,79,80
 952 1572 952 1572 994 1706 c 1,66,67
EndSplineSet
EndChar

StartChar: Edieresis
Encoding: 203 203 141
Width: 1270
GlyphClass: 2
Flags: W
LayerCount: 2
Fore
SplineSet
1038 -9 m 2,0,-1
 801 0 l 1,1,-1
 352 0 l 1,2,-1
 348 23 l 1,3,4
 453 49 453 49 496 115.5 c 128,-1,5
 539 182 539 182 555 309 c 0,6,7
 588 580 588 580 639 956 c 0,8,9
 652 1055 652 1055 674 1114 c 128,-1,10
 696 1173 696 1173 742 1212 c 1,11,-1
 742 1215 l 1,12,-1
 601 1215 l 2,13,14
 426 1215 426 1215 333 1126.5 c 128,-1,15
 240 1038 240 1038 240 842 c 0,16,17
 240 803 240 803 241 786 c 1,18,19
 209 735 209 735 123 724 c 1,20,-1
 123 757 l 2,21,22
 123 866 123 866 170 968 c 128,-1,23
 217 1070 217 1070 298 1146.5 c 128,-1,24
 379 1223 379 1223 494.5 1269.5 c 128,-1,25
 610 1316 610 1316 739 1316 c 2,26,-1
 1014 1316 l 1,27,-1
 1271 1322 l 2,28,29
 1292 1322 1292 1322 1305 1308 c 128,-1,30
 1318 1294 1318 1294 1318 1277.5 c 128,-1,31
 1318 1261 1318 1261 1293.5 1180.5 c 128,-1,32
 1269 1100 1269 1100 1255 1064 c 1,33,-1
 1233 1068 l 1,34,35
 1240 1140 1240 1140 1240 1161 c 0,36,37
 1240 1213 1240 1213 1156 1213 c 2,38,-1
 817 1213 l 1,39,40
 792 1181 792 1181 783 1113 c 1,41,-1
 744 772 l 1,42,43
 830 769 830 769 1008 769 c 0,44,45
 1093 769 1093 769 1149 795 c 1,46,-1
 1158 785 l 1,47,48
 1099 674 1099 674 1010 674 c 2,49,-1
 731 674 l 1,50,-1
 679 301 l 2,51,52
 668 220 668 220 647 178.5 c 128,-1,53
 626 137 626 137 575 104 c 1,54,-1
 576 100 l 1,55,-1
 917 100 l 2,56,57
 990 100 990 100 1059 121 c 128,-1,58
 1128 142 1128 142 1174 176 c 2,59,-1
 1252 232 l 1,60,-1
 1265 216 l 1,61,-1
 1162 95 l 2,62,63
 1134 61 1134 61 1117 42.5 c 128,-1,64
 1100 24 1100 24 1077.5 7.5 c 128,-1,65
 1055 -9 1055 -9 1038 -9 c 2,0,-1
768 1566 m 1,66,-1
 848 1650 l 1,67,68
 904 1610 904 1610 927 1562 c 1,69,70
 902 1511 902 1511 849 1470 c 1,71,72
 798 1512 798 1512 768 1566 c 1,66,-1
1041 1566 m 1,73,-1
 1121 1650 l 1,74,75
 1177 1610 1177 1610 1200 1562 c 1,76,77
 1175 1511 1175 1511 1122 1470 c 1,78,79
 1071 1512 1071 1512 1041 1566 c 1,73,-1
EndSplineSet
EndChar

StartChar: Igrave
Encoding: 204 204 142
Width: 778
GlyphClass: 2
Flags: W
LayerCount: 2
Fore
SplineSet
566 1316 m 2,0,-1
 820 1316 l 1,1,-1
 823 1306 l 1,2,3
 768 1250 768 1250 747 1158.5 c 128,-1,4
 726 1067 726 1067 705 744 c 128,-1,5
 684 421 684 421 679 377 c 0,6,7
 657 180 657 180 568.5 81 c 128,-1,8
 480 -18 480 -18 334 -18 c 2,9,-1
 234 -18 l 1,10,11
 244 65 244 65 297 98 c 1,12,13
 362 79 362 79 419 79 c 128,-1,14
 476 79 476 79 503 107 c 128,-1,15
 530 135 530 135 540 219 c 0,16,17
 569 472 569 472 585.5 707 c 128,-1,18
 602 942 602 942 605 980 c 0,19,20
 617 1138 617 1138 679 1217 c 1,21,-1
 678 1220 l 1,22,-1
 535 1220 l 2,23,24
 373 1220 373 1220 308 1152 c 128,-1,25
 243 1084 243 1084 243 901 c 0,26,27
 243 848 243 848 247 818 c 1,28,29
 236 793 236 793 203.5 775 c 128,-1,30
 171 757 171 757 135 757 c 1,31,32
 132 788 132 788 132 820 c 0,33,34
 132 927 132 927 169.5 1021 c 128,-1,35
 207 1115 207 1115 268.5 1178.5 c 128,-1,36
 330 1242 330 1242 408 1279 c 128,-1,37
 486 1316 486 1316 566 1316 c 2,0,-1
518 1707 m 1,38,-1
 611 1723 l 1,39,40
 659 1574 659 1574 819 1469 c 1,41,-1
 795 1445 l 1,42,43
 703 1477 703 1477 627 1544.5 c 128,-1,44
 551 1612 551 1612 518 1707 c 1,38,-1
EndSplineSet
EndChar

StartChar: Iacute
Encoding: 205 205 143
Width: 778
GlyphClass: 2
Flags: W
LayerCount: 2
Fore
SplineSet
566 1316 m 2,0,-1
 820 1316 l 1,1,-1
 823 1306 l 1,2,3
 768 1250 768 1250 747 1158.5 c 128,-1,4
 726 1067 726 1067 705 744 c 128,-1,5
 684 421 684 421 679 377 c 0,6,7
 657 180 657 180 568.5 81 c 128,-1,8
 480 -18 480 -18 334 -18 c 2,9,-1
 234 -18 l 1,10,11
 244 65 244 65 297 98 c 1,12,13
 362 79 362 79 419 79 c 128,-1,14
 476 79 476 79 503 107 c 128,-1,15
 530 135 530 135 540 219 c 0,16,17
 569 472 569 472 585.5 707 c 128,-1,18
 602 942 602 942 605 980 c 0,19,20
 617 1138 617 1138 679 1217 c 1,21,-1
 678 1220 l 1,22,-1
 535 1220 l 2,23,24
 373 1220 373 1220 308 1152 c 128,-1,25
 243 1084 243 1084 243 901 c 0,26,27
 243 848 243 848 247 818 c 1,28,29
 236 793 236 793 203.5 775 c 128,-1,30
 171 757 171 757 135 757 c 1,31,32
 132 788 132 788 132 820 c 0,33,34
 132 927 132 927 169.5 1021 c 128,-1,35
 207 1115 207 1115 268.5 1178.5 c 128,-1,36
 330 1242 330 1242 408 1279 c 128,-1,37
 486 1316 486 1316 566 1316 c 2,0,-1
823 1727 m 1,38,-1
 916 1711 l 1,39,40
 884 1618 884 1618 809 1552.5 c 128,-1,41
 734 1487 734 1487 639 1449 c 1,42,-1
 615 1473 l 1,43,44
 695 1525 695 1525 747 1585 c 128,-1,45
 799 1645 799 1645 823 1727 c 1,38,-1
EndSplineSet
EndChar

StartChar: Icircumflex
Encoding: 206 206 144
Width: 778
GlyphClass: 2
Flags: W
LayerCount: 2
Fore
SplineSet
566 1316 m 2,0,-1
 820 1316 l 1,1,-1
 823 1306 l 1,2,3
 768 1250 768 1250 747 1158.5 c 128,-1,4
 726 1067 726 1067 705 744 c 128,-1,5
 684 421 684 421 679 377 c 0,6,7
 657 180 657 180 568.5 81 c 128,-1,8
 480 -18 480 -18 334 -18 c 2,9,-1
 234 -18 l 1,10,11
 244 65 244 65 297 98 c 1,12,13
 362 79 362 79 419 79 c 128,-1,14
 476 79 476 79 503 107 c 128,-1,15
 530 135 530 135 540 219 c 0,16,17
 569 472 569 472 585.5 707 c 128,-1,18
 602 942 602 942 605 980 c 0,19,20
 617 1138 617 1138 679 1217 c 1,21,-1
 678 1220 l 1,22,-1
 535 1220 l 2,23,24
 373 1220 373 1220 308 1152 c 128,-1,25
 243 1084 243 1084 243 901 c 0,26,27
 243 848 243 848 247 818 c 1,28,29
 236 793 236 793 203.5 775 c 128,-1,30
 171 757 171 757 135 757 c 1,31,32
 132 788 132 788 132 820 c 0,33,34
 132 927 132 927 169.5 1021 c 128,-1,35
 207 1115 207 1115 268.5 1178.5 c 128,-1,36
 330 1242 330 1242 408 1279 c 128,-1,37
 486 1316 486 1316 566 1316 c 2,0,-1
742 1704 m 1,38,39
 768 1708 768 1708 788.5 1708 c 128,-1,40
 809 1708 809 1708 833 1697 c 1,41,42
 833 1578 833 1578 945 1471 c 1,43,-1
 926 1446 l 1,44,45
 817 1500 817 1500 766 1596 c 1,46,-1
 762 1596 l 1,47,48
 729 1550 729 1550 670 1511 c 128,-1,49
 611 1472 611 1472 546 1450 c 1,50,-1
 529 1472 l 1,51,52
 700 1570 700 1570 742 1704 c 1,38,39
EndSplineSet
EndChar

StartChar: Idieresis
Encoding: 207 207 145
Width: 778
GlyphClass: 2
Flags: W
LayerCount: 2
Fore
SplineSet
566 1316 m 2,0,-1
 820 1316 l 1,1,-1
 823 1306 l 1,2,3
 768 1250 768 1250 747 1158.5 c 128,-1,4
 726 1067 726 1067 705 744 c 128,-1,5
 684 421 684 421 679 377 c 0,6,7
 657 180 657 180 568.5 81 c 128,-1,8
 480 -18 480 -18 334 -18 c 2,9,-1
 234 -18 l 1,10,11
 244 65 244 65 297 98 c 1,12,13
 362 79 362 79 419 79 c 128,-1,14
 476 79 476 79 503 107 c 128,-1,15
 530 135 530 135 540 219 c 0,16,17
 569 472 569 472 585.5 707 c 128,-1,18
 602 942 602 942 605 980 c 0,19,20
 617 1138 617 1138 679 1217 c 1,21,-1
 678 1220 l 1,22,-1
 535 1220 l 2,23,24
 373 1220 373 1220 308 1152 c 128,-1,25
 243 1084 243 1084 243 901 c 0,26,27
 243 848 243 848 247 818 c 1,28,29
 236 793 236 793 203.5 775 c 128,-1,30
 171 757 171 757 135 757 c 1,31,32
 132 788 132 788 132 820 c 0,33,34
 132 927 132 927 169.5 1021 c 128,-1,35
 207 1115 207 1115 268.5 1178.5 c 128,-1,36
 330 1242 330 1242 408 1279 c 128,-1,37
 486 1316 486 1316 566 1316 c 2,0,-1
519 1570 m 1,38,-1
 599 1654 l 1,39,40
 655 1614 655 1614 678 1566 c 1,41,42
 653 1515 653 1515 600 1474 c 1,43,44
 549 1516 549 1516 519 1570 c 1,38,-1
792 1570 m 1,45,-1
 872 1654 l 1,46,47
 928 1614 928 1614 951 1566 c 1,48,49
 926 1515 926 1515 873 1474 c 1,50,51
 822 1516 822 1516 792 1570 c 1,45,-1
EndSplineSet
EndChar

StartChar: Eth
Encoding: 208 208 146
Width: 1434
GlyphClass: 2
Flags: W
LayerCount: 2
Fore
SplineSet
787 100 m 2,0,1
 911 100 911 100 1011 147.5 c 128,-1,2
 1111 195 1111 195 1174 278 c 0,3,4
 1306 450 1306 450 1306 705 c 0,5,6
 1306 833 1306 833 1263 938.5 c 128,-1,7
 1220 1044 1220 1044 1148 1110.5 c 128,-1,8
 1076 1177 1076 1177 985.5 1213 c 128,-1,9
 895 1249 895 1249 784.5 1249 c 128,-1,10
 674 1249 674 1249 576 1220 c 128,-1,11
 478 1191 478 1191 403 1130.5 c 128,-1,12
 328 1070 328 1070 287 968 c 128,-1,13
 246 866 246 866 246 728 c 1,14,15
 220 664 220 664 137 639 c 1,16,17
 136 653 136 653 136 669 c 0,18,19
 136 817 136 817 188.5 941.5 c 128,-1,20
 241 1066 241 1066 336 1153.5 c 128,-1,21
 431 1241 431 1241 569 1290 c 128,-1,22
 707 1339 707 1339 869 1339 c 128,-1,23
 1031 1339 1031 1339 1160.5 1270.5 c 128,-1,24
 1290 1202 1290 1202 1364 1078.5 c 128,-1,25
 1438 955 1438 955 1438 792 c 128,-1,26
 1438 629 1438 629 1382 481 c 128,-1,27
 1326 333 1326 333 1226 227 c 128,-1,28
 1126 121 1126 121 981.5 60.5 c 128,-1,29
 837 0 837 0 667 0 c 2,30,-1
 331 0 l 1,31,-1
 326 29 l 1,32,33
 485 57 485 57 515 290 c 1,34,-1
 548 569 l 1,35,-1
 435 569 l 1,36,-1
 458 644 l 1,37,-1
 557 644 l 1,38,39
 577 827 577 827 584.5 912 c 128,-1,40
 592 997 592 997 599.5 1028.5 c 128,-1,41
 607 1060 607 1060 622 1087 c 0,42,43
 653 1140 653 1140 732 1140 c 1,44,45
 727 1069 727 1069 680 644 c 1,46,-1
 909 644 l 1,47,48
 912 619 912 619 899 597.5 c 128,-1,49
 886 576 886 576 869 569 c 1,50,-1
 671 569 l 1,51,-1
 649 372 l 2,52,53
 624 154 624 154 542 105 c 1,54,-1
 543 100 l 1,55,-1
 787 100 l 2,0,1
EndSplineSet
EndChar

StartChar: Ntilde
Encoding: 209 209 147
Width: 1434
GlyphClass: 2
Flags: W
LayerCount: 2
Fore
SplineSet
1545 1373.5 m 128,-1,1
 1604 1392 1604 1392 1656.5 1392 c 128,-1,2
 1709 1392 1709 1392 1742 1386 c 1,3,4
 1743 1379 1743 1379 1743 1364 c 0,5,6
 1743 1297 1743 1297 1706 1268 c 1,7,8
 1693 1272 1693 1272 1663 1283 c 128,-1,9
 1633 1294 1633 1294 1618 1298 c 0,10,11
 1592 1306 1592 1306 1567 1306 c 0,12,13
 1428 1306 1428 1306 1366 1063 c 0,14,15
 1332 928 1332 928 1259 537 c 128,-1,16
 1186 146 1186 146 1150 -15 c 1,17,18
 1138 -20 1138 -20 1124.5 -20 c 128,-1,19
 1111 -20 1111 -20 1103 -15 c 1,20,21
 1094 98 1094 98 1057 233.5 c 128,-1,22
 1020 369 1020 369 973.5 490.5 c 128,-1,23
 927 612 927 612 882 728 c 0,24,25
 774 1004 774 1004 774 1139 c 1,26,-1
 768 1140 l 1,27,28
 687 517 687 517 575 154 c 0,29,30
 537 34 537 34 436 -41.5 c 128,-1,31
 335 -117 335 -117 183 -117 c 0,32,33
 151 -117 151 -117 112 -111 c 1,34,35
 111 -104 111 -104 111 -89 c 0,36,37
 111 -22 111 -22 147 7 c 1,38,39
 252 -31 252 -31 297 -31 c 0,40,41
 368 -31 368 -31 427 27.5 c 128,-1,42
 486 86 486 86 513 180 c 0,43,44
 611 529 611 529 702 1147 c 0,45,46
 708 1187 708 1187 727 1217 c 1,47,48
 552 1224 552 1224 465 1224 c 0,49,50
 330 1224 330 1224 264 1151.5 c 128,-1,51
 198 1079 198 1079 198 928 c 0,52,53
 198 904 198 904 207 805 c 1,54,55
 194 782 194 782 162.5 765 c 128,-1,56
 131 748 131 748 98 743 c 1,57,58
 89 796 89 796 89 848 c 0,59,60
 89 1060 89 1060 227 1189.5 c 128,-1,61
 365 1319 365 1319 605 1319 c 0,62,63
 648 1319 648 1319 706.5 1315 c 128,-1,64
 765 1311 765 1311 797.5 1311 c 128,-1,65
 830 1311 830 1311 874 1315 c 1,66,67
 874 1182 874 1182 968 943 c 0,68,69
 1007 842 1007 842 1048 740 c 1,70,71
 1147 487 1147 487 1158 324 c 1,72,-1
 1163 324 l 1,73,74
 1176 390 1176 390 1221.5 655.5 c 128,-1,75
 1267 921 1267 921 1291.5 1021 c 128,-1,76
 1316 1121 1316 1121 1332.5 1164.5 c 128,-1,77
 1349 1208 1349 1208 1378.5 1252.5 c 128,-1,78
 1408 1297 1408 1297 1447 1326 c 128,-1,0
 1486 1355 1486 1355 1545 1373.5 c 128,-1,1
1130 1536 m 128,-1,80
 1060 1563 1060 1563 1021 1563 c 128,-1,81
 982 1563 982 1563 955 1549 c 128,-1,82
 928 1535 928 1535 896 1504 c 1,83,-1
 882 1522 l 1,84,85
 960 1619 960 1619 1055 1650 c 1,86,87
 1090 1650 1090 1650 1169 1622.5 c 128,-1,88
 1248 1595 1248 1595 1281 1595 c 128,-1,89
 1314 1595 1314 1595 1338.5 1604.5 c 128,-1,90
 1363 1614 1363 1614 1392 1637 c 1,91,-1
 1404 1623 l 1,92,93
 1324 1527 1324 1527 1237 1509 c 1,94,79
 1200 1509 1200 1509 1130 1536 c 128,-1,80
EndSplineSet
EndChar

StartChar: Ograve
Encoding: 210 210 148
Width: 1229
GlyphClass: 2
Flags: W
LayerCount: 2
Fore
SplineSet
822 1333 m 0,0,1
 907 1333 907 1333 970.5 1298 c 128,-1,2
 1034 1263 1034 1263 1071 1200 c 0,3,4
 1144 1077 1144 1077 1144 891 c 0,5,6
 1144 753 1144 753 1105.5 615.5 c 128,-1,7
 1067 478 1067 478 1000.5 366 c 128,-1,8
 934 254 934 254 850 167 c 128,-1,9
 766 80 766 80 668.5 31.5 c 128,-1,10
 571 -17 571 -17 477 -17 c 0,11,12
 350 -17 350 -17 269.5 102 c 128,-1,13
 189 221 189 221 189 413 c 0,14,15
 189 568 189 568 242 733 c 128,-1,16
 295 898 295 898 380 1030 c 128,-1,17
 465 1162 465 1162 583 1247.5 c 128,-1,18
 701 1333 701 1333 822 1333 c 0,0,1
742 1237 m 0,19,20
 638 1237 638 1237 543.5 1134 c 128,-1,21
 449 1031 449 1031 393 864.5 c 128,-1,22
 337 698 337 698 337 517 c 0,23,24
 337 343 337 343 388 220 c 0,25,26
 413 158 413 158 457.5 121.5 c 128,-1,27
 502 85 502 85 561 85 c 128,-1,28
 620 85 620 85 683 118 c 128,-1,29
 746 151 746 151 802.5 213.5 c 128,-1,30
 859 276 859 276 904.5 358 c 128,-1,31
 950 440 950 440 976.5 545 c 128,-1,32
 1003 650 1003 650 1003 761 c 0,33,34
 1003 986 1003 986 939 1111.5 c 128,-1,35
 875 1237 875 1237 742 1237 c 0,19,20
666 1707 m 1,36,-1
 759 1723 l 1,37,38
 807 1574 807 1574 967 1469 c 1,39,-1
 943 1445 l 1,40,41
 851 1477 851 1477 775 1544.5 c 128,-1,42
 699 1612 699 1612 666 1707 c 1,36,-1
EndSplineSet
EndChar

StartChar: Oacute
Encoding: 211 211 149
Width: 1229
GlyphClass: 2
Flags: W
LayerCount: 2
Fore
SplineSet
822 1333 m 0,0,1
 907 1333 907 1333 970.5 1298 c 128,-1,2
 1034 1263 1034 1263 1071 1200 c 0,3,4
 1144 1077 1144 1077 1144 891 c 0,5,6
 1144 753 1144 753 1105.5 615.5 c 128,-1,7
 1067 478 1067 478 1000.5 366 c 128,-1,8
 934 254 934 254 850 167 c 128,-1,9
 766 80 766 80 668.5 31.5 c 128,-1,10
 571 -17 571 -17 477 -17 c 0,11,12
 350 -17 350 -17 269.5 102 c 128,-1,13
 189 221 189 221 189 413 c 0,14,15
 189 568 189 568 242 733 c 128,-1,16
 295 898 295 898 380 1030 c 128,-1,17
 465 1162 465 1162 583 1247.5 c 128,-1,18
 701 1333 701 1333 822 1333 c 0,0,1
742 1237 m 0,19,20
 638 1237 638 1237 543.5 1134 c 128,-1,21
 449 1031 449 1031 393 864.5 c 128,-1,22
 337 698 337 698 337 517 c 0,23,24
 337 343 337 343 388 220 c 0,25,26
 413 158 413 158 457.5 121.5 c 128,-1,27
 502 85 502 85 561 85 c 128,-1,28
 620 85 620 85 683 118 c 128,-1,29
 746 151 746 151 802.5 213.5 c 128,-1,30
 859 276 859 276 904.5 358 c 128,-1,31
 950 440 950 440 976.5 545 c 128,-1,32
 1003 650 1003 650 1003 761 c 0,33,34
 1003 986 1003 986 939 1111.5 c 128,-1,35
 875 1237 875 1237 742 1237 c 0,19,20
897 1725 m 1,36,-1
 990 1709 l 1,37,38
 958 1616 958 1616 883 1550.5 c 128,-1,39
 808 1485 808 1485 713 1447 c 1,40,-1
 689 1471 l 1,41,42
 769 1523 769 1523 821 1583 c 128,-1,43
 873 1643 873 1643 897 1725 c 1,36,-1
EndSplineSet
EndChar

StartChar: Ocircumflex
Encoding: 212 212 150
Width: 1229
GlyphClass: 2
Flags: W
LayerCount: 2
Fore
SplineSet
822 1333 m 0,0,1
 907 1333 907 1333 970.5 1298 c 128,-1,2
 1034 1263 1034 1263 1071 1200 c 0,3,4
 1144 1077 1144 1077 1144 891 c 0,5,6
 1144 753 1144 753 1105.5 615.5 c 128,-1,7
 1067 478 1067 478 1000.5 366 c 128,-1,8
 934 254 934 254 850 167 c 128,-1,9
 766 80 766 80 668.5 31.5 c 128,-1,10
 571 -17 571 -17 477 -17 c 0,11,12
 350 -17 350 -17 269.5 102 c 128,-1,13
 189 221 189 221 189 413 c 0,14,15
 189 568 189 568 242 733 c 128,-1,16
 295 898 295 898 380 1030 c 128,-1,17
 465 1162 465 1162 583 1247.5 c 128,-1,18
 701 1333 701 1333 822 1333 c 0,0,1
742 1237 m 0,19,20
 638 1237 638 1237 543.5 1134 c 128,-1,21
 449 1031 449 1031 393 864.5 c 128,-1,22
 337 698 337 698 337 517 c 0,23,24
 337 343 337 343 388 220 c 0,25,26
 413 158 413 158 457.5 121.5 c 128,-1,27
 502 85 502 85 561 85 c 128,-1,28
 620 85 620 85 683 118 c 128,-1,29
 746 151 746 151 802.5 213.5 c 128,-1,30
 859 276 859 276 904.5 358 c 128,-1,31
 950 440 950 440 976.5 545 c 128,-1,32
 1003 650 1003 650 1003 761 c 0,33,34
 1003 986 1003 986 939 1111.5 c 128,-1,35
 875 1237 875 1237 742 1237 c 0,19,20
840 1719 m 1,36,37
 866 1723 866 1723 886.5 1723 c 128,-1,38
 907 1723 907 1723 931 1712 c 1,39,40
 931 1593 931 1593 1043 1486 c 1,41,-1
 1024 1461 l 1,42,43
 915 1515 915 1515 864 1611 c 1,44,-1
 860 1611 l 1,45,46
 827 1565 827 1565 768 1526 c 128,-1,47
 709 1487 709 1487 644 1465 c 1,48,-1
 627 1487 l 1,49,50
 798 1585 798 1585 840 1719 c 1,36,37
EndSplineSet
EndChar

StartChar: Otilde
Encoding: 213 213 151
Width: 1229
GlyphClass: 2
Flags: W
LayerCount: 2
Fore
SplineSet
822 1333 m 0,0,1
 907 1333 907 1333 970.5 1298 c 128,-1,2
 1034 1263 1034 1263 1071 1200 c 0,3,4
 1144 1077 1144 1077 1144 891 c 0,5,6
 1144 753 1144 753 1105.5 615.5 c 128,-1,7
 1067 478 1067 478 1000.5 366 c 128,-1,8
 934 254 934 254 850 167 c 128,-1,9
 766 80 766 80 668.5 31.5 c 128,-1,10
 571 -17 571 -17 477 -17 c 0,11,12
 350 -17 350 -17 269.5 102 c 128,-1,13
 189 221 189 221 189 413 c 0,14,15
 189 568 189 568 242 733 c 128,-1,16
 295 898 295 898 380 1030 c 128,-1,17
 465 1162 465 1162 583 1247.5 c 128,-1,18
 701 1333 701 1333 822 1333 c 0,0,1
742 1237 m 0,19,20
 638 1237 638 1237 543.5 1134 c 128,-1,21
 449 1031 449 1031 393 864.5 c 128,-1,22
 337 698 337 698 337 517 c 0,23,24
 337 343 337 343 388 220 c 0,25,26
 413 158 413 158 457.5 121.5 c 128,-1,27
 502 85 502 85 561 85 c 128,-1,28
 620 85 620 85 683 118 c 128,-1,29
 746 151 746 151 802.5 213.5 c 128,-1,30
 859 276 859 276 904.5 358 c 128,-1,31
 950 440 950 440 976.5 545 c 128,-1,32
 1003 650 1003 650 1003 761 c 0,33,34
 1003 986 1003 986 939 1111.5 c 128,-1,35
 875 1237 875 1237 742 1237 c 0,19,20
825 1527 m 128,-1,37
 755 1554 755 1554 716 1554 c 128,-1,38
 677 1554 677 1554 650 1540 c 128,-1,39
 623 1526 623 1526 591 1495 c 1,40,-1
 577 1513 l 1,41,42
 655 1610 655 1610 750 1641 c 1,43,44
 786 1641 786 1641 864 1613.5 c 128,-1,45
 942 1586 942 1586 975.5 1586 c 128,-1,46
 1009 1586 1009 1586 1033.5 1595.5 c 128,-1,47
 1058 1605 1058 1605 1087 1628 c 1,48,-1
 1099 1614 l 1,49,50
 1019 1518 1019 1518 932 1500 c 1,51,36
 895 1500 895 1500 825 1527 c 128,-1,37
EndSplineSet
EndChar

StartChar: Odieresis
Encoding: 214 214 152
Width: 1229
GlyphClass: 2
Flags: W
LayerCount: 2
Fore
SplineSet
822 1333 m 0,0,1
 907 1333 907 1333 970.5 1298 c 128,-1,2
 1034 1263 1034 1263 1071 1200 c 0,3,4
 1144 1077 1144 1077 1144 891 c 0,5,6
 1144 753 1144 753 1105.5 615.5 c 128,-1,7
 1067 478 1067 478 1000.5 366 c 128,-1,8
 934 254 934 254 850 167 c 128,-1,9
 766 80 766 80 668.5 31.5 c 128,-1,10
 571 -17 571 -17 477 -17 c 0,11,12
 350 -17 350 -17 269.5 102 c 128,-1,13
 189 221 189 221 189 413 c 0,14,15
 189 568 189 568 242 733 c 128,-1,16
 295 898 295 898 380 1030 c 128,-1,17
 465 1162 465 1162 583 1247.5 c 128,-1,18
 701 1333 701 1333 822 1333 c 0,0,1
742 1237 m 0,19,20
 638 1237 638 1237 543.5 1134 c 128,-1,21
 449 1031 449 1031 393 864.5 c 128,-1,22
 337 698 337 698 337 517 c 0,23,24
 337 343 337 343 388 220 c 0,25,26
 413 158 413 158 457.5 121.5 c 128,-1,27
 502 85 502 85 561 85 c 128,-1,28
 620 85 620 85 683 118 c 128,-1,29
 746 151 746 151 802.5 213.5 c 128,-1,30
 859 276 859 276 904.5 358 c 128,-1,31
 950 440 950 440 976.5 545 c 128,-1,32
 1003 650 1003 650 1003 761 c 0,33,34
 1003 986 1003 986 939 1111.5 c 128,-1,35
 875 1237 875 1237 742 1237 c 0,19,20
624 1583 m 1,36,-1
 704 1667 l 1,37,38
 760 1627 760 1627 783 1579 c 1,39,40
 758 1528 758 1528 705 1487 c 1,41,42
 654 1529 654 1529 624 1583 c 1,36,-1
897 1583 m 1,43,-1
 977 1667 l 1,44,45
 1033 1627 1033 1627 1056 1579 c 1,46,47
 1031 1528 1031 1528 978 1487 c 1,48,49
 927 1529 927 1529 897 1583 c 1,43,-1
EndSplineSet
EndChar

StartChar: multiply
Encoding: 215 215 153
Width: 1065
GlyphClass: 2
Flags: W
LayerCount: 2
Fore
SplineSet
749 608 m 1,0,-1
 1016 315 l 1,1,-1
 939 243 l 1,2,-1
 672 536 l 1,3,-1
 355 245 l 1,4,-1
 285 315 l 1,5,-1
 605 608 l 1,6,-1
 338 902 l 1,7,-1
 415 974 l 1,8,-1
 684 680 l 1,9,-1
 1002 974 l 1,10,-1
 1066 899 l 1,11,-1
 749 608 l 1,0,-1
EndSplineSet
EndChar

StartChar: Oslash
Encoding: 216 216 154
Width: 1352
GlyphClass: 2
Flags: W
LayerCount: 2
Fore
SplineSet
1257 1388 m 1,0,-1
 1137 1195 l 1,1,2
 1212 1075 1212 1075 1212 871 c 0,3,4
 1212 701 1212 701 1154 536 c 128,-1,5
 1096 371 1096 371 1003.5 250 c 128,-1,6
 911 129 911 129 792 55 c 128,-1,7
 673 -19 673 -19 555 -19 c 0,8,9
 473 -19 473 -19 404 35 c 1,10,11
 342 -64 342 -64 297 -139 c 1,12,-1
 233 -35 l 1,13,-1
 334 118 l 1,14,15
 260 242 260 242 260 404.5 c 128,-1,16
 260 567 260 567 310.5 731 c 128,-1,17
 361 895 361 895 444 1027.5 c 128,-1,18
 527 1160 527 1160 645 1245 c 128,-1,19
 763 1330 763 1330 886.5 1330 c 128,-1,20
 1010 1330 1010 1330 1086 1257 c 1,21,-1
 1207 1438 l 1,22,-1
 1257 1388 l 1,0,-1
806 1235 m 0,23,24
 703 1235 703 1235 611 1134.5 c 128,-1,25
 519 1034 519 1034 465.5 871 c 128,-1,26
 412 708 412 708 412 530 c 0,27,28
 412 398 412 398 443 285 c 1,29,-1
 994 1117 l 1,30,31
 928 1235 928 1235 806 1235 c 0,23,24
1031 1027 m 1,32,-1
 491 174 l 1,33,34
 548 83 548 83 638 83 c 0,35,36
 696 83 696 83 757.5 115 c 128,-1,37
 819 147 819 147 874 208 c 128,-1,38
 929 269 929 269 972.5 348.5 c 128,-1,39
 1016 428 1016 428 1041.5 531 c 128,-1,40
 1067 634 1067 634 1067 743 c 0,41,42
 1067 905 1067 905 1031 1027 c 1,32,-1
EndSplineSet
EndChar

StartChar: Ugrave
Encoding: 217 217 155
Width: 1515
GlyphClass: 2
Flags: W
LayerCount: 2
Fore
SplineSet
1431 1177 m 0,0,1
 1363 817 1363 817 1363 493 c 128,-1,2
 1363 169 1363 169 1437 99 c 0,3,4
 1445 91 1445 91 1493.5 91 c 128,-1,5
 1542 91 1542 91 1593 108 c 1,6,-1
 1601 92 l 1,7,8
 1546 46 1546 46 1486 13.5 c 128,-1,9
 1426 -19 1426 -19 1383 -19 c 128,-1,10
 1340 -19 1340 -19 1308 13 c 128,-1,11
 1276 45 1276 45 1258 108 c 0,12,13
 1227 220 1227 220 1227 422 c 1,14,-1
 1221 422 l 1,15,16
 1153 240 1153 240 1039 116 c 0,17,18
 981 54 981 54 908.5 18 c 128,-1,19
 836 -18 836 -18 758 -18 c 0,20,21
 707 -18 707 -18 669.5 7.5 c 128,-1,22
 632 33 632 33 611 80 c 0,23,24
 571 168 571 168 571 311 c 0,25,26
 571 571 571 571 625 827.5 c 128,-1,27
 679 1084 679 1084 747 1218 c 1,28,-1
 544 1218 l 2,29,30
 376 1218 376 1218 305 1138.5 c 128,-1,31
 234 1059 234 1059 234 850 c 0,32,33
 234 821 234 821 236 805 c 1,34,35
 224 780 224 780 190 762 c 128,-1,36
 156 744 156 744 119 744 c 1,37,38
 118 756 118 756 118 781 c 0,39,40
 118 895 118 895 157 996.5 c 128,-1,41
 196 1098 196 1098 260 1167 c 128,-1,42
 324 1236 324 1236 407.5 1276 c 128,-1,43
 491 1316 491 1316 578 1316 c 2,44,-1
 895 1316 l 1,45,-1
 898 1308 l 1,46,47
 822 1222 822 1222 766.5 940.5 c 128,-1,48
 711 659 711 659 711 407 c 0,49,50
 711 100 711 100 856 100 c 0,51,52
 936 100 936 100 1018.5 182 c 128,-1,53
 1101 264 1101 264 1155.5 382.5 c 128,-1,54
 1210 501 1210 501 1222 613 c 0,55,56
 1263 1028 1263 1028 1318 1294 c 1,57,58
 1364 1318 1364 1318 1486 1340 c 1,59,-1
 1501 1317 l 1,60,61
 1480 1297 1480 1297 1459.5 1259 c 128,-1,62
 1439 1221 1439 1221 1431 1177 c 0,0,1
960 1708 m 1,63,-1
 1053 1724 l 1,64,65
 1101 1575 1101 1575 1261 1470 c 1,66,-1
 1237 1446 l 1,67,68
 1145 1478 1145 1478 1069 1545.5 c 128,-1,69
 993 1613 993 1613 960 1708 c 1,63,-1
EndSplineSet
EndChar

StartChar: Uacute
Encoding: 218 218 156
Width: 1515
GlyphClass: 2
Flags: W
LayerCount: 2
Fore
SplineSet
1431 1177 m 0,0,1
 1363 817 1363 817 1363 493 c 128,-1,2
 1363 169 1363 169 1437 99 c 0,3,4
 1445 91 1445 91 1493.5 91 c 128,-1,5
 1542 91 1542 91 1593 108 c 1,6,-1
 1601 92 l 1,7,8
 1546 46 1546 46 1486 13.5 c 128,-1,9
 1426 -19 1426 -19 1383 -19 c 128,-1,10
 1340 -19 1340 -19 1308 13 c 128,-1,11
 1276 45 1276 45 1258 108 c 0,12,13
 1227 220 1227 220 1227 422 c 1,14,-1
 1221 422 l 1,15,16
 1153 240 1153 240 1039 116 c 0,17,18
 981 54 981 54 908.5 18 c 128,-1,19
 836 -18 836 -18 758 -18 c 0,20,21
 707 -18 707 -18 669.5 7.5 c 128,-1,22
 632 33 632 33 611 80 c 0,23,24
 571 168 571 168 571 311 c 0,25,26
 571 571 571 571 625 827.5 c 128,-1,27
 679 1084 679 1084 747 1218 c 1,28,-1
 544 1218 l 2,29,30
 376 1218 376 1218 305 1138.5 c 128,-1,31
 234 1059 234 1059 234 850 c 0,32,33
 234 821 234 821 236 805 c 1,34,35
 224 780 224 780 190 762 c 128,-1,36
 156 744 156 744 119 744 c 1,37,38
 118 756 118 756 118 781 c 0,39,40
 118 895 118 895 157 996.5 c 128,-1,41
 196 1098 196 1098 260 1167 c 128,-1,42
 324 1236 324 1236 407.5 1276 c 128,-1,43
 491 1316 491 1316 578 1316 c 2,44,-1
 895 1316 l 1,45,-1
 898 1308 l 1,46,47
 822 1222 822 1222 766.5 940.5 c 128,-1,48
 711 659 711 659 711 407 c 0,49,50
 711 100 711 100 856 100 c 0,51,52
 936 100 936 100 1018.5 182 c 128,-1,53
 1101 264 1101 264 1155.5 382.5 c 128,-1,54
 1210 501 1210 501 1222 613 c 0,55,56
 1263 1028 1263 1028 1318 1294 c 1,57,58
 1364 1318 1364 1318 1486 1340 c 1,59,-1
 1501 1317 l 1,60,61
 1480 1297 1480 1297 1459.5 1259 c 128,-1,62
 1439 1221 1439 1221 1431 1177 c 0,0,1
1218 1717 m 1,63,-1
 1311 1701 l 1,64,65
 1279 1608 1279 1608 1204 1542.5 c 128,-1,66
 1129 1477 1129 1477 1034 1439 c 1,67,-1
 1010 1463 l 1,68,69
 1090 1515 1090 1515 1142 1575 c 128,-1,70
 1194 1635 1194 1635 1218 1717 c 1,63,-1
EndSplineSet
EndChar

StartChar: Ucircumflex
Encoding: 219 219 157
Width: 1515
GlyphClass: 2
Flags: W
LayerCount: 2
Fore
SplineSet
1431 1177 m 0,0,1
 1363 817 1363 817 1363 493 c 128,-1,2
 1363 169 1363 169 1437 99 c 0,3,4
 1445 91 1445 91 1493.5 91 c 128,-1,5
 1542 91 1542 91 1593 108 c 1,6,-1
 1601 92 l 1,7,8
 1546 46 1546 46 1486 13.5 c 128,-1,9
 1426 -19 1426 -19 1383 -19 c 128,-1,10
 1340 -19 1340 -19 1308 13 c 128,-1,11
 1276 45 1276 45 1258 108 c 0,12,13
 1227 220 1227 220 1227 422 c 1,14,-1
 1221 422 l 1,15,16
 1153 240 1153 240 1039 116 c 0,17,18
 981 54 981 54 908.5 18 c 128,-1,19
 836 -18 836 -18 758 -18 c 0,20,21
 707 -18 707 -18 669.5 7.5 c 128,-1,22
 632 33 632 33 611 80 c 0,23,24
 571 168 571 168 571 311 c 0,25,26
 571 571 571 571 625 827.5 c 128,-1,27
 679 1084 679 1084 747 1218 c 1,28,-1
 544 1218 l 2,29,30
 376 1218 376 1218 305 1138.5 c 128,-1,31
 234 1059 234 1059 234 850 c 0,32,33
 234 821 234 821 236 805 c 1,34,35
 224 780 224 780 190 762 c 128,-1,36
 156 744 156 744 119 744 c 1,37,38
 118 756 118 756 118 781 c 0,39,40
 118 895 118 895 157 996.5 c 128,-1,41
 196 1098 196 1098 260 1167 c 128,-1,42
 324 1236 324 1236 407.5 1276 c 128,-1,43
 491 1316 491 1316 578 1316 c 2,44,-1
 895 1316 l 1,45,-1
 898 1308 l 1,46,47
 822 1222 822 1222 766.5 940.5 c 128,-1,48
 711 659 711 659 711 407 c 0,49,50
 711 100 711 100 856 100 c 0,51,52
 936 100 936 100 1018.5 182 c 128,-1,53
 1101 264 1101 264 1155.5 382.5 c 128,-1,54
 1210 501 1210 501 1222 613 c 0,55,56
 1263 1028 1263 1028 1318 1294 c 1,57,58
 1364 1318 1364 1318 1486 1340 c 1,59,-1
 1501 1317 l 1,60,61
 1480 1297 1480 1297 1459.5 1259 c 128,-1,62
 1439 1221 1439 1221 1431 1177 c 0,0,1
1148 1722 m 1,63,64
 1174 1726 1174 1726 1194.5 1726 c 128,-1,65
 1215 1726 1215 1726 1239 1715 c 1,66,67
 1239 1596 1239 1596 1351 1489 c 1,68,-1
 1332 1464 l 1,69,70
 1223 1518 1223 1518 1172 1614 c 1,71,-1
 1168 1614 l 1,72,73
 1135 1568 1135 1568 1076 1529 c 128,-1,74
 1017 1490 1017 1490 952 1468 c 1,75,-1
 935 1490 l 1,76,77
 1106 1588 1106 1588 1148 1722 c 1,63,64
EndSplineSet
EndChar

StartChar: Udieresis
Encoding: 220 220 158
Width: 1515
GlyphClass: 2
Flags: W
LayerCount: 2
Fore
SplineSet
1431 1177 m 0,0,1
 1363 817 1363 817 1363 493 c 128,-1,2
 1363 169 1363 169 1437 99 c 0,3,4
 1445 91 1445 91 1493.5 91 c 128,-1,5
 1542 91 1542 91 1593 108 c 1,6,-1
 1601 92 l 1,7,8
 1546 46 1546 46 1486 13.5 c 128,-1,9
 1426 -19 1426 -19 1383 -19 c 128,-1,10
 1340 -19 1340 -19 1308 13 c 128,-1,11
 1276 45 1276 45 1258 108 c 0,12,13
 1227 220 1227 220 1227 422 c 1,14,-1
 1221 422 l 1,15,16
 1153 240 1153 240 1039 116 c 0,17,18
 981 54 981 54 908.5 18 c 128,-1,19
 836 -18 836 -18 758 -18 c 0,20,21
 707 -18 707 -18 669.5 7.5 c 128,-1,22
 632 33 632 33 611 80 c 0,23,24
 571 168 571 168 571 311 c 0,25,26
 571 571 571 571 625 827.5 c 128,-1,27
 679 1084 679 1084 747 1218 c 1,28,-1
 544 1218 l 2,29,30
 376 1218 376 1218 305 1138.5 c 128,-1,31
 234 1059 234 1059 234 850 c 0,32,33
 234 821 234 821 236 805 c 1,34,35
 224 780 224 780 190 762 c 128,-1,36
 156 744 156 744 119 744 c 1,37,38
 118 756 118 756 118 781 c 0,39,40
 118 895 118 895 157 996.5 c 128,-1,41
 196 1098 196 1098 260 1167 c 128,-1,42
 324 1236 324 1236 407.5 1276 c 128,-1,43
 491 1316 491 1316 578 1316 c 2,44,-1
 895 1316 l 1,45,-1
 898 1308 l 1,46,47
 822 1222 822 1222 766.5 940.5 c 128,-1,48
 711 659 711 659 711 407 c 0,49,50
 711 100 711 100 856 100 c 0,51,52
 936 100 936 100 1018.5 182 c 128,-1,53
 1101 264 1101 264 1155.5 382.5 c 128,-1,54
 1210 501 1210 501 1222 613 c 0,55,56
 1263 1028 1263 1028 1318 1294 c 1,57,58
 1364 1318 1364 1318 1486 1340 c 1,59,-1
 1501 1317 l 1,60,61
 1480 1297 1480 1297 1459.5 1259 c 128,-1,62
 1439 1221 1439 1221 1431 1177 c 0,0,1
939 1579 m 1,63,-1
 1019 1663 l 1,64,65
 1075 1623 1075 1623 1098 1575 c 1,66,67
 1073 1524 1073 1524 1020 1483 c 1,68,69
 969 1525 969 1525 939 1579 c 1,63,-1
1212 1579 m 1,70,-1
 1292 1663 l 1,71,72
 1348 1623 1348 1623 1371 1575 c 1,73,74
 1346 1524 1346 1524 1293 1483 c 1,75,76
 1242 1525 1242 1525 1212 1579 c 1,70,-1
EndSplineSet
EndChar

StartChar: Yacute
Encoding: 221 221 159
Width: 1147
GlyphClass: 2
Flags: W
LayerCount: 2
Fore
SplineSet
127 910 m 1,0,-1
 128 876 l 1,1,2
 112 852 112 852 77.5 834 c 128,-1,3
 43 816 43 816 7 811 c 1,4,5
 6 824 6 824 6 847 c 0,6,7
 6 1071 6 1071 129 1206 c 128,-1,8
 252 1341 252 1341 469 1341 c 0,9,10
 617 1341 617 1341 707 1240 c 0,11,12
 795 1140 795 1140 832 985 c 1,13,14
 868 829 868 829 868 652 c 0,15,16
 868 596 868 596 863.5 559 c 128,-1,17
 859 522 859 522 857 495 c 1,18,-1
 866 493 l 1,19,20
 940 575 940 575 993.5 641.5 c 128,-1,21
 1047 708 1047 708 1102 792 c 1,22,23
 1216 962 1216 962 1216 1115 c 0,24,25
 1216 1227 1216 1227 1105 1227 c 0,26,27
 1100 1227 1100 1227 1100 1235.5 c 128,-1,28
 1100 1244 1100 1244 1116.5 1270.5 c 128,-1,29
 1133 1297 1133 1297 1145 1308.5 c 128,-1,30
 1157 1320 1157 1320 1190.5 1320 c 128,-1,31
 1224 1320 1224 1320 1284 1301.5 c 128,-1,32
 1344 1283 1344 1283 1344 1247 c 0,33,34
 1344 911 1344 911 881 416 c 1,35,36
 811 338 811 338 768 284.5 c 128,-1,37
 725 231 725 231 683 166 c 0,38,39
 602 39 602 39 602 -89 c 0,40,41
 602 -158 602 -158 631 -196 c 128,-1,42
 660 -234 660 -234 705.5 -234 c 128,-1,43
 751 -234 751 -234 817.5 -209 c 128,-1,44
 884 -184 884 -184 942 -158.5 c 128,-1,45
 1000 -133 1000 -133 1024 -133 c 0,46,47
 1046 -133 1046 -133 1055.5 -174 c 128,-1,48
 1065 -215 1065 -215 1065 -265 c 1,49,50
 896 -306 896 -306 734 -306 c 0,51,52
 634 -306 634 -306 581.5 -253 c 128,-1,53
 529 -200 529 -200 529 -98 c 0,54,55
 529 105 529 105 720 332 c 1,56,57
 732 394 732 394 732 517.5 c 128,-1,58
 732 641 732 641 720 756.5 c 128,-1,59
 708 872 708 872 681 967 c 128,-1,60
 654 1062 654 1062 611 1124 c 0,61,62
 521 1252 521 1252 355 1252 c 0,63,64
 231 1252 231 1252 179 1163.5 c 128,-1,65
 127 1075 127 1075 127 910 c 1,0,-1
1056 1719 m 1,66,-1
 1149 1703 l 1,67,68
 1117 1610 1117 1610 1042 1544.5 c 128,-1,69
 967 1479 967 1479 872 1441 c 1,70,-1
 848 1465 l 1,71,72
 928 1517 928 1517 980 1577 c 128,-1,73
 1032 1637 1032 1637 1056 1719 c 1,66,-1
EndSplineSet
EndChar

StartChar: Thorn
Encoding: 222 222 160
Width: 1106
GlyphClass: 2
Flags: W
LayerCount: 2
Fore
SplineSet
795 1023 m 1,0,1
 795 1023 795 1023 760 1022 c 1,2,-1
 693 326 l 2,3,4
 684 234 684 234 666 182.5 c 128,-1,5
 648 131 648 131 612 105 c 1,6,-1
 614 100 l 1,7,-1
 669 100 l 2,8,9
 735 100 735 100 772 109 c 128,-1,10
 809 118 809 118 845 146 c 1,11,-1
 853 134 l 1,12,13
 814 62 814 62 772 31 c 128,-1,14
 730 0 730 0 657 0 c 2,15,-1
 389 0 l 1,16,-1
 384 13 l 1,17,18
 482 45 482 45 520 126 c 0,19,20
 553 195 553 195 565 309 c 2,21,-1
 603 670 l 1,22,-1
 624 918 l 1,23,-1
 633 1007 l 1,24,25
 305 939 305 939 271 568 c 1,26,27
 259 540 259 540 222 522 c 128,-1,28
 185 504 185 504 143 504 c 1,29,30
 175 714 175 714 305 867.5 c 128,-1,31
 435 1021 435 1021 644 1075 c 1,32,33
 660 1158 660 1158 693 1212 c 1,34,-1
 693 1216 l 1,35,-1
 571 1216 l 2,36,37
 492 1216 492 1216 430 1195 c 1,38,-1
 420 1207 l 1,39,40
 458 1266 458 1266 503 1291 c 128,-1,41
 548 1316 548 1316 629 1316 c 2,42,-1
 850 1316 l 1,43,-1
 851 1305 l 1,44,45
 816 1279 816 1279 797 1245 c 128,-1,46
 778 1211 778 1211 773 1152 c 1,47,-1
 767 1097 l 1,48,49
 817 1102 817 1102 859 1102 c 0,50,51
 1033 1102 1033 1102 1138 1012.5 c 128,-1,52
 1243 923 1243 923 1243 783 c 0,53,54
 1243 606 1243 606 1111.5 492 c 128,-1,55
 980 378 980 378 754 378 c 1,56,57
 754 447 754 447 781 469 c 1,58,59
 869 453 869 453 880 453 c 0,60,61
 998 453 998 453 1052.5 524.5 c 128,-1,62
 1107 596 1107 596 1107 720 c 128,-1,63
 1107 844 1107 844 1024 933.5 c 128,-1,64
 941 1023 941 1023 795 1023 c 1,0,1
EndSplineSet
EndChar

StartChar: germandbls
Encoding: 223 223 161
Width: 860
GlyphClass: 2
Flags: W
LayerCount: 2
Fore
SplineSet
732 1485 m 0,0,1
 846 1485 846 1485 915.5 1416.5 c 128,-1,2
 985 1348 985 1348 985 1234 c 0,3,4
 985 1163 985 1163 947.5 1099 c 128,-1,5
 910 1035 910 1035 857 988 c 128,-1,6
 804 941 804 941 751 898 c 0,7,8
 623 796 623 796 623 717 c 0,9,10
 623 675 623 675 647.5 630.5 c 128,-1,11
 672 586 672 586 694.5 562.5 c 128,-1,12
 717 539 717 539 762 497 c 0,13,14
 839 427 839 427 879 369.5 c 128,-1,15
 919 312 919 312 919 252 c 0,16,17
 919 148 919 148 828.5 65 c 128,-1,18
 738 -18 738 -18 623 -18 c 0,19,20
 559 -18 559 -18 500.5 10 c 128,-1,21
 442 38 442 38 412 82 c 1,22,23
 412 162 412 162 472 201 c 1,24,25
 507 131 507 131 555.5 92.5 c 128,-1,26
 604 54 604 54 674 54 c 128,-1,27
 744 54 744 54 788.5 91 c 128,-1,28
 833 128 833 128 833 183 c 128,-1,29
 833 238 833 238 794 289 c 128,-1,30
 755 340 755 340 674 413 c 0,31,32
 638 446 638 446 619.5 464 c 128,-1,33
 601 482 601 482 574 514 c 0,34,35
 523 576 523 576 523 640 c 128,-1,36
 523 704 523 704 543 753.5 c 128,-1,37
 563 803 563 803 595 839 c 128,-1,38
 627 875 627 875 665.5 908.5 c 128,-1,39
 704 942 704 942 742.5 973.5 c 128,-1,40
 781 1005 781 1005 813 1038 c 0,41,42
 885 1111 885 1111 885 1202 c 128,-1,43
 885 1293 885 1293 827 1348.5 c 128,-1,44
 769 1404 769 1404 686 1404 c 0,45,46
 587 1404 587 1404 506 1323.5 c 128,-1,47
 425 1243 425 1243 405 1089 c 0,48,49
 402 1065 402 1065 397.5 1036 c 128,-1,50
 393 1007 393 1007 383 941 c 128,-1,51
 373 875 373 875 360 790 c 0,52,53
 314 500 314 500 259 137 c 0,54,55
 221 -111 221 -111 110.5 -238 c 128,-1,56
 0 -365 0 -365 -168 -365 c 0,57,58
 -208 -365 -208 -365 -257 -356 c 1,59,60
 -243 -289 -243 -289 -196 -259 c 1,61,62
 -138 -275 -138 -275 -79 -275 c 0,63,64
 3 -275 3 -275 55.5 -215 c 128,-1,65
 108 -155 108 -155 132 -6 c 2,66,-1
 294 990 l 2,67,68
 330 1210 330 1210 453 1347.5 c 128,-1,69
 576 1485 576 1485 732 1485 c 0,0,1
EndSplineSet
EndChar

StartChar: agrave
Encoding: 224 224 162
Width: 860
GlyphClass: 2
Flags: W
LayerCount: 2
Fore
SplineSet
632 893 m 1,0,1
 632 893 632 893 797 883 c 1,2,3
 794 766 794 766 770 583 c 128,-1,4
 746 400 746 400 739.5 352.5 c 128,-1,5
 733 305 733 305 718.5 201.5 c 128,-1,6
 704 98 704 98 701 76 c 1,7,-1
 705 74 l 1,8,9
 777 111 777 111 824.5 167.5 c 128,-1,10
 872 224 872 224 918 313 c 1,11,-1
 939 301 l 1,12,13
 888 185 888 185 799 82.5 c 128,-1,14
 710 -20 710 -20 648 -20 c 0,15,16
 629 -20 629 -20 616 -2 c 128,-1,17
 603 16 603 16 603 45 c 0,18,19
 603 123 603 123 627 315 c 1,20,-1
 621 317 l 1,21,22
 563 190 563 190 472 85 c 128,-1,23
 381 -20 381 -20 299 -20 c 0,24,25
 240 -20 240 -20 207 55.5 c 128,-1,26
 174 131 174 131 174 256 c 0,27,28
 174 421 174 421 233 566.5 c 128,-1,29
 292 712 292 712 398 802.5 c 128,-1,30
 504 893 504 893 632 893 c 1,0,1
559 801 m 0,31,32
 464 801 464 801 402.5 732.5 c 128,-1,33
 341 664 341 664 315.5 552.5 c 128,-1,34
 290 441 290 441 290 287 c 0,35,36
 290 197 290 197 310 142.5 c 128,-1,37
 330 88 330 88 371 88 c 0,38,39
 423 88 423 88 489 165.5 c 128,-1,40
 555 243 555 243 602 346.5 c 128,-1,41
 649 450 649 450 655 526 c 1,42,-1
 679 782 l 1,43,44
 595 801 595 801 559 801 c 0,31,32
485 1361 m 1,45,-1
 578 1377 l 1,46,47
 626 1228 626 1228 786 1123 c 1,48,-1
 762 1099 l 1,49,50
 670 1131 670 1131 594 1198.5 c 128,-1,51
 518 1266 518 1266 485 1361 c 1,45,-1
EndSplineSet
EndChar

